<svg width="101" height="84" viewBox="0 0 101 84" fill="none" xmlns="http://www.w3.org/2000/svg">
<g clip-path="url(#clip0_281_115)" filter="url(#filter0_d_281_115)">
<path fill-rule="evenodd" clip-rule="evenodd" d="M8.73938 57.2469H92.0621C92.2499 57.2469 92.4016 57.399 92.4016 57.5912C92.4016 57.8018 92.2516 57.9538 92.0621 57.9538H8.73938C8.55151 57.9538 8.3999 57.8018 8.3999 57.5912C8.3999 57.4007 8.54987 57.2469 8.73938 57.2469Z" fill="#FDBE2C"/>
<path fill-rule="evenodd" clip-rule="evenodd" d="M91.3453 50.3334C90.6482 51.0203 89.7633 51.3645 88.7086 51.3645C87.6539 51.3645 86.8629 51.0203 86.1477 50.3334C85.4506 49.6265 85.1309 48.7475 85.1309 47.7164V8.04816C85.1309 7.01706 85.4885 6.15808 86.1856 5.43113C86.8826 4.74428 87.7857 4.40002 88.8404 4.40002C89.8951 4.40002 90.6861 4.74428 91.3832 5.43113C92.0803 6.11797 92.4 7.01706 92.4 8.04816V47.7181C92.4 48.7492 92.0424 49.6282 91.3453 50.3351V50.3334Z" fill="#227FC2"/>
<path fill-rule="evenodd" clip-rule="evenodd" d="M81.5331 45.2347C80.836 44.5278 79.9511 44.1835 78.8964 44.1835H67.2947C67.0689 44.1451 66.8432 44.1451 66.5976 44.1451C64.1685 44.1451 61.7757 43.495 59.8739 42.0444C57.9524 40.5738 56.3325 38.3963 55.8249 35.7793H78.5009C79.5935 35.7793 80.5163 35.4735 81.3074 34.805C82.1165 34.1365 82.5318 33.2959 82.5878 32.2264C82.5878 29.113 81.7968 26.1718 80.2527 23.4979C78.7085 20.8241 76.637 18.685 74.0184 17.0807C71.3998 15.5148 68.6312 14.6926 65.6929 14.6926C62.7546 14.6926 59.9102 15.438 57.2553 16.947C54.6186 18.4745 52.5092 20.672 50.909 23.5364C49.327 26.4007 48.498 29.7431 48.498 33.5065C48.498 36.9056 49.2512 39.9622 50.7574 42.6745C52.2834 45.3868 54.4307 47.5258 57.2174 49.0733C59.7405 50.4487 62.6409 51.2124 65.9187 51.3645C66.0884 51.4029 66.2384 51.4029 66.4081 51.4029H78.8947C79.9494 51.4029 80.7965 51.0403 81.5315 50.3902C82.2286 49.7034 82.5862 48.8811 82.5862 47.8684C82.5862 46.7989 82.2286 45.9199 81.5315 45.233L81.5331 45.2347ZM65.6369 21.3605C71.5316 21.3605 74.7534 26.8419 74.9034 28.6952V29.1732H55.6354C56.5961 24.3603 60.0997 21.3622 65.6369 21.3622V21.3605Z" fill="#FDBE2C"/>
<path fill-rule="evenodd" clip-rule="evenodd" d="M46.3689 32.9717C46.3689 43.1708 37.9874 51.4597 27.6662 51.4597C17.345 51.4597 8.96509 43.1708 8.96509 32.9717V8.08655C8.96509 6.09955 10.585 4.49524 12.5807 4.49524C14.5764 4.49524 16.2161 6.09955 16.2161 8.08655V18.3809C19.3802 15.956 23.3172 14.5422 27.6299 14.5422C37.989 14.5038 46.3706 22.7743 46.3706 32.9734L46.3689 32.9717ZM40.3802 33.0486C40.3802 26.1735 34.7293 20.6336 27.8178 20.6336C20.9062 20.6336 15.2554 26.2102 15.2554 33.0486C15.2554 39.887 20.9062 45.4436 27.8178 45.4436C34.7293 45.4436 40.3802 39.9054 40.3802 33.0486Z" fill="#227FC2"/>
<path fill-rule="evenodd" clip-rule="evenodd" d="M28.9287 32.6092C28.9287 33.3345 28.3634 33.8893 27.6284 33.8893C26.8934 33.8893 26.3101 33.3361 26.3101 32.6092V25.1408C26.3101 24.4155 26.8934 23.8423 27.6284 23.8423C28.3634 23.8423 28.9287 24.4155 28.9287 25.1408V32.6092Z" fill="#FDBE2C"/>
<path fill-rule="evenodd" clip-rule="evenodd" d="M30.5486 26.115V28.2541C32.3185 29.2668 33.449 31.1184 33.449 33.2391C33.449 36.4093 30.8502 38.9695 27.6663 38.9695C24.4825 38.9695 21.8655 36.3725 21.8655 33.2391C21.8655 31.1184 23.0339 29.2668 24.7659 28.2541V26.115C21.8836 27.2413 19.8879 30.0105 19.8879 33.2391C19.8879 37.4789 23.3915 40.9164 27.6663 40.9164C31.9411 40.9164 35.4266 37.4404 35.4266 33.2391C35.4266 30.0121 33.393 27.2413 30.5486 26.115Z" fill="#227FC2"/>
<path d="M16.4799 69.1456C15.9905 69.1456 15.5571 69.0303 15.1616 68.8014C14.7661 68.5724 14.4464 68.2482 14.2206 67.8472C13.9948 67.4461 13.8811 66.9882 13.8811 66.4919V62.0416C13.8811 61.9079 13.919 61.8126 13.9948 61.7174C14.0887 61.6405 14.1827 61.6021 14.3145 61.6021C14.4464 61.6021 14.5403 61.6405 14.6342 61.7174C14.71 61.8126 14.7479 61.9079 14.7479 62.0416V64.7338C14.9737 64.448 15.2374 64.2375 15.5571 64.0653C15.8768 63.8932 16.2344 63.8163 16.6497 63.8163C17.1012 63.8163 17.5346 63.9316 17.8922 64.1606C18.2696 64.3895 18.5696 64.7137 18.7772 65.1148C19.003 65.5159 19.1167 65.9738 19.1167 66.4701C19.1167 66.9665 19.003 67.4244 18.7591 67.8455C18.5333 68.2466 18.2317 68.5524 17.8362 68.7997C17.4407 69.0287 16.9892 69.144 16.4799 69.144V69.1456ZM16.4799 68.3619C16.8194 68.3619 17.121 68.2666 17.3847 68.1129C17.6665 67.9407 17.8741 67.7302 18.0257 67.4444C18.1757 67.1586 18.2713 66.8328 18.2713 66.4701C18.2713 66.1075 18.1773 65.8017 18.0257 65.5159C17.8758 65.2301 17.6681 64.9995 17.3847 64.8474C17.121 64.6753 16.8194 64.5984 16.4799 64.5984C16.1602 64.5984 15.8587 64.6753 15.5752 64.8474C15.3115 64.9995 15.1039 65.2301 14.9539 65.5159C14.804 65.8017 14.7282 66.1075 14.7282 66.4701C14.7282 66.8328 14.804 67.157 14.9539 67.4444C15.1039 67.7302 15.3115 67.9407 15.5752 68.1129C15.857 68.265 16.1586 68.3619 16.4799 68.3619ZM22.9581 69.1456C22.4307 69.1456 21.9792 69.0303 21.5639 68.8014C21.1684 68.5724 20.8487 68.2666 20.6229 67.8655C20.3972 67.4645 20.2834 67.0066 20.2834 66.4902C20.2834 65.9738 20.3972 65.4975 20.6031 65.0964C20.8289 64.6954 21.1124 64.3895 21.5079 64.1606C21.8853 63.9316 22.317 63.8163 22.8081 63.8163C23.2992 63.8163 23.731 63.9316 24.0705 64.1405C24.4281 64.3695 24.7115 64.6753 24.8994 65.058C25.0873 65.4407 25.1812 65.8986 25.1812 66.3949C25.1812 66.5102 25.1433 66.6055 25.0675 66.6623C24.9917 66.7392 24.8977 66.7776 24.7857 66.7776H20.8866V66.0707H24.7857L24.3902 66.3565C24.3902 66.0122 24.3341 65.7064 24.2023 65.439C24.0705 65.1716 23.9007 64.9611 23.6568 64.809C23.4311 64.6569 23.1476 64.58 22.8098 64.58C22.4522 64.58 22.1506 64.6569 21.8869 64.8291C21.6232 64.9811 21.4156 65.2117 21.2838 65.4975C21.1519 65.7833 21.0761 66.1275 21.0761 66.4902C21.0761 66.8528 21.1519 67.177 21.3217 67.4645C21.4716 67.7502 21.699 67.9608 21.9808 68.1329C22.2626 68.3051 22.584 68.3819 22.9597 68.3819C23.1674 68.3819 23.3734 68.3435 23.581 68.2666C23.8068 68.1898 23.9765 68.1145 24.1084 67.9992C24.2023 67.9224 24.2962 67.904 24.3902 67.8839C24.4841 67.8839 24.578 67.9224 24.6538 67.9792C24.7478 68.0744 24.8038 68.1697 24.8038 68.265C24.8038 68.3803 24.7659 68.4755 24.672 68.5507C24.4643 68.7228 24.1825 68.8565 23.8809 68.9702C23.5612 69.0855 23.2399 69.1423 22.9581 69.1423V69.1456ZM28.4194 69.1456C27.9481 69.1456 27.5345 69.0303 27.1571 68.8014C26.7797 68.5724 26.4798 68.2482 26.2721 67.8472C26.0645 67.4461 25.9524 66.9882 25.9524 66.4919C25.9524 65.9955 26.0661 65.5176 26.2919 65.1165C26.5375 64.7154 26.8374 64.3912 27.2329 64.1623C27.6284 63.9333 28.08 63.818 28.5694 63.818C29.0588 63.818 29.5104 63.9333 29.9059 64.1623C30.3014 64.3912 30.603 64.7154 30.8288 65.1165C31.0743 65.5176 31.1864 65.9755 31.1864 66.4919L30.8469 66.5687C30.8469 67.0651 30.7332 67.5046 30.5272 67.8873C30.3195 68.2883 30.018 68.5942 29.6604 68.8047C29.3027 69.0337 28.8875 69.149 28.4178 69.149L28.4194 69.1456ZM28.5694 68.3619C28.9089 68.3619 29.2105 68.2666 29.4741 68.1129C29.7378 67.9407 29.9455 67.7302 30.1152 67.4444C30.2652 67.1586 30.341 66.8328 30.341 66.4902C30.341 66.1275 30.2652 65.8033 30.1152 65.5159C29.9455 65.2301 29.7378 64.9995 29.4741 64.8474C29.2105 64.6753 28.9089 64.5984 28.5694 64.5984C28.2299 64.5984 27.9283 64.6753 27.6647 64.8474C27.401 64.9995 27.1752 65.2301 27.0236 65.5159C26.8736 65.8017 26.7978 66.1275 26.7978 66.4902C26.7978 66.8344 26.8736 67.1586 27.0236 67.4444C27.1736 67.7302 27.401 67.9407 27.6647 68.1129C27.9283 68.265 28.2299 68.3619 28.5694 68.3619ZM30.7348 69.1072C30.6211 69.1072 30.5091 69.0688 30.4333 68.9919C30.3574 68.915 30.3014 68.8014 30.3014 68.6677V67.1403L30.4893 66.2228L31.1864 66.4902V68.6677C31.1864 68.8014 31.1485 68.9167 31.0545 68.9919C30.9787 69.0688 30.8667 69.1072 30.7348 69.1072ZM34.9536 69.1456C34.4444 69.1456 34.0126 69.0303 33.6171 68.8014C33.2216 68.5524 32.92 68.2482 32.6943 67.8472C32.4685 67.4461 32.3548 66.9882 32.3548 66.4919C32.3548 65.9955 32.4685 65.4992 32.6745 65.0981C32.9003 64.697 33.2018 64.3912 33.5792 64.1623C33.9566 63.9333 34.3884 63.818 34.8976 63.818C35.275 63.818 35.6128 63.8949 35.9342 64.0286C36.2357 64.1806 36.5175 64.4113 36.7631 64.697C36.857 64.7923 36.8768 64.8875 36.857 64.9828C36.8389 65.0981 36.7812 65.1733 36.6691 65.2502C36.5933 65.307 36.4994 65.3271 36.4055 65.307C36.2918 65.2886 36.2176 65.2301 36.1418 65.1549C35.8023 64.7923 35.3887 64.6018 34.8992 64.6018C34.5598 64.6018 34.2582 64.6787 34.0143 64.8508C33.7506 65.0029 33.5627 65.2335 33.4111 65.5009C33.2793 65.7866 33.2035 66.1125 33.2035 66.4935C33.2035 66.8378 33.2793 67.162 33.4292 67.4478C33.5611 67.7335 33.7687 67.9441 34.0505 68.1162C34.3142 68.2683 34.6158 68.3652 34.9553 68.3652C35.181 68.3652 35.3887 68.3268 35.5765 68.27C35.7644 68.2131 35.916 68.1179 36.066 68.0026C36.1599 67.9257 36.2539 67.8689 36.3478 67.8689C36.4417 67.8689 36.5357 67.8873 36.6115 67.9641C36.7054 68.041 36.7614 68.1363 36.7614 68.2315C36.7796 68.3468 36.7433 68.422 36.6675 68.4989C36.216 68.9384 35.6309 69.149 34.9536 69.149V69.1456ZM40.6407 69.1456C40.1315 69.1456 39.68 69.0303 39.2845 68.8014C38.9071 68.5724 38.5874 68.2666 38.3616 67.8655C38.1358 67.4645 38.0221 67.0066 38.0221 66.4902C38.0221 65.9738 38.1358 65.4975 38.3616 65.0964C38.5874 64.6954 38.9071 64.3895 39.2845 64.1606C39.68 63.9316 40.1315 63.8163 40.6407 63.8163C41.15 63.8163 41.6015 63.9316 41.997 64.1606C42.3925 64.3895 42.6941 64.6954 42.9199 65.0964C43.1456 65.4975 43.2593 65.9554 43.2593 66.4902C43.2593 67.025 43.1456 67.4645 42.9199 67.8655C42.6941 68.2666 42.3925 68.5724 41.997 68.8014C41.6015 69.0303 41.15 69.1456 40.6407 69.1456ZM40.6407 68.3619C40.9983 68.3619 41.2999 68.285 41.5636 68.1129C41.8273 67.9608 42.0349 67.7302 42.1849 67.4444C42.3348 67.177 42.4107 66.8528 42.4107 66.4902C42.4107 66.1275 42.3348 65.8033 42.1849 65.5159C42.0349 65.2301 41.8273 64.9995 41.5636 64.8474C41.2999 64.6753 40.9983 64.5984 40.6407 64.5984C40.3013 64.5984 39.9997 64.6753 39.736 64.8474C39.4542 64.9995 39.2466 65.2301 39.0949 65.5159C38.945 65.8017 38.8692 66.1275 38.8692 66.4902C38.8692 66.8528 38.945 67.177 39.0949 67.4444C39.2449 67.7302 39.4526 67.9608 39.736 68.1129C39.9997 68.285 40.3013 68.3619 40.6407 68.3619ZM49.0981 69.1072C48.9844 69.1072 48.8723 69.0688 48.7784 68.9919C48.7026 68.8966 48.6647 68.8014 48.6647 68.6677V66.2612C48.6647 65.8785 48.5889 65.5744 48.457 65.3254C48.3071 65.0764 48.1175 64.9059 47.8918 64.7906C47.666 64.6753 47.3826 64.6185 47.0826 64.6185C46.8008 64.6185 46.5553 64.6753 46.3097 64.7906C46.084 64.9059 45.9142 65.058 45.7824 65.2485C45.6324 65.439 45.5747 65.6496 45.5747 65.8986H45.0095C45.0095 65.4975 45.1034 65.1349 45.3111 64.8291C45.4989 64.5048 45.7626 64.2558 46.1021 64.0837C46.4416 63.8932 46.8173 63.7979 47.2326 63.7979C47.6479 63.7979 48.0615 63.8932 48.4191 64.0837C48.7586 64.2742 49.0404 64.5617 49.2283 64.9243C49.4359 65.287 49.5299 65.7265 49.5299 66.2612V68.6677C49.5299 68.8014 49.4919 68.8966 49.4161 68.9919C49.3222 69.0688 49.2283 69.1072 49.0964 69.1072H49.0981ZM45.143 69.1072C45.0111 69.1072 44.8974 69.0688 44.8233 68.9919C44.7475 68.915 44.6914 68.8014 44.6914 68.6677V64.2943C44.6914 64.1606 44.7475 64.0453 44.8233 63.9701C44.8991 63.8949 45.0111 63.8548 45.143 63.8548C45.2748 63.8548 45.3687 63.8932 45.4445 63.9701C45.5385 64.0469 45.5764 64.1606 45.5764 64.2943V68.6677C45.5764 68.8014 45.5385 68.9167 45.4445 68.9919C45.3687 69.0688 45.2748 69.1072 45.143 69.1072ZM56.331 69.1456C55.8036 69.1456 55.3323 69.0303 54.9368 68.8014C54.5413 68.5724 54.2216 68.2666 53.9958 67.8655C53.7701 67.4645 53.6564 67.0066 53.6564 66.4902C53.6564 65.9738 53.7503 65.4975 53.9761 65.0964C54.1837 64.6954 54.4853 64.3895 54.861 64.1606C55.2384 63.9316 55.6899 63.8163 56.1794 63.8163C56.6688 63.8163 57.0841 63.9316 57.4417 64.1405C57.7993 64.3695 58.063 64.6753 58.2509 65.058C58.4387 65.4407 58.5327 65.8986 58.5327 66.3949C58.5327 66.5102 58.4948 66.6055 58.4387 66.6623C58.3629 66.7392 58.269 66.7776 58.1372 66.7776H54.2381V66.0707H58.1553L57.7598 66.3565C57.7598 66.0122 57.684 65.7064 57.5719 65.439C57.4401 65.1716 57.2522 64.9611 57.0264 64.809C56.7809 64.6569 56.5172 64.58 56.1794 64.58C55.8218 64.58 55.5021 64.6569 55.2565 64.8291C54.9928 64.9811 54.7852 65.2117 54.6534 65.4975C54.5034 65.7833 54.4457 66.1275 54.4457 66.4902C54.4457 66.8528 54.5215 67.177 54.6715 67.4645C54.8412 67.7502 55.067 67.9608 55.3488 68.1329C55.6125 68.3051 55.952 68.3819 56.3277 68.3819C56.5156 68.3819 56.7413 68.3435 56.949 68.2666C57.1748 68.1898 57.3445 68.1145 57.4582 67.9992C57.5521 67.9224 57.6461 67.904 57.7598 67.8839C57.8537 67.8839 57.9476 67.9224 58.0235 67.9792C58.1174 68.0744 58.1553 68.1697 58.1734 68.265C58.1734 68.3803 58.1355 68.4755 58.0416 68.5507C57.8158 68.7228 57.5521 68.8565 57.2324 68.9702C56.9127 69.0855 56.6111 69.1423 56.3277 69.1423L56.331 69.1456ZM64.1852 69.1072C64.0534 69.1072 63.9396 69.0688 63.8655 68.9919C63.7715 68.8966 63.7336 68.8014 63.7336 68.6677V66.2612C63.7336 65.8785 63.6578 65.5744 63.526 65.3254C63.3942 65.0764 63.2063 64.9059 62.9608 64.7906C62.735 64.6753 62.4713 64.6185 62.1516 64.6185C61.8698 64.6185 61.6243 64.6753 61.3985 64.7906C61.1727 64.9059 60.9848 65.058 60.853 65.2485C60.7212 65.439 60.6454 65.6496 60.6454 65.8986H60.0801C60.0801 65.4975 60.1938 65.1349 60.3817 64.8291C60.5696 64.5048 60.8332 64.2558 61.1727 64.0837C61.5122 63.8932 61.8879 63.7979 62.3032 63.7979C62.7548 63.7979 63.1321 63.8932 63.4897 64.0837C63.8292 64.2742 64.111 64.5617 64.3187 64.9243C64.5065 65.287 64.6203 65.7265 64.6203 66.2612V68.6677C64.6203 68.8014 64.5823 68.8966 64.4884 68.9919C64.3945 69.0688 64.3005 69.1072 64.1868 69.1072H64.1852ZM60.2119 69.1072C60.0801 69.1072 59.9862 69.0688 59.8922 68.9919C59.8164 68.915 59.7785 68.8014 59.7785 68.6677V64.2943C59.7785 64.1606 59.8164 64.0453 59.8922 63.9701C59.9862 63.8932 60.0801 63.8548 60.2119 63.8548C60.3438 63.8548 60.4575 63.8932 60.5317 63.9701C60.6058 64.0469 60.6454 64.1606 60.6454 64.2943V68.6677C60.6454 68.8014 60.6075 68.9167 60.5317 68.9919C60.4558 69.0688 60.3438 69.1072 60.2119 69.1072ZM68.6314 69.1456C68.104 69.1456 67.6327 69.0303 67.2372 68.8014C66.8417 68.5724 66.522 68.2666 66.2962 67.8655C66.0705 67.4645 65.9567 67.0066 65.9567 66.4902C65.9567 65.9738 66.0507 65.4975 66.2765 65.0964C66.4841 64.6954 66.7857 64.3895 67.1614 64.1606C67.5388 63.9316 67.9903 63.8163 68.4798 63.8163C68.9692 63.8163 69.3845 63.9316 69.7421 64.1405C70.0997 64.3695 70.3634 64.6753 70.5513 65.058C70.7391 65.4407 70.8331 65.8986 70.8331 66.3949C70.8331 66.5102 70.7952 66.6055 70.7194 66.6623C70.6633 66.7392 70.5496 66.7776 70.4376 66.7776H66.5385V66.0707H70.4557L70.0602 66.3565C70.0602 66.0122 69.9844 65.7064 69.8525 65.439C69.7388 65.1716 69.551 64.9611 69.3252 64.809C69.0796 64.6569 68.7978 64.58 68.4781 64.58C68.1205 64.58 67.8008 64.6569 67.5371 64.8291C67.2916 64.9811 67.0856 65.2117 66.9538 65.4975C66.8038 65.7833 66.728 66.1275 66.728 66.4902C66.728 66.8528 66.8219 67.177 66.9735 67.4645C67.1433 67.7502 67.3691 67.9608 67.6327 68.1329C67.9145 68.3051 68.254 68.3819 68.6314 68.3819C68.8193 68.3819 69.0269 68.3435 69.2527 68.2666C69.4785 68.1898 69.6482 68.1145 69.7619 67.9992C69.8558 67.9224 69.9498 67.904 70.0635 67.8839C70.1574 67.8839 70.2513 67.9224 70.3271 67.9792C70.4211 68.0744 70.459 68.1697 70.4771 68.265C70.4771 68.3803 70.4392 68.4755 70.3453 68.5507C70.1195 68.7228 69.8558 68.8565 69.5361 68.9702C69.2164 69.0855 68.9148 69.1423 68.6314 69.1423V69.1456ZM72.4728 65.8418C72.4728 65.4591 72.5865 65.0964 72.7744 64.7906C72.9622 64.4848 73.2078 64.2375 73.5094 64.0653C73.8291 63.8932 74.1686 63.7979 74.5262 63.7979C74.8838 63.7979 75.1474 63.8548 75.3172 63.95C75.4869 64.0653 75.5627 64.199 75.5051 64.3695C75.4869 64.4647 75.449 64.5416 75.3913 64.58C75.3353 64.6185 75.2776 64.6369 75.2035 64.6369C75.1277 64.6553 75.0337 64.6369 74.9579 64.6369C74.5624 64.56 74.2229 64.58 73.9214 64.6553C73.6198 64.7321 73.3759 64.8842 73.2061 65.0948C73.0183 65.2853 72.9243 65.5527 72.9243 65.8401H72.4728V65.8418ZM72.4909 69.1072C72.3591 69.1072 72.2652 69.0688 72.1893 68.9919C72.1135 68.915 72.0756 68.8198 72.0756 68.6677V64.2742C72.0756 64.1405 72.1135 64.0453 72.1893 63.9684C72.2652 63.8915 72.3591 63.8531 72.4909 63.8531C72.6409 63.8531 72.7546 63.8915 72.8304 63.9684C72.8864 64.0252 72.9243 64.1405 72.9243 64.2742V68.6677C72.9243 68.8014 72.8864 68.9167 72.8304 68.9919C72.7546 69.0688 72.6425 69.1072 72.4909 69.1072ZM78.4055 69.1456C77.916 69.1456 77.4826 69.0303 77.1052 68.8014C76.7476 68.5724 76.446 68.2666 76.2384 67.8655C76.0308 67.4645 75.9187 67.0066 75.9187 66.4902C75.9187 65.9738 76.0324 65.4975 76.2582 65.0964C76.4839 64.6954 76.8036 64.3895 77.1992 64.1606C77.5765 63.9316 78.0281 63.8163 78.5357 63.8163C79.0432 63.8163 79.4964 63.9316 79.8919 64.1606C80.2874 64.3895 80.589 64.6954 80.8148 65.0964C81.0406 65.4975 81.1543 65.9554 81.1724 66.4902L80.6451 66.5671C80.6451 67.0834 80.5511 67.5213 80.3632 67.904C80.1754 68.3051 79.9117 68.5908 79.5722 68.8214C79.2146 69.032 78.8372 69.1456 78.4038 69.1456H78.4055ZM78.5373 71.2463C78.066 71.2463 77.6523 71.151 77.2568 70.9789C76.8613 70.7884 76.5416 70.5394 76.2779 70.1951C76.2021 70.0999 76.184 70.0046 76.2021 69.8893C76.2203 69.774 76.2582 69.6988 76.3719 69.6403C76.4658 69.5634 76.5795 69.5451 76.6916 69.5634C76.8036 69.5818 76.8992 69.6403 76.9553 69.7356C77.1431 69.9461 77.3508 70.1366 77.6326 70.252C77.8962 70.3856 78.1978 70.4425 78.5554 70.4425C78.8751 70.4425 79.1767 70.3656 79.4404 70.2135C79.7041 70.0614 79.9117 69.8308 80.0814 69.5267C80.2314 69.2409 80.3072 68.8766 80.3072 68.4571V67.0634L80.6088 66.3381L81.174 66.4902V68.514C81.174 69.0303 81.0603 69.4882 80.8346 69.8893C80.6088 70.3088 80.2891 70.6347 79.8936 70.882C79.4981 71.131 79.0465 71.2446 78.5373 71.2446V71.2463ZM78.5373 68.3619C78.8949 68.3619 79.1965 68.285 79.4602 68.1129C79.7238 67.9608 79.9315 67.7302 80.0814 67.4444C80.2314 67.177 80.3072 66.8528 80.3072 66.4902C80.3072 66.1275 80.2314 65.8033 80.0814 65.5159C79.9315 65.2301 79.7238 64.9995 79.4602 64.8474C79.1965 64.6753 78.8949 64.5984 78.5373 64.5984C78.1978 64.5984 77.8962 64.6753 77.6326 64.8474C77.3508 64.9995 77.1431 65.2301 76.9915 65.5159C76.8415 65.8017 76.7657 66.1275 76.7657 66.4902C76.7657 66.8528 76.8415 67.177 76.9915 67.4444C77.1415 67.7302 77.3491 67.9608 77.6326 68.1129C77.8962 68.285 78.1978 68.3619 78.5373 68.3619ZM83.5092 71.3984C83.4532 71.3984 83.3774 71.38 83.3016 71.3599C83.056 71.2446 82.9819 71.0541 83.0939 70.8068L86.0504 64.1038C86.1641 63.8548 86.3519 63.7796 86.5958 63.8932C86.8595 64.0085 86.9156 64.179 86.8035 64.4464L83.847 71.131C83.7712 71.3215 83.6592 71.3984 83.5076 71.3984H83.5092ZM84.6018 68.915C84.4881 68.9718 84.3942 68.9718 84.3002 68.9334C84.1931 68.89 84.1074 68.8081 84.0547 68.7045L81.9074 64.4263C81.8514 64.311 81.8514 64.2157 81.8893 64.1021C81.9272 64.0068 82.003 63.93 82.115 63.8915C82.2287 63.8347 82.3227 63.8347 82.4347 63.8732C82.5287 63.8915 82.6045 63.9684 82.6605 64.0837L84.732 68.3619C84.788 68.4772 84.8078 68.5908 84.788 68.6861C84.7699 68.7813 84.7122 68.8582 84.6002 68.915H84.6018Z" fill="#227FC2"/>
</g>
<defs>
<filter id="filter0_d_281_115" x="-9.72748e-05" y="2.47955e-05" width="100.8" height="83.8" filterUnits="userSpaceOnUse" color-interpolation-filters="sRGB">
<feFlood flood-opacity="0" result="BackgroundImageFix"/>
<feColorMatrix in="SourceAlpha" type="matrix" values="0 0 0 0 0 0 0 0 0 0 0 0 0 0 0 0 0 0 127 0" result="hardAlpha"/>
<feOffset dy="4"/>
<feGaussianBlur stdDeviation="4.2"/>
<feComposite in2="hardAlpha" operator="out"/>
<feColorMatrix type="matrix" values="0 0 0 0 0 0 0 0 0 0 0 0 0 0 0 0 0 0 0.37 0"/>
<feBlend mode="normal" in2="BackgroundImageFix" result="effect1_dropShadow_281_115"/>
<feBlend mode="normal" in="SourceGraphic" in2="effect1_dropShadow_281_115" result="shape"/>
</filter>
<clipPath id="clip0_281_115">
<rect width="84" height="67" fill="white" transform="translate(8.3999 4.40002)"/>
</clipPath>
</defs>
</svg>
