<svg width="105" height="28" viewBox="0 0 105 28" fill="none" xmlns="http://www.w3.org/2000/svg">
<path d="M19.3936 8.16135C19.3936 8.16135 17.9656 5.76941 14.9618 5.76941C11.9579 5.76941 11.1823 6.89044 10.0497 6.89044C8.91714 6.89044 8.17643 5.76941 5.78403 5.76941C3.39163 5.76941 0 7.81026 0 12.9986C0 18.187 3.87791 24.2643 6.3647 24.2643C8.85148 24.2643 8.98279 23.0365 10.5319 23.0365C12.081 23.0365 12.5673 24.2643 14.2806 24.2643C15.9938 24.2643 18.6858 20.9526 19.9784 17.6531C19.9784 17.6531 16.6832 16.6615 16.6832 12.8795C16.6832 9.09759 19.3895 8.16135 19.3895 8.16135H19.3936Z" fill="black"/>
<path d="M14.6949 0C14.6949 0 10.0722 0.240221 9.76855 5.50454C9.76855 5.50454 14.3933 5.52918 14.6949 0Z" fill="black"/>
<path d="M29.2524 0.429177H31.5771C33.5817 0.429177 34.739 1.56253 34.739 3.45144C34.739 5.51487 33.5776 6.74882 31.5053 6.74882H29.2524V0.427124V0.429177ZM30.5389 5.82284H31.4848C32.7672 5.82284 33.4135 4.96667 33.4135 3.47197C33.4135 2.1949 32.7836 1.37158 31.4951 1.37158H30.5389V5.8249V5.82284Z" fill="black"/>
<path d="M40.3096 4.3075C40.3096 5.72008 39.5996 6.837 37.8925 6.837C36.1854 6.837 35.5227 5.65848 35.5227 4.33214C35.5227 3.09203 36.2634 1.90735 37.9602 1.90735C39.5607 1.90735 40.3096 2.97705 40.3096 4.3075ZM36.7887 4.3075C36.7887 5.3423 37.1785 5.93566 37.9397 5.93566C38.701 5.93566 39.0457 5.34845 39.0457 4.31571C39.0457 3.34251 38.6784 2.80869 37.9049 2.80869C37.1785 2.80869 36.7866 3.38973 36.7866 4.3075H36.7887Z" fill="black"/>
<path d="M42.0783 1.99976C42.54 3.90304 42.8088 4.98506 42.9175 5.56405H42.936C43.0571 4.99738 43.371 3.90715 43.886 1.99976H45.0206C45.4823 3.6464 45.8537 5.00148 45.9296 5.53736H45.9398C46.0363 5.0446 46.2435 4.26234 46.8242 1.99976H48.0614L46.5266 6.75078H45.2709C44.8811 5.28277 44.5343 4.14737 44.4112 3.46572H44.401C44.2697 4.15763 43.8655 5.4655 43.4695 6.75078H42.2035L40.7488 1.99976H42.0804H42.0783Z" fill="black"/>
<path d="M48.7362 3.48213C48.7362 2.50071 48.726 2.21122 48.7178 1.99974H49.9304C49.9489 2.08803 49.9755 2.41448 49.9735 2.63006C50.1807 2.25844 50.6567 1.90735 51.418 1.90735C52.4644 1.90735 53.0409 2.50071 53.0409 3.62174V6.75077H51.7934V3.83527C51.7934 3.2727 51.6293 2.85386 50.9666 2.85386C50.3038 2.85386 49.9837 3.2378 49.9837 4.09602V6.75077H48.7383V3.48213H48.7362Z" fill="black"/>
<path d="M54.3562 6.75082V0.0574951H55.6016V6.75082H54.3562Z" fill="black"/>
<path d="M61.3919 4.3075C61.3919 5.72008 60.6819 6.837 58.9748 6.837C57.2677 6.837 56.605 5.65848 56.605 4.33214C56.605 3.09203 57.3457 1.90735 59.0425 1.90735C60.6429 1.90735 61.3919 2.97705 61.3919 4.3075ZM57.871 4.3075C57.871 5.3423 58.2608 5.93566 59.022 5.93566C59.7832 5.93566 60.1279 5.34845 60.1279 4.31571C60.1279 3.34251 59.7606 2.80869 58.9871 2.80869C58.2608 2.80869 57.8689 3.38973 57.8689 4.3075H57.871Z" fill="black"/>
<path d="M66.3161 5.5744C66.3161 5.89059 66.3408 6.44084 66.3859 6.74881H65.2861C65.2492 6.60715 65.2164 6.33202 65.2102 6.1534C64.9989 6.55171 64.5126 6.83299 63.7514 6.83299C62.4895 6.83299 62.0525 6.0918 62.0525 5.38757C62.0525 4.55193 62.6803 3.83742 64.4593 3.83742C64.6542 3.83742 64.8614 3.83742 65.0953 3.83742V3.45143C65.0953 3.05928 64.9681 2.7205 64.3074 2.7205C63.6467 2.7205 63.5154 3.01411 63.46 3.39599H62.2556C62.3131 2.64248 62.7952 1.9054 64.332 1.9054C65.5241 1.9054 66.3182 2.30166 66.3182 3.435V5.57235L66.3161 5.5744ZM65.1343 4.58683C64.9517 4.58683 64.7424 4.58683 64.4818 4.58683C63.499 4.58683 63.3041 4.95435 63.3041 5.30339C63.3041 5.65242 63.5318 5.95835 64.0756 5.95835C64.9189 5.95835 65.1364 5.443 65.1364 4.6936V4.58683H65.1343Z" fill="black"/>
<path d="M71.9648 0.0574951V5.44706C71.9648 5.98088 71.971 6.47159 71.9833 6.75287H70.7707C70.7522 6.62557 70.7276 6.34634 70.7276 6.16772C70.4834 6.60299 70.0936 6.84321 69.2708 6.84321C67.9577 6.84321 67.2949 5.85358 67.2949 4.38352C67.2949 2.91345 68.0972 1.9115 69.4863 1.9115C70.2598 1.9115 70.6004 2.16404 70.7194 2.36731V0.0595483H71.9648V0.0574951ZM68.5712 4.34451C68.5712 5.30949 68.9364 5.91107 69.673 5.91107C70.5922 5.91107 70.7748 5.32181 70.7748 4.33424C70.7748 3.24606 70.5224 2.8457 69.7202 2.8457C69.0226 2.8457 68.5712 3.33846 68.5712 4.34245V4.34451Z" fill="black"/>
<path d="M80.5823 4.3075C80.5823 5.72008 79.8621 6.837 78.1324 6.837C76.4027 6.837 75.7297 5.65848 75.7297 4.33214C75.7297 3.09203 76.4807 1.90735 78.2001 1.90735C79.8231 1.90735 80.5823 2.97705 80.5823 4.3075ZM77.0142 4.3075C77.0142 5.3423 77.4102 5.93566 78.1817 5.93566C78.9531 5.93566 79.304 5.34845 79.304 4.31571C79.304 3.34251 78.9326 2.80869 78.1488 2.80869C77.4122 2.80869 77.0162 3.38973 77.0162 4.3075H77.0142Z" fill="black"/>
<path d="M81.5508 3.48213C81.5508 2.50071 81.5405 2.21122 81.5303 1.99974H82.7614C82.7798 2.08803 82.8065 2.41448 82.8045 2.63006C83.0158 2.25844 83.498 1.90735 84.2694 1.90735C85.3302 1.90735 85.915 2.50071 85.915 3.62174V6.75077H84.6511V3.83527C84.6511 3.2727 84.4828 2.85386 83.8119 2.85386C83.1409 2.85386 82.8147 3.2378 82.8147 4.09602V6.75077H81.5528V3.48213H81.5508Z" fill="black"/>
<path d="M89.4976 1.99985H90.2588V0.700195H91.5145V1.99985H92.4727V2.89092H91.5145V5.45943C91.5145 5.79615 91.6027 5.93988 92.0356 5.93988C92.1649 5.93988 92.2347 5.93577 92.3701 5.91729V6.71392C92.1177 6.78989 91.7525 6.80221 91.5617 6.80221C90.6096 6.80221 90.2588 6.46138 90.2588 5.6011V2.89092H89.4976V1.99985Z" fill="black"/>
<path d="M94.4977 0.0574951V2.587C94.7419 2.19074 95.2097 1.90945 95.9627 1.90945C96.8675 1.90945 97.598 2.35909 97.598 3.60742V6.75287H96.3505V3.78604C96.3505 3.23374 96.1473 2.85596 95.4846 2.85596C94.787 2.85596 94.4977 3.28302 94.4977 4.07144V6.75287H93.2358V0.0574951H94.4977Z" fill="black"/>
<path d="M99.894 4.62789C99.892 5.29107 100.167 5.93576 100.975 5.93576C101.65 5.93576 101.849 5.53334 101.925 5.31981H103.163C102.943 6.01173 102.389 6.83505 100.936 6.83505C99.2539 6.83505 98.6199 5.75098 98.6199 4.37125C98.6199 3.16809 99.2703 1.9054 100.99 1.9054C102.709 1.9054 103.228 3.03874 103.228 4.23779C103.228 4.30349 103.22 4.56014 103.212 4.62584H99.892L99.894 4.62789ZM101.995 3.86822C101.975 3.27896 101.724 2.77594 100.971 2.77594C100.134 2.77594 99.9412 3.42269 99.9146 3.86822H101.995Z" fill="black"/>
<path d="M31.0458 20.4023L29.9275 23.9932H27.8962C28.481 22.2788 31.3576 12.9862 32.0122 11.0419H34.6385L38.9431 23.9932H36.7723L35.6049 20.4023H31.0478H31.0458ZM35.1596 18.692C34.1871 15.6574 33.549 13.7582 33.2802 12.6516H33.2514C32.9129 14.1278 32.2748 16.1419 31.4705 18.692H35.1596Z" fill="black"/>
<path d="M42.5071 22.9789V27.7546H40.5291V17.1808C40.5291 15.8709 40.5394 14.9737 40.5024 14.3659H42.4475C42.4783 14.678 42.4968 15.2816 42.5071 15.7888C42.9256 14.9387 43.812 14.1791 45.4186 14.1791C47.4888 14.1791 49.042 15.7847 49.042 19.0471C49.042 22.3096 47.3001 24.1595 45.0061 24.1595C43.6704 24.1595 42.8969 23.6606 42.5091 22.9831L42.5071 22.9789ZM47.0067 19.0923C47.0067 16.8728 46.1326 15.8278 44.7435 15.8278C42.9543 15.8278 42.4147 16.9796 42.4147 19.2011C42.4147 21.2235 42.8292 22.5273 44.6512 22.5273C46.1552 22.5273 47.0046 21.3118 47.0046 19.0903L47.0067 19.0923Z" fill="black"/>
<path d="M53.0329 22.9789V27.7546H51.055V17.1808C51.055 15.8709 51.0653 14.9737 51.0283 14.3659H52.9734C53.0042 14.678 53.0227 15.2816 53.0329 15.7888C53.4515 14.9387 54.3379 14.1791 55.9444 14.1791C58.0147 14.1791 59.5679 15.7847 59.5679 19.0471C59.5679 22.3096 57.8259 24.1595 55.532 24.1595C54.1963 24.1595 53.4228 23.6606 53.035 22.9831L53.0329 22.9789ZM57.5325 19.0923C57.5325 16.8728 56.6585 15.8278 55.2694 15.8278C53.4802 15.8278 52.9406 16.9796 52.9406 19.2011C52.9406 21.2235 53.3551 22.5273 55.1771 22.5273C56.681 22.5273 57.5305 21.3118 57.5305 19.0903L57.5325 19.0923Z" fill="black"/>
<path d="M72.7014 14.793H74.1131V12.1998H76.0048V14.793H77.7837V16.2938H76.0048V21.6321C76.0048 22.3384 76.1792 22.6402 76.9569 22.6402C77.1969 22.6402 77.3836 22.6258 77.6073 22.5889V23.9398C77.201 24.0794 76.608 24.1041 76.2777 24.1041C74.747 24.1041 74.1131 23.5128 74.1131 21.9093V16.2918H72.7014V14.7909V14.793Z" fill="black"/>
<path d="M88.1412 19.0328C88.1412 21.858 86.8547 24.1658 83.6949 24.1658C80.5351 24.1658 79.3533 21.7451 79.3533 19.0801C79.3533 16.5649 80.7444 14.175 83.818 14.175C86.709 14.175 88.1412 16.3021 88.1412 19.0308V19.0328ZM81.3887 19.0472C81.3887 21.2071 82.2094 22.5766 83.7872 22.5766C85.365 22.5766 86.1099 21.2297 86.1099 19.0452C86.1099 17.0166 85.3302 15.7663 83.7298 15.7663C82.1294 15.7663 81.3887 17.0741 81.3887 19.0472Z" fill="black"/>
<path d="M90.1397 17.6305C90.1397 16.0763 90.1315 14.9245 90.1028 14.3639H92.0458C92.0848 14.7931 92.0971 15.3967 92.0971 16.1974C92.4993 15.1606 93.4801 14.212 95.1441 14.1976V16.22C93.0492 16.2508 92.1279 17.261 92.1279 19.3798V23.9953H90.1397V17.6305Z" fill="black"/>
<path d="M102.828 21.9257C102.348 22.3322 101.414 22.5847 100.292 22.5847C98.6938 22.5847 98.0372 21.2091 98.0454 19.5953H104.338C104.349 19.4927 104.361 18.9322 104.361 18.8377C104.361 16.5012 103.442 14.1791 100.315 14.1791C97.1877 14.1791 96.0305 16.764 96.0305 19.1683C96.0305 21.9031 97.1426 24.1759 100.218 24.1759C101.841 24.1759 102.961 23.8043 103.583 23.2356L102.828 21.9298V21.9257ZM100.278 15.7148C101.804 15.7148 102.36 16.8318 102.405 18.2341H98.0823C98.15 17.2239 98.5522 15.7148 100.278 15.7148Z" fill="black"/>
<path d="M68.21 16.3021C66.2239 15.7067 65.5591 15.3063 65.5591 14.1935C65.5591 13.0807 66.2382 12.4668 67.615 12.4668C68.7845 12.4668 69.634 12.7953 70.3911 13.2716L71.0312 11.7441C70.3624 11.3088 68.8255 10.8735 67.6519 10.8735C65.1979 10.8735 63.4929 12.1999 63.4929 14.3865C63.4929 16.2508 64.5311 17.2219 67.3667 18.0576C69.4821 18.7002 70.1756 19.2607 70.1756 20.585C70.1756 21.8108 69.3631 22.5417 67.8325 22.5417C66.9912 22.5417 65.0543 22.2542 64.2151 21.4658L63.5668 23.0755C64.7343 23.9522 66.6281 24.1493 67.7401 24.1493C70.8137 24.1493 72.2746 22.4862 72.2746 20.353C72.2746 18.5298 71.4478 17.2733 68.21 16.3021Z" fill="black"/>
</svg>
