<svg width="38" height="38" viewBox="0 0 38 38" fill="none" xmlns="http://www.w3.org/2000/svg">
<circle cx="19" cy="19" r="18.5" fill="white" stroke="#00399E"/>
<path d="M24.4647 21.4208L24.5069 12.5791L15.7433 12.6217C15.652 12.6099 15.5591 12.618 15.4707 12.6456C15.3823 12.6731 15.3005 12.7195 15.2309 12.7814C15.1613 12.8433 15.1054 12.9194 15.0672 13.0046C15.0289 13.0897 15.0091 13.1818 15.009 13.2748C15.009 13.3677 15.0288 13.4593 15.067 13.5433C15.1053 13.6273 15.1611 13.7018 15.2306 13.7617C15.3002 13.8216 15.382 13.8655 15.4704 13.8904C15.5587 13.9154 15.6517 13.9208 15.7429 13.9064L22.3099 13.8848L13.5453 22.7275C13.4237 22.8501 13.3548 23.0156 13.3535 23.1877C13.3522 23.3598 13.4188 23.5244 13.5385 23.6452C13.6582 23.7659 13.8213 23.8331 13.9919 23.8318C14.1625 23.8305 14.3266 23.7609 14.4481 23.6384L23.2127 14.7957L23.1914 21.4211C23.1907 21.5933 23.2579 21.7577 23.3781 21.8781C23.4983 21.9986 23.6617 22.0651 23.8324 22.0633C24.0031 22.0614 24.167 21.9912 24.2882 21.8681C24.4094 21.745 24.4778 21.5791 24.4785 21.4069L24.4647 21.4208Z" fill="#00399E"/>
</svg>
