<svg width="18" height="32" viewBox="0 0 18 32" fill="none" xmlns="http://www.w3.org/2000/svg">
<path d="M8.76562 0.250977H10.5801L10.9502 0.255859C11.0527 0.257106 11.1549 0.25835 11.2568 0.259766C11.3385 0.304209 11.4189 0.348552 11.501 0.393555L11.5127 0.404297C11.5429 0.431682 11.5734 0.45897 11.6035 0.486328C11.6921 0.757598 11.7838 0.991259 11.8496 1.22852L11.9092 1.48828C11.9594 1.7847 11.9478 2.10812 11.9102 2.43262V2.43359C11.8758 2.73224 11.8878 3.03854 12.083 3.25293C12.2806 3.46972 12.591 3.5121 12.9287 3.49219C13.9066 3.43416 14.8897 3.46629 15.8877 3.48438C16.2828 3.49155 16.6129 3.58142 16.8809 3.74902C17.1437 3.91353 17.3608 4.16247 17.5225 4.5127C17.5932 4.7716 17.6634 5.0279 17.7344 5.28906C17.738 5.84209 17.7415 6.39622 17.7451 6.94922L17.7383 14.8545L17.7373 14.959L17.7402 14.9619C17.7463 19.9614 17.7572 24.9603 17.75 29.959L17.7451 30.0264C17.7361 30.0967 17.7139 30.1753 17.6807 30.2686C17.6468 30.3636 17.5918 30.5019 17.5508 30.627C17.5355 30.6483 17.5213 30.6699 17.5068 30.6904C17.4857 30.7203 17.4646 30.7484 17.4443 30.7764L17.4297 30.7969L17.4189 30.8203C17.3997 30.863 17.3801 30.9067 17.3604 30.9502C17.3477 30.9781 17.335 31.0061 17.3223 31.0342L17.0254 31.3174C16.994 31.3328 16.9625 31.3497 16.9307 31.3652C16.888 31.3861 16.8446 31.4066 16.8018 31.4277L16.7793 31.4375C16.4476 31.5382 16.1155 31.6393 15.7842 31.7402C15.6738 31.7411 15.564 31.7412 15.4531 31.7412L13.3887 31.7402H12.6533C10.0444 31.7429 7.4365 31.7521 4.8291 31.7471L2.22168 31.7373L2.11035 31.7285C1.99699 31.7131 1.87546 31.6767 1.73926 31.627C1.59498 31.5742 1.40744 31.4968 1.2334 31.4375L1.02832 31.2354C0.986983 31.1946 0.944963 31.1534 0.90332 31.1123C0.861912 31.0715 0.820406 31.0308 0.779297 30.9902L0.538086 30.7529C0.333818 30.4921 0.274059 30.2036 0.262695 29.8711C0.2567 29.6956 0.263532 29.5205 0.267578 29.3271C0.271317 29.1483 0.270626 28.9582 0.25 28.7676V28.2842L0.264648 10.3291C0.265561 9.12618 0.245417 7.93326 0.259766 6.74219L0.287109 5.55176C0.295378 5.3377 0.357327 5.11568 0.444336 4.87207C0.519038 4.66292 0.62155 4.41108 0.699219 4.1748C0.742947 4.13133 0.786972 4.08763 0.831055 4.04395C0.876072 3.99933 0.920726 3.95402 0.96582 3.90918C1.1827 3.83288 1.41531 3.73427 1.60547 3.66211C1.82917 3.57725 2.03247 3.5164 2.22852 3.50488C2.80664 3.47158 3.38468 3.46555 3.96582 3.4668L5.7207 3.47559H5.97461V3.22559C5.97461 2.73817 5.95156 2.27823 5.96289 1.82227L5.98828 1.36621C6.00035 1.22977 6.04398 1.08763 6.10645 0.926758C6.15084 0.812433 6.21072 0.665719 6.26465 0.526367C6.37479 0.483804 6.48555 0.442067 6.5957 0.399414C6.72447 0.349555 6.85305 0.299584 6.98145 0.25C7.57541 0.251109 8.17085 0.250977 8.76562 0.250977ZM6.43066 28.0547C6.25491 28.0611 6.10173 28.1038 5.97656 28.1875C5.85044 28.2719 5.76998 28.3862 5.7207 28.5039C5.62799 28.7256 5.64024 28.979 5.65039 29.1338C5.66606 29.3716 5.76725 29.5894 5.9502 29.7451C6.13208 29.8999 6.376 29.9784 6.65234 29.9756C7.39672 29.9678 8.14163 29.9656 8.88672 29.9668L11.124 29.9756C11.3102 29.9761 11.5706 29.9798 11.7891 29.9062C11.9048 29.8672 12.0228 29.8026 12.1162 29.6943C12.2107 29.5847 12.2654 29.4472 12.2832 29.2881V29.2871C12.3074 29.0676 12.2218 28.8601 12.1445 28.7031C12.1045 28.6219 12.0581 28.5381 12.0195 28.4658C11.9791 28.39 11.9443 28.3224 11.918 28.2588L11.8535 28.1025L11.6846 28.1045C10.3227 28.1189 8.96674 28.1412 7.6084 28.1436C7.23088 28.1447 6.87479 28.0879 6.45898 28.0547L6.44531 28.0537L6.43066 28.0547ZM9.06738 14.3311C8.60429 14.3501 8.1716 14.6327 7.89062 15.1094C7.07013 16.502 6.27749 17.8941 5.44922 19.2754C4.52798 20.8114 3.5806 22.3301 2.64258 23.8613C2.3852 24.2811 2.25004 24.6778 2.34473 25.0605C2.43924 25.4425 2.74376 25.7329 3.16797 25.9893L3.22754 26.0254H3.29785C5.22214 26.0242 7.14672 26.023 9.07129 26.0215C10.9444 26.02 12.8176 26.0178 14.6904 26.0166L14.7373 26.1084L14.9619 25.9912C15.3878 25.7681 15.715 25.5173 15.8477 25.1787C15.9869 24.8231 15.8831 24.4528 15.6572 24.0703C13.8739 21.0531 12.083 18.0398 10.2676 15.041C9.97891 14.5637 9.53474 14.312 9.06738 14.3311ZM9.9668 6.32715L9.89941 6.25586C9.74845 6.09435 9.60333 5.95983 9.45801 5.86914C9.30875 5.77603 9.1448 5.72035 8.96484 5.74023C8.78916 5.75972 8.63564 5.8473 8.49707 5.96387C8.35901 6.08004 8.21814 6.23959 8.06738 6.43262L8.01367 6.50098V8.23047H6.55371L6.53223 8.23438C6.2706 8.28246 6.03336 8.40802 5.88379 8.60059C5.72784 8.80153 5.67791 9.06537 5.79004 9.32812V9.32715C5.87571 9.52854 6.0374 9.70421 6.20898 9.83887C6.38269 9.97518 6.58677 10.0857 6.78223 10.1484C6.92235 10.1936 7.07439 10.2078 7.21191 10.2119C7.34814 10.216 7.49426 10.2107 7.6123 10.209C7.73851 10.2071 7.83662 10.2089 7.91113 10.2217C7.98878 10.2351 7.99669 10.2532 7.98926 10.2441C8.04765 10.3168 8.08045 10.4608 8.07422 10.7061C8.07128 10.8211 8.06032 10.9439 8.04785 11.0723C8.03568 11.1975 8.02201 11.3315 8.01465 11.4561C7.98069 12.0338 8.28549 12.4978 8.80859 12.624H8.81055C8.93343 12.6528 9.04775 12.6241 9.13281 12.5898C9.2191 12.555 9.30186 12.5037 9.37305 12.4551C9.44385 12.4067 9.51835 12.3507 9.58105 12.3047C9.64793 12.2556 9.7062 12.2153 9.75781 12.1855L9.87207 12.1191L9.88184 11.9863C9.92559 11.3684 9.97018 10.753 10.0186 10.0752H11.5977L11.6309 10.0625L11.708 10.0693L11.7793 10.0225L11.9316 9.9209L11.9512 9.90723L11.9688 9.89062C12.0581 9.80371 12.1475 9.71362 12.2344 9.62793L12.251 9.6123L12.2637 9.59375C12.2968 9.54652 12.3355 9.49301 12.3711 9.44043L12.4346 9.34668L12.4209 9.2959L12.4395 9.26855L12.4238 9.17285C12.4049 9.05235 12.3905 8.94754 12.3711 8.82227L12.3564 8.73047L12.2852 8.66992L11.7275 8.19727L11.6494 8.12988L11.5459 8.13867C11.0392 8.18013 10.5324 8.22148 9.9668 8.26758V6.32715Z" stroke="#1748A0" stroke-width="0.5"/>
</svg>
