<svg width="109" height="26" viewBox="0 0 109 26" fill="none" xmlns="http://www.w3.org/2000/svg">
<path d="M0.6258 0.537964C0.254423 0.811035 0 1.24836 0 1.77397V22.9688C0 23.439 0.203129 23.8373 0.510899 24.1104L12.28 12.3868L0.623748 0.537964H0.6258Z" fill="#5AC5FA"/>
<path d="M16.3261 8.35846L2.2918 0.43324C1.7255 0.112946 1.08534 0.199179 0.625732 0.535898L12.282 12.3847L16.3261 8.35846Z" fill="#6EEC84"/>
<path d="M21.0575 11.0316L16.3261 8.36047L12.282 12.3867L16.2522 16.4233L21.0575 13.709C22.0999 13.1218 22.0999 11.6209 21.0575 11.0316Z" fill="#F7CD45"/>
<path d="M0.512939 24.1083C0.976647 24.521 1.67631 24.6524 2.29185 24.3054L16.2523 16.4213L12.2821 12.3848L0.512939 24.1083Z" fill="#E4464D"/>
<path d="M35.4326 15.1688V17.0269H39.3803C38.8283 18.8296 37.4147 20.1415 35.4326 20.1415C33.0012 20.1415 31.0315 18.1705 31.0315 15.7375C31.0315 13.3045 33.0012 11.3334 35.4326 11.3334C36.6124 11.3334 37.6834 11.7995 38.4734 12.5551L39.8378 11.1322C38.6929 10.0358 37.1418 9.36035 35.4326 9.36035C31.9138 9.36035 29.0618 12.2143 29.0618 15.7354C29.0618 19.2566 31.9138 22.1105 35.4326 22.1105C39.1402 22.1105 41.2351 19.5338 41.2351 15.7354C41.2351 15.5445 41.2249 15.3535 41.2084 15.1667H35.4326V15.1688Z" fill="black"/>
<path d="M32.4842 6.16771C34.2774 6.16771 35.291 4.92144 35.291 3.08386C35.291 2.99146 35.2869 2.89907 35.2787 2.80873H32.4842V3.70802H34.3185C34.1666 4.6032 33.4423 5.21504 32.4842 5.21504C31.3085 5.21504 30.3544 4.26032 30.3544 3.08386C30.3544 1.90739 31.3085 0.952669 32.4842 0.952669C33.0546 0.952669 33.5737 1.17852 33.9553 1.54398L34.616 0.856171C34.062 0.326454 33.311 0 32.4842 0C30.7812 0 29.4023 1.38178 29.4023 3.08386C29.4023 4.78593 30.7832 6.16771 32.4842 6.16771Z" fill="black"/>
<path d="M45.8087 13.9287C43.5701 13.9287 41.7563 15.7437 41.7563 17.9837C41.7563 20.2237 43.5701 22.0387 45.8087 22.0387C48.0472 22.0387 49.861 20.2237 49.861 17.9837C49.861 15.7437 48.0472 13.9287 45.8087 13.9287ZM45.8087 20.2278C44.5694 20.2278 43.564 19.2218 43.564 17.9817C43.564 16.7415 44.5694 15.7355 45.8087 15.7355C47.0479 15.7355 48.0533 16.7415 48.0533 17.9817C48.0533 19.2218 47.0479 20.2278 45.8087 20.2278Z" fill="black"/>
<path d="M54.4774 13.9287C52.2388 13.9287 50.425 15.7437 50.425 17.9837C50.425 20.2237 52.2388 22.0387 54.4774 22.0387C56.7159 22.0387 58.5297 20.2237 58.5297 17.9837C58.5297 15.7437 56.7159 13.9287 54.4774 13.9287ZM54.4774 20.2278C53.2381 20.2278 52.2327 19.2218 52.2327 17.9817C52.2327 16.7415 53.2381 15.7355 54.4774 15.7355C55.7166 15.7355 56.722 16.7415 56.722 17.9817C56.722 19.2218 55.7166 20.2278 54.4774 20.2278Z" fill="black"/>
<path d="M65.04 14.7602C64.4101 14.2387 63.6243 13.9287 62.7687 13.9287C60.7005 13.9287 59.0242 15.7437 59.0242 17.9837C59.0242 20.2237 60.7005 22.0387 62.7687 22.0387C63.6223 22.0387 64.4101 21.7287 65.04 21.2072V21.9032C65.04 22.3262 64.9375 22.7471 64.7138 23.1064C64.4409 23.5457 63.9505 23.9851 63.0765 23.9851C61.3283 23.9851 60.8318 22.5294 60.8318 22.5294L59.3955 23.2891C59.3955 23.2891 60.3517 25.6359 63.0765 25.6359C65.8013 25.6359 66.7759 23.4636 66.7759 22.2256V14.1443H65.04V14.7582V14.7602ZM63.0765 20.2299C61.8372 20.2299 60.8318 19.2238 60.8318 17.9837C60.8318 16.7436 61.8372 15.7375 63.0765 15.7375C64.3158 15.7375 65.3212 16.7436 65.3212 17.9837C65.3212 19.2238 64.3158 20.2299 63.0765 20.2299Z" fill="black"/>
<path d="M69.7655 9.9845H67.9045V21.821H69.7655V9.9845Z" fill="black"/>
<path d="M86.0732 9.9845H81.5715V21.821H83.4325V17.419H86.0711C88.1229 17.419 89.7849 15.7539 89.7849 13.7028C89.7849 11.6496 88.1209 9.98655 86.0711 9.98655L86.0732 9.9845ZM86.0732 15.5547H83.4346V11.8467H86.0732C87.097 11.8467 87.926 12.6762 87.926 13.7007C87.926 14.7253 87.097 15.5547 86.0732 15.5547Z" fill="black"/>
<path d="M92.4809 9.9845H90.6199V21.821H92.4809V9.9845Z" fill="black"/>
<path d="M76.641 17.4807L77.4064 17.1522L78.0753 16.8647C78.0753 16.8647 77.8516 16.3124 77.6977 16.0455C76.5795 14.1053 74.3964 13.2696 72.4574 14.3886C70.5185 15.5076 69.8537 17.9858 70.9699 19.926C72.0881 21.8662 74.5646 22.5315 76.5036 21.4146C77.0678 21.0881 77.4987 20.661 77.8003 20.1724L76.3558 19.2177C76.1773 19.4825 75.9352 19.7166 75.6275 19.8932C74.5872 20.4927 73.274 20.1847 72.601 19.2177L76.639 17.4827L76.641 17.4807ZM72.1907 17.8256C72.2153 17.0577 72.6236 16.3206 73.3376 15.908C74.2199 15.3988 75.2376 15.602 75.9332 16.2714L72.1907 17.8256Z" fill="black"/>
<path d="M106.271 14.1895L104.289 18.805L102.307 14.1895H100.224L103.249 21.2277L101.482 25.3361H103.565L108.354 14.1895H106.271Z" fill="black"/>
<path d="M96.7897 13.9594C94.2393 13.9594 93.5089 15.7149 93.5089 15.7149L95.0724 16.374C95.0724 16.374 95.4602 15.3782 96.8677 15.4767C97.1673 15.4973 97.4114 15.5815 97.6063 15.6944C98.0885 15.9716 98.3635 16.5033 98.3635 17.0597V17.0823C98.0147 16.9181 97.5284 16.7702 96.8677 16.7333C95.0949 16.6347 93.2935 17.5094 93.2935 19.3613C93.2935 21.3201 94.9616 22.0161 96.1968 22.0161C97.3294 22.0161 97.9839 21.5377 98.3655 21.0696V21.819H100.226V16.6388C100.226 15.8422 99.3401 13.9574 96.7897 13.9574V13.9594ZM96.4327 20.4126C95.6325 20.4126 95.0395 20.045 95.0395 19.3695C95.0395 18.6941 95.7761 18.1417 96.8677 18.1767C97.8279 18.2075 98.3635 18.6366 98.3635 18.6366C98.2999 19.6878 97.2329 20.4105 96.4307 20.4105L96.4327 20.4126Z" fill="black"/>
<path d="M36.8874 5.95208H39.4173V4.98298H36.8874V3.51702H39.1772V2.54587H36.8874V1.07991H39.4173V0.108765H36.8874H36.4422H35.9189V5.95208H36.4422H36.8874Z" fill="black"/>
<path d="M42.5523 5.95208V1.07991H44.0932V0.108765H42.5523H41.5839H40.043V1.07991H41.5839V5.95208H42.5523Z" fill="black"/>
<path d="M47.6634 0.108765H46.6929V5.95208H47.6634V0.108765Z" fill="black"/>
<path d="M62.1943 1.68354L64.8267 5.95208H65.7952V0.108765H64.8267V4.37935L62.1943 0.108765H61.2258V5.95208H62.1943V1.68354Z" fill="black"/>
<path d="M50.8888 5.95208V1.07991H52.4298V0.108765H50.8888H49.9183H48.3774V1.07991H49.9183V5.95208H50.8888Z" fill="black"/>
<path d="M57.4935 6.05067C59.1596 6.05067 60.5117 4.69969 60.5117 3.03046C60.5117 1.36124 59.1596 0.0102539 57.4935 0.0102539C55.8275 0.0102539 54.4753 1.36329 54.4753 3.03046C54.4753 4.69763 55.8275 6.05067 57.4935 6.05067ZM57.4935 0.923913C58.6569 0.923913 59.5987 1.86632 59.5987 3.03046C59.5987 4.19461 58.6569 5.13701 57.4935 5.13701C56.3302 5.13701 55.3884 4.19461 55.3884 3.03046C55.3884 1.86632 56.3302 0.923913 57.4935 0.923913Z" fill="black"/>
</svg>
