<svg width="30" height="31" viewBox="0 0 30 31" fill="none" xmlns="http://www.w3.org/2000/svg">
<mask id="path-1-inside-1_533_32" fill="white">
<path d="M17.6255 24.8099L17.612 24.8434C17.5651 24.7965 17.5181 24.7495 17.4711 24.7012L17.4779 24.7079C17.4322 24.6623 17.3866 24.6167 17.341 24.5711L17.3437 24.5738C17.2967 24.5268 17.2497 24.4799 17.2028 24.4329L17.2095 24.4396C17.1625 24.3927 17.1156 24.3457 17.0686 24.2988L17.0753 24.3055C17.0283 24.2586 16.9814 24.2116 16.9358 24.1646L16.9425 24.1714C16.8968 24.1257 16.8512 24.0801 16.8056 24.0345L16.6728 23.9017C16.6245 23.8145 16.5775 23.726 16.5292 23.6388C16.4447 23.5476 16.3615 23.455 16.2769 23.3638C16.1146 23.3195 15.9468 23.2269 15.7885 23.2377C14.5312 23.3289 13.3035 23.1961 12.1025 22.8084L12.116 22.8218C11.7537 22.6434 11.3927 22.465 11.0304 22.2866L11.0371 22.2933C10.9218 22.2477 10.8064 22.2007 10.6923 22.1551C10.6453 22.0853 10.6145 21.9928 10.5501 21.9499C8.86744 20.8257 7.87181 19.2132 7.2586 17.3284C7.21298 16.2593 7.16736 15.1901 7.12174 14.1223C6.98756 14.463 6.90973 14.8011 6.88021 15.1364C6.91107 14.8011 6.9889 14.463 7.12174 14.1223C7.17407 14.0002 7.24787 13.8835 7.27471 13.7561C8.01673 10.1595 10.3233 8.2506 13.8496 7.65364C14.8761 7.74486 15.9012 7.83608 16.9277 7.92596C17.0471 7.98096 17.1639 8.04401 17.286 8.09096C19.3846 8.88378 21.0404 10.1662 21.9474 12.2858C22.5419 13.6756 22.6331 15.1311 22.5727 16.6161C22.562 16.8871 22.5754 17.256 22.7391 17.421C24.1936 18.8993 25.6844 20.3414 27.3187 21.9458C27.6448 21.0417 27.9588 20.2904 28.1708 19.511C28.2311 19.291 28.0728 18.8631 27.8823 18.7464C26.5821 17.9549 26.4197 16.8079 26.7417 15.4705C26.7766 15.3229 26.6988 15.1405 26.7525 15.0063C26.8585 14.7407 26.9658 14.4335 27.1698 14.2578C27.571 13.9117 28.0393 13.6434 28.4807 13.3429C28.6176 13.1993 28.7558 13.0558 28.8927 12.9123C28.9289 12.7754 28.9651 12.6386 29 12.5018C28.8725 12.0068 28.7437 11.5104 28.6162 11.0154V11.0342C28.5237 10.7163 28.4324 10.3983 28.3398 10.0804C28.3076 10.0375 28.2754 9.99453 28.2432 9.9516C28.1842 9.90599 28.1238 9.85904 28.0648 9.81343L28.0835 9.81477C27.6971 9.76782 27.3093 9.71953 26.9229 9.67258C26.8061 9.62965 26.6881 9.54782 26.5713 9.54916C25.7676 9.55721 25.2939 9.14001 24.9719 8.43438C24.7652 7.98096 24.4539 7.57315 24.1909 7.14656C24.1789 6.91314 24.1131 6.66765 24.1668 6.45033C24.2943 5.9352 24.5358 5.44287 24.619 4.92372C24.6713 4.60042 24.5183 4.24358 24.458 3.9015L24.4539 3.92431C24.4083 3.86797 24.3614 3.81297 24.3157 3.75662C24.0876 3.54467 23.8689 3.32198 23.6301 3.12344C22.3406 2.05025 22.3057 2.0194 20.9692 3.05771C20.2782 3.5943 19.6382 3.83443 18.8519 3.33137C18.7606 3.27235 18.6479 3.22674 18.5406 3.21466C17.3705 3.08856 16.8781 2.39904 16.6714 1.27353C16.4648 0.145343 15.8314 -0.151125 14.7043 0.0661954C14.338 0.135953 13.9314 0.213759 13.5866 0.123879C12.9251 -0.0491724 12.595 0.276809 12.3991 0.790598C12.1696 1.39158 12.0194 2.02342 11.8342 2.64185C11.7644 2.71161 11.6933 2.78136 11.6235 2.85112C11.5578 2.85783 11.492 2.86319 11.4263 2.8699C10.7513 3.12747 10.0764 3.38503 9.40148 3.6426L9.4149 3.62918C9.28072 3.6815 9.14788 3.73382 9.01369 3.78614C8.93453 3.78345 8.85536 3.78077 8.77754 3.77943C8.6769 3.73382 8.57761 3.68955 8.47697 3.64394L8.50515 3.63857C8.40049 3.54333 8.29583 3.44808 8.19116 3.35284C7.97513 3.161 7.75776 2.97185 7.54441 2.77734C7.0305 2.30514 6.52061 2.3105 5.99596 2.76526C5.54108 3.15966 5.06877 3.53528 4.61121 3.92699C4.20598 4.2731 4.04765 4.72786 4.33614 5.17994C5.07413 6.33228 4.90775 7.39071 4.12279 8.42768C4.07046 8.49743 4.03557 8.58463 4.00739 8.6678C3.7927 9.32379 3.37003 9.55721 2.65753 9.59075C0.639441 9.68465 0.485133 9.86575 0.121501 11.8498C-0.107949 13.0987 -0.115999 13.1443 1.0393 13.7145C1.87793 14.129 2.53945 14.5864 2.31537 15.673C2.28719 15.8099 2.39856 15.9695 2.41198 16.1224C2.48712 16.9488 2.58373 17.7617 1.6297 18.2447C1.27144 18.4258 1.01112 18.8 0.706532 19.0871C0.878284 19.672 1.05004 20.2569 1.22045 20.8418L1.21642 20.8217C1.26473 20.9169 1.31169 21.0108 1.35999 21.1047L1.33853 21.0953C1.43245 21.2805 1.52504 21.4656 1.61896 21.6507L1.62299 21.6279C1.66995 21.7191 1.71692 21.809 1.76388 21.9002L1.76656 21.9029C1.76656 21.9029 1.76656 21.9016 1.76656 21.9002C2.02553 21.9901 2.28719 22.1631 2.54079 22.1511C3.12985 22.1216 3.71488 22.0022 4.30125 21.9203C4.26099 21.9096 4.2194 21.8975 4.17914 21.8841C4.22074 21.8975 4.26099 21.9096 4.30125 21.9203C4.42335 22.0491 4.5468 22.1792 4.66891 22.308C4.72795 22.351 4.78833 22.3939 4.84737 22.4382C4.89299 22.5307 4.93995 22.6233 4.98557 22.7158C5.28346 23.0767 5.54779 23.4724 5.88861 23.7877C6.28176 24.1499 6.3663 24.5 6.23078 25.0272C5.75041 26.8999 5.77322 26.9053 7.42767 27.9557C7.5216 28.0161 7.61687 28.0751 7.71348 28.1301C8.58297 28.6278 8.90098 28.6935 9.52358 27.9181C10.4078 26.8154 11.3726 26.8315 12.4997 27.3332C12.5199 27.3426 12.5453 27.3453 12.5614 27.3601C12.8566 27.6284 13.3249 27.8497 13.4162 28.1757C13.8254 29.6352 14.7231 30.1262 16.1951 29.9733C17.4242 29.8458 17.8549 29.5064 17.8764 28.3554C18.0159 27.9973 18.1541 27.6391 18.2937 27.2809C18.5674 27.1441 18.8411 27.0086 19.1149 26.8718C19.1498 26.8771 19.182 26.8718 19.2128 26.8543C19.2155 26.7148 19.2168 26.5766 19.2195 26.4371C18.8331 26.0374 18.4466 25.6363 18.0589 25.2365C17.9139 25.0956 17.769 24.9534 17.6255 24.8126V24.8099ZM6.92047 16.1385C6.94194 16.2713 6.97011 16.4042 7.00232 16.537C6.96877 16.4042 6.94194 16.2713 6.92047 16.1385Z"/>
</mask>
<path d="M17.6255 24.8099H18.1255L17.1612 24.6242L17.6255 24.8099ZM17.612 24.8434L17.2585 25.197L17.7946 25.733L18.0763 25.0292L17.612 24.8434ZM17.4711 24.7012L17.8247 24.3476L17.1127 25.0498L17.4711 24.7012ZM16.9358 24.1646L17.2893 23.811L16.5772 24.5131L16.9358 24.1646ZM16.8056 24.0345L17.1591 23.6809L17.1591 23.6809L16.8056 24.0345ZM16.6728 23.9017L16.2354 24.144L16.2695 24.2056L16.3193 24.2553L16.6728 23.9017ZM16.5292 23.6388L16.9666 23.3965L16.9372 23.3434L16.8959 23.2989L16.5292 23.6388ZM16.2769 23.3638L16.6437 23.0239L16.5464 22.919L16.4085 22.8814L16.2769 23.3638ZM15.7885 23.2377L15.7547 22.7388L15.7523 22.739L15.7885 23.2377ZM12.1025 22.8084L12.2562 22.3326L11.749 23.162L12.1025 22.8084ZM12.116 22.8218L11.8951 23.2704L12.4695 22.4682L12.116 22.8218ZM11.0304 22.2866L11.2513 21.838L10.6769 22.6402L11.0304 22.2866ZM11.0371 22.2933L10.8534 22.7583L11.3907 21.9397L11.0371 22.2933ZM10.6923 22.1551L10.2775 22.4343L10.3636 22.5621L10.5066 22.6194L10.6923 22.1551ZM10.5501 21.9499L10.2723 22.3656L10.2728 22.3659L10.5501 21.9499ZM7.2586 17.3284L6.75906 17.3498L6.76197 17.4181L6.78314 17.4831L7.2586 17.3284ZM7.12174 14.1223L6.66218 13.9253L6.65925 13.9321L6.65651 13.9391L7.12174 14.1223ZM6.88021 15.1364L6.38214 15.0926L7.37811 15.1823L6.88021 15.1364ZM7.27471 13.7561L7.76398 13.8591L7.76439 13.8571L7.27471 13.7561ZM13.8496 7.65364L13.8938 7.1556L13.8297 7.1499L13.7661 7.16065L13.8496 7.65364ZM16.9277 7.92596L17.1369 7.47181L17.0579 7.43545L16.9713 7.42787L16.9277 7.92596ZM17.286 8.09096L17.1065 8.55766L17.1093 8.5587L17.286 8.09096ZM21.9474 12.2858L22.4071 12.0892L22.4071 12.0891L21.9474 12.2858ZM22.5727 16.6161L22.0731 16.5958L22.0731 16.5963L22.5727 16.6161ZM22.7391 17.421L23.0955 17.0703L23.0941 17.0688L22.7391 17.421ZM27.3187 21.9458L26.9684 22.3026L27.5246 22.8487L27.7891 22.1154L27.3187 21.9458ZM28.1708 19.511L27.6886 19.3787L27.6883 19.3798L28.1708 19.511ZM27.8823 18.7464L28.1434 18.32L28.1423 18.3193L27.8823 18.7464ZM26.7417 15.4705L27.2278 15.5875L27.2283 15.5855L26.7417 15.4705ZM26.7525 15.0063L27.2167 15.1921L27.2168 15.1917L26.7525 15.0063ZM27.1698 14.2578L27.4961 14.6366L27.4964 14.6364L27.1698 14.2578ZM28.4807 13.3429L28.7621 13.7562L28.806 13.7263L28.8426 13.6879L28.4807 13.3429ZM28.8927 12.9123L29.2545 13.2573L29.3431 13.1644L29.376 13.0402L28.8927 12.9123ZM29 12.5018L29.4845 12.6253L29.5162 12.5012L29.4842 12.3771L29 12.5018ZM28.6162 11.0154L29.1004 10.8907L28.1162 11.0154H28.6162ZM28.6162 11.0342L28.1362 11.174L29.1162 11.0342H28.6162ZM28.3398 10.0804L28.8199 9.94059L28.7944 9.85317L28.7398 9.78034L28.3398 10.0804ZM28.2432 9.9516L28.6432 9.65156L28.6025 9.59735L28.5489 9.55593L28.2432 9.9516ZM28.0648 9.81343L28.1004 9.3147L26.4486 9.19672L27.7591 10.2091L28.0648 9.81343ZM28.0835 9.81477L28.0479 10.3135L28.1438 9.31842L28.0835 9.81477ZM26.9229 9.67258L26.7503 10.1419L26.8049 10.1619L26.8626 10.1689L26.9229 9.67258ZM26.5713 9.54916L26.5763 10.0491L26.5771 10.0491L26.5713 9.54916ZM24.9719 8.43438L24.5169 8.64173L24.517 8.64198L24.9719 8.43438ZM24.1909 7.14656L23.6916 7.17239L23.6982 7.3001L23.7653 7.40895L24.1909 7.14656ZM24.1668 6.45033L23.6814 6.33022L23.6814 6.33044L24.1668 6.45033ZM24.619 4.92372L24.1254 4.84382L24.1253 4.8446L24.619 4.92372ZM24.458 3.9015L24.9504 3.81459L23.9656 3.81459L24.458 3.9015ZM24.4539 3.92431L24.0654 4.23895L24.7557 5.09147L24.9463 4.01122L24.4539 3.92431ZM24.3157 3.75662L24.7043 3.44198L24.682 3.41445L24.6561 3.39034L24.3157 3.75662ZM23.6301 3.12344L23.3102 3.50775L23.3104 3.50794L23.6301 3.12344ZM20.9692 3.05771L21.2759 3.45263L21.276 3.45255L20.9692 3.05771ZM18.8519 3.33137L18.5803 3.75119L18.5824 3.75255L18.8519 3.33137ZM18.5406 3.21466L18.5965 2.71779L18.5941 2.71754L18.5406 3.21466ZM16.6714 1.27353L16.1796 1.36361L16.1796 1.36382L16.6714 1.27353ZM14.7043 0.0661954L14.7979 0.55737L14.799 0.557153L14.7043 0.0661954ZM13.5866 0.123879L13.4601 0.607602L13.4605 0.607715L13.5866 0.123879ZM12.3991 0.790598L12.8662 0.968937L12.8663 0.968735L12.3991 0.790598ZM11.8342 2.64185L12.1877 2.99544L12.277 2.9062L12.3132 2.78527L11.8342 2.64185ZM11.6235 2.85112L11.6743 3.34854L11.8512 3.33048L11.977 3.20472L11.6235 2.85112ZM11.4263 2.8699L11.3755 2.37248L11.3098 2.37919L11.248 2.40276L11.4263 2.8699ZM9.40148 3.6426L9.04798 3.28899L9.57975 4.10974L9.40148 3.6426ZM9.4149 3.62918L9.7684 3.98279L9.23326 3.16334L9.4149 3.62918ZM9.01369 3.78614L8.99676 4.28585L9.09953 4.28933L9.19533 4.25198L9.01369 3.78614ZM8.77754 3.77943L8.57113 4.23484L8.66542 4.27757L8.76892 4.27935L8.77754 3.77943ZM8.47697 3.64394L8.38344 3.15276L6.83332 3.44796L8.27057 4.09935L8.47697 3.64394ZM8.50515 3.63857L8.59868 4.12975L9.582 3.94249L8.84168 3.26878L8.50515 3.63857ZM8.19116 3.35284L8.52772 2.98301L8.52316 2.97896L8.19116 3.35284ZM7.54441 2.77734L7.20611 3.14552L7.20754 3.14682L7.54441 2.77734ZM5.99596 2.76526L5.66847 2.38744L5.66841 2.38749L5.99596 2.76526ZM4.61121 3.92699L4.93594 4.30719L4.93637 4.30682L4.61121 3.92699ZM4.33614 5.17994L3.91464 5.44891L3.91508 5.4496L4.33614 5.17994ZM4.12279 8.42768L3.72412 8.1259L3.72282 8.12763L4.12279 8.42768ZM4.00739 8.6678L3.53381 8.50736L3.53219 8.51228L4.00739 8.6678ZM2.65753 9.59075L2.68077 10.0902L2.68104 10.0902L2.65753 9.59075ZM0.121501 11.8498L0.613271 11.9402L0.61331 11.9399L0.121501 11.8498ZM1.0393 13.7145L1.26085 13.2662L1.26057 13.2661L1.0393 13.7145ZM2.31537 15.673L1.82567 15.5721L1.82564 15.5722L2.31537 15.673ZM2.41198 16.1224L1.91389 16.1661L1.91403 16.1677L2.41198 16.1224ZM1.6297 18.2447L1.85527 18.6909L1.85552 18.6908L1.6297 18.2447ZM0.706532 19.0871L0.363594 18.7233L0.140357 18.9337L0.226788 19.228L0.706532 19.0871ZM1.22045 20.8418L0.740406 20.9816L1.71073 20.7437L1.22045 20.8418ZM1.21642 20.8217L1.66235 20.5955L0.726134 20.9197L1.21642 20.8217ZM1.35999 21.1047L1.15965 21.5628L2.44771 22.1261L1.80462 20.876L1.35999 21.1047ZM1.33853 21.0953L1.53888 20.6372L0.262115 20.0788L0.892634 21.3216L1.33853 21.0953ZM1.61896 21.6507L1.17307 21.8769L1.85093 23.213L2.11135 21.7376L1.61896 21.6507ZM1.62299 21.6279L2.06754 21.399L1.38848 20.08L1.1306 21.541L1.62299 21.6279ZM1.76388 21.9002L1.31934 22.1291L1.35514 22.1986L1.41046 22.2539L1.76388 21.9002ZM1.76656 21.9029L1.41315 22.2566L2.26656 23.1094V21.9029H1.76656ZM1.76656 21.9002L1.9305 21.4279L1.26656 21.1974V21.9002H1.76656ZM2.54079 22.1511L2.56457 22.6505L2.56581 22.6504L2.54079 22.1511ZM4.30125 21.9203L4.66408 21.5763L4.56675 21.4737L4.43005 21.4372L4.30125 21.9203ZM4.17914 21.8841L4.33261 21.4083L4.02106 22.3585L4.17914 21.8841ZM4.66891 22.308L4.30607 22.6521L4.33769 22.6854L4.37487 22.7124L4.66891 22.308ZM4.84737 22.4382L5.29585 22.2171L5.24299 22.1099L5.14732 22.0381L4.84737 22.4382ZM4.98557 22.7158L4.53709 22.9369L4.56286 22.9892L4.59998 23.0341L4.98557 22.7158ZM5.88861 23.7877L5.5491 24.1547L5.54983 24.1554L5.88861 23.7877ZM6.23078 25.0272L5.74652 24.9027L5.74646 24.903L6.23078 25.0272ZM7.42767 27.9557L7.69801 27.5351L7.69566 27.5336L7.42767 27.9557ZM7.71348 28.1301L7.96186 27.6961L7.96085 27.6956L7.71348 28.1301ZM9.52358 27.9181L9.91346 28.2312L9.91366 28.2309L9.52358 27.9181ZM12.4997 27.3332L12.7112 26.8801L12.7031 26.8764L12.4997 27.3332ZM12.5614 27.3601L12.2236 27.7287L12.2252 27.7301L12.5614 27.3601ZM13.4162 28.1757L12.9347 28.3105L12.9348 28.3107L13.4162 28.1757ZM16.1951 29.9733L16.1435 29.4759L16.1434 29.476L16.1951 29.9733ZM17.8764 28.3554L17.4105 28.1739L17.3781 28.257L17.3765 28.3461L17.8764 28.3554ZM18.2937 27.2809L18.0701 26.8337L17.8977 26.9198L17.8278 27.0994L18.2937 27.2809ZM19.1149 26.8718L19.1909 26.3776L19.0336 26.3534L18.8913 26.4245L19.1149 26.8718ZM19.2128 26.8543L19.4588 27.2896L19.7072 27.1492L19.7127 26.8639L19.2128 26.8543ZM19.2195 26.4371L19.7194 26.4467L19.7234 26.239L19.579 26.0896L19.2195 26.4371ZM18.0589 25.2365L18.4177 24.8884L18.4126 24.8831L18.4074 24.878L18.0589 25.2365ZM17.6255 24.8126H17.1255V25.0225L17.2753 25.1695L17.6255 24.8126ZM7.00232 16.537L6.51754 16.6594L7.48824 16.4191L7.00232 16.537ZM17.6255 24.8099L17.1612 24.6242L17.1478 24.6577L17.612 24.8434L18.0763 25.0292L18.0897 24.9956L17.6255 24.8099ZM17.612 24.8434L17.9655 24.4898C17.9182 24.4425 17.8737 24.398 17.8296 24.3527L17.4711 24.7012L17.1127 25.0498C17.1625 25.101 17.2119 25.1505 17.2585 25.197L17.612 24.8434ZM17.4711 24.7012L17.1176 25.0548L17.1243 25.0615L17.4779 24.7079L17.8314 24.3544L17.8247 24.3476L17.4711 24.7012ZM17.4779 24.7079L17.8314 24.3544C17.8258 24.3488 17.8027 24.3257 17.7971 24.3201C17.7932 24.3162 17.784 24.307 17.78 24.303C17.759 24.282 17.7926 24.3156 17.7715 24.2945C17.7467 24.2697 17.792 24.315 17.7672 24.2902C17.7654 24.2884 17.7668 24.2899 17.7651 24.2881C17.765 24.288 17.763 24.286 17.7629 24.2859C17.7355 24.2585 17.7733 24.2963 17.7458 24.2688C17.7418 24.2648 17.7327 24.2557 17.7287 24.2517C17.723 24.246 17.7002 24.2232 17.6945 24.2175L17.341 24.5711L16.9875 24.9247C16.9931 24.9303 17.0161 24.9533 17.0217 24.9589C17.0257 24.9629 17.0348 24.9721 17.0388 24.976C17.0599 24.9971 17.0263 24.9635 17.0474 24.9846C17.0722 25.0094 17.0268 24.964 17.0516 24.9889C17.0534 24.9906 17.052 24.9892 17.0538 24.991C17.0539 24.9911 17.0558 24.993 17.0559 24.9931C17.0834 25.0206 17.0455 24.9828 17.073 25.0102C17.077 25.0142 17.0861 25.0233 17.0901 25.0273C17.0958 25.033 17.1186 25.0558 17.1243 25.0615L17.4779 24.7079ZM17.341 24.5711L16.9875 24.9247L16.9902 24.9274L17.3437 24.5738L17.6972 24.2202L17.6945 24.2175L17.341 24.5711ZM17.3437 24.5738L17.6972 24.2202C17.6854 24.2084 17.6737 24.1968 17.662 24.185C17.6447 24.1678 17.644 24.167 17.6267 24.1498C17.5762 24.0992 17.6069 24.1299 17.5563 24.0793L17.2028 24.4329L16.8493 24.7865C16.861 24.7983 16.8727 24.81 16.8845 24.8218C16.9017 24.839 16.9025 24.8398 16.9197 24.857C16.9703 24.9075 16.9396 24.8768 16.9902 24.9274L17.3437 24.5738ZM17.2028 24.4329L16.8493 24.7865L16.856 24.7932L17.2095 24.4396L17.563 24.0861L17.5563 24.0793L17.2028 24.4329ZM17.2095 24.4396L17.563 24.0861C17.5395 24.0626 17.516 24.0391 17.4926 24.0156C17.4691 23.9921 17.4456 23.9687 17.4221 23.9452L17.0686 24.2988L16.7151 24.6524C16.7386 24.6759 16.7621 24.6993 16.7855 24.7228C16.809 24.7463 16.8325 24.7698 16.856 24.7932L17.2095 24.4396ZM17.0686 24.2988L16.7151 24.6524L16.7218 24.6591L17.0753 24.3055L17.4288 23.9519L17.4221 23.9452L17.0686 24.2988ZM17.0753 24.3055L17.4288 23.9519C17.3814 23.9045 17.337 23.8601 17.2944 23.8162L16.9358 24.1646L16.5772 24.5131C16.6257 24.5631 16.6753 24.6126 16.7218 24.6591L17.0753 24.3055ZM16.9358 24.1646L16.5822 24.5182L16.589 24.525L16.9425 24.1714L17.296 23.8178L17.2893 23.811L16.9358 24.1646ZM16.9425 24.1714L17.296 23.8178C17.2904 23.8122 17.2674 23.7891 17.2618 23.7835C17.2578 23.7796 17.2486 23.7704 17.2447 23.7664C17.2236 23.7454 17.2572 23.779 17.2361 23.7579C17.2113 23.7331 17.2567 23.7784 17.2318 23.7536C17.23 23.7518 17.2315 23.7533 17.2297 23.7515C17.2296 23.7514 17.2276 23.7494 17.2275 23.7493C17.2001 23.7219 17.2379 23.7597 17.2104 23.7322C17.2064 23.7282 17.1973 23.7191 17.1933 23.7151C17.1876 23.7094 17.1648 23.6866 17.1591 23.6809L16.8056 24.0345L16.4521 24.3881C16.4577 24.3937 16.4807 24.4167 16.4863 24.4223C16.4903 24.4263 16.4995 24.4355 16.5034 24.4394C16.5245 24.4605 16.4909 24.4269 16.512 24.448C16.5368 24.4728 16.4914 24.4274 16.5162 24.4523C16.518 24.454 16.5166 24.4526 16.5184 24.4544C16.5185 24.4545 16.5204 24.4564 16.5205 24.4565C16.548 24.484 16.5102 24.4462 16.5376 24.4736C16.5416 24.4776 16.5507 24.4867 16.5547 24.4907C16.5604 24.4964 16.5833 24.5193 16.589 24.525L16.9425 24.1714ZM16.8056 24.0345L17.1591 23.6809L17.0263 23.5481L16.6728 23.9017L16.3193 24.2553L16.4521 24.3881L16.8056 24.0345ZM16.6728 23.9017L17.1101 23.6594C17.0873 23.6182 17.0645 23.5762 17.0405 23.532C17.0169 23.4884 16.992 23.4424 16.9666 23.3965L16.5292 23.6388L16.0918 23.8811C16.1147 23.9223 16.1374 23.9643 16.1614 24.0085C16.185 24.0521 16.2099 24.0981 16.2354 24.144L16.6728 23.9017ZM16.5292 23.6388L16.8959 23.2989C16.8552 23.2549 16.8145 23.2104 16.7724 23.1642C16.7307 23.1185 16.6874 23.0712 16.6437 23.0239L16.2769 23.3638L15.9102 23.7036C15.9509 23.7476 15.9916 23.7922 16.0337 23.8383C16.0755 23.884 16.1187 23.9314 16.1625 23.9786L16.5292 23.6388ZM16.2769 23.3638L16.4085 22.8814C16.3389 22.8624 16.3242 22.8507 16.1893 22.8057C16.0939 22.774 15.9354 22.7266 15.7547 22.7388L15.7885 23.2377L15.8223 23.7365C15.8 23.7381 15.8045 23.7316 15.8731 23.7545C15.9069 23.7657 15.936 23.7767 15.9854 23.7945C16.0289 23.8101 16.085 23.8297 16.1454 23.8462L16.2769 23.3638ZM15.7885 23.2377L15.7523 22.739C14.5551 22.8259 13.392 22.6993 12.2562 22.3326L12.1025 22.8084L11.9489 23.2842C13.2149 23.6929 14.5074 23.8319 15.8247 23.7364L15.7885 23.2377ZM12.1025 22.8084L11.749 23.162L11.7624 23.1754L12.116 22.8218L12.4695 22.4682L12.4561 22.4548L12.1025 22.8084ZM12.116 22.8218L12.3369 22.3733C12.1559 22.2841 11.9753 22.195 11.7944 22.1058C11.6137 22.0166 11.4327 21.9273 11.2513 21.838L11.0304 22.2866L10.8095 22.7351C10.9905 22.8242 11.1711 22.9134 11.352 23.0026C11.5328 23.0918 11.7137 23.1811 11.8951 23.2704L12.116 22.8218ZM11.0304 22.2866L10.6769 22.6402L10.6836 22.6469L11.0371 22.2933L11.3907 21.9397L11.384 21.933L11.0304 22.2866ZM11.0371 22.2933L11.2209 21.8283C11.1062 21.7829 10.9964 21.7382 10.878 21.6908L10.6923 22.1551L10.5066 22.6194C10.6164 22.6632 10.7373 22.7124 10.8534 22.7583L11.0371 22.2933ZM10.6923 22.1551L11.1071 21.8759C11.1086 21.8781 11.1067 21.8756 11.0978 21.8593C11.0924 21.8495 11.075 21.8169 11.06 21.7912C11.0315 21.742 10.9602 21.6223 10.8274 21.5338L10.5501 21.9499L10.2728 22.3659C10.2353 22.341 10.2129 22.3156 10.2029 22.3032C10.1935 22.2914 10.1906 22.2853 10.1954 22.2937C10.1976 22.2973 10.2004 22.3024 10.2048 22.3105C10.207 22.3145 10.2092 22.3186 10.212 22.3237C10.2146 22.3285 10.2177 22.3342 10.2209 22.34C10.2329 22.362 10.2526 22.3972 10.2775 22.4343L10.6923 22.1551ZM10.5501 21.9499L10.8278 21.5341C9.2636 20.489 8.32319 18.9845 7.73407 17.1737L7.2586 17.3284L6.78314 17.4831C7.42043 19.442 8.47128 21.1623 10.2723 22.3656L10.5501 21.9499ZM7.2586 17.3284L7.75815 17.3071C7.71253 16.238 7.66691 15.1688 7.62128 14.1009L7.12174 14.1223L6.62219 14.1436C6.66782 15.2114 6.71344 16.2806 6.75906 17.3498L7.2586 17.3284ZM7.12174 14.1223L6.65651 13.9391C6.50486 14.3242 6.41589 14.7091 6.38214 15.0926L6.88021 15.1364L7.37829 15.1803C7.40357 14.893 7.47025 14.6019 7.58697 14.3055L7.12174 14.1223ZM6.88021 15.1364L7.37811 15.1823C7.40468 14.8935 7.47168 14.6012 7.58759 14.3039L7.12174 14.1223L6.65589 13.9407C6.50611 14.3248 6.41747 14.7086 6.38232 15.0906L6.88021 15.1364ZM7.12174 14.1223L7.58129 14.3193C7.60478 14.2645 7.61664 14.2468 7.66037 14.1537C7.69376 14.0826 7.73852 13.98 7.76398 13.8591L7.27471 13.7561L6.78544 13.653C6.78406 13.6596 6.77849 13.679 6.75519 13.7287C6.74223 13.7563 6.69103 13.858 6.66218 13.9253L7.12174 14.1223ZM7.27471 13.7561L7.76439 13.8571C8.11742 12.146 8.83387 10.8705 9.85295 9.95128C10.8754 9.02902 12.2378 8.43362 13.933 8.14662L13.8496 7.65364L13.7661 7.16065C11.9351 7.47062 10.3811 8.12817 9.18315 9.20874C7.98186 10.2923 7.17401 11.7696 6.78502 13.655L7.27471 13.7561ZM13.8496 7.65364L13.8053 8.15168C14.8317 8.24289 15.8572 8.33414 16.8841 8.42406L16.9277 7.92596L16.9713 7.42787C15.9452 7.33802 14.9204 7.24683 13.8938 7.1556L13.8496 7.65364ZM16.9277 7.92596L16.7185 8.38011C16.7966 8.41608 16.9668 8.50393 17.1065 8.55765L17.286 8.09096L17.4654 7.62428C17.3609 7.58409 17.2976 7.54584 17.1369 7.47181L16.9277 7.92596ZM17.286 8.09096L17.1093 8.5587C19.1161 9.31685 20.6475 10.5191 21.4878 12.4825L21.9474 12.2858L22.4071 12.0891C21.4332 9.81339 19.653 8.45071 17.4627 7.62323L17.286 8.09096ZM21.9474 12.2858L21.4877 12.4824C22.0392 13.7717 22.1323 15.14 22.0731 16.5958L22.5727 16.6161L23.0723 16.6364C23.1339 15.1222 23.0445 13.5794 22.4071 12.0892L21.9474 12.2858ZM22.5727 16.6161L22.0731 16.5963C22.0672 16.7443 22.0667 16.941 22.0963 17.134C22.1231 17.3091 22.1875 17.5749 22.3842 17.7731L22.7391 17.421L23.0941 17.0688C23.1153 17.0902 23.116 17.1017 23.1086 17.0826C23.1015 17.0643 23.0923 17.0319 23.0847 16.9826C23.0693 16.8821 23.0675 16.7588 23.0723 16.6359L22.5727 16.6161ZM22.7391 17.421L22.3827 17.7717C23.8413 19.2541 25.3376 20.7017 26.9684 22.3026L27.3187 21.9458L27.669 21.589C26.0311 19.9811 24.546 18.5445 23.0955 17.0703L22.7391 17.421ZM27.3187 21.9458L27.7891 22.1154C28.1038 21.2427 28.4342 20.4474 28.6532 19.6423L28.1708 19.511L27.6883 19.3798C27.4833 20.1335 27.1857 20.8407 26.8484 21.7762L27.3187 21.9458ZM28.1708 19.511L28.6529 19.6434C28.7242 19.3835 28.6589 19.1016 28.5888 18.9145C28.5201 18.7312 28.3823 18.4663 28.1434 18.32L27.8823 18.7464L27.6211 19.1728C27.5861 19.1513 27.5841 19.1378 27.6025 19.1649C27.6176 19.1872 27.6362 19.2221 27.6524 19.2654C27.6686 19.3086 27.6782 19.3487 27.682 19.3786C27.6865 19.4137 27.6801 19.4098 27.6886 19.3787L28.1708 19.511ZM27.8823 18.7464L28.1423 18.3193C27.5841 17.9795 27.3066 17.5904 27.1833 17.1719C27.0551 16.7366 27.0772 16.2131 27.2278 15.5875L26.7417 15.4705L26.2556 15.3534C26.0842 16.0653 26.0265 16.784 26.224 17.4545C26.4265 18.1417 26.8802 18.7218 27.6223 19.1735L27.8823 18.7464ZM26.7417 15.4705L27.2283 15.5855C27.2514 15.4877 27.2527 15.3989 27.2502 15.3352C27.2478 15.2746 27.2405 15.2121 27.2374 15.1818C27.2354 15.1631 27.2343 15.1503 27.2336 15.1399C27.2332 15.1349 27.2331 15.1313 27.233 15.1288C27.2329 15.1262 27.2329 15.1251 27.2329 15.1251C27.2329 15.1251 27.2329 15.1267 27.2327 15.1295C27.2324 15.1323 27.2319 15.1368 27.231 15.1425C27.229 15.1539 27.225 15.1712 27.2167 15.1921L26.7525 15.0063L26.2882 14.8206C26.245 14.9285 26.2347 15.0299 26.2332 15.1043C26.2316 15.1768 26.2385 15.2444 26.2427 15.285C26.248 15.3355 26.2502 15.3547 26.251 15.374C26.2516 15.3902 26.2495 15.3795 26.2551 15.3554L26.7417 15.4705ZM26.7525 15.0063L27.2168 15.1917C27.2761 15.0433 27.3184 14.929 27.3721 14.8209C27.4248 14.7149 27.4669 14.6618 27.4961 14.6366L27.1698 14.2578L26.8434 13.879C26.6687 14.0295 26.5551 14.2178 26.4766 14.3758C26.3992 14.5316 26.3349 14.7037 26.2881 14.821L26.7525 15.0063ZM27.1698 14.2578L27.4964 14.6364C27.8692 14.3147 28.2767 14.0866 28.7621 13.7562L28.4807 13.3429L28.1994 12.9296C27.8019 13.2001 27.2727 13.5086 26.8432 13.8792L27.1698 14.2578ZM28.4807 13.3429L28.8426 13.6879C28.9105 13.6167 28.9789 13.5453 29.0477 13.4735C29.1164 13.4018 29.1856 13.3296 29.2545 13.2573L28.8927 12.9123L28.5308 12.5672C28.4628 12.6385 28.3945 12.7098 28.3257 12.7816C28.257 12.8533 28.1878 12.9256 28.1189 12.9978L28.4807 13.3429ZM28.8927 12.9123L29.376 13.0402C29.4121 12.9038 29.4489 12.7647 29.4845 12.6253L29 12.5018L28.5155 12.3782C28.4813 12.5125 28.4456 12.6471 28.4093 12.7843L28.8927 12.9123ZM29 12.5018L29.4842 12.3771C29.4204 12.1293 29.3563 11.8812 29.2922 11.6334C29.2281 11.3856 29.1641 11.138 29.1004 10.8907L28.6162 11.0154L28.132 11.1401C28.1958 11.3879 28.26 11.6359 28.324 11.8837C28.3881 12.1316 28.4521 12.3792 28.5158 12.6265L29 12.5018ZM28.6162 11.0154H28.1162V11.0342H28.6162H29.1162V11.0154H28.6162ZM28.6162 11.0342L29.0963 10.8944C29.0502 10.736 29.0043 10.5775 28.9584 10.4184C28.9124 10.2595 28.8663 10.1001 28.8199 9.94059L28.3398 10.0804L27.8598 10.2202C27.9059 10.3786 27.9517 10.5371 27.9977 10.6961C28.0436 10.855 28.0897 11.0145 28.1362 11.174L28.6162 11.0342ZM28.3398 10.0804L28.7398 9.78034C28.7237 9.75888 28.7076 9.73742 28.6915 9.71595C28.6754 9.69449 28.6593 9.67302 28.6432 9.65156L28.2432 9.9516L27.8433 10.2517C27.8594 10.2731 27.8755 10.2946 27.8916 10.316C27.9077 10.3375 27.9238 10.359 27.9399 10.3804L28.3398 10.0804ZM28.2432 9.9516L28.5489 9.55593C28.5197 9.53341 28.4902 9.51051 28.4603 9.48733C28.4305 9.46423 28.4003 9.44084 28.3704 9.41775L28.0648 9.81343L27.7591 10.2091C27.7882 10.2316 27.8178 10.2545 27.8477 10.2777C27.8775 10.3008 27.9076 10.3242 27.9375 10.3473L28.2432 9.9516ZM28.0648 9.81343L28.0291 10.3122L28.0479 10.3135L28.0835 9.81477L28.1192 9.31604L28.1004 9.3147L28.0648 9.81343ZM28.0835 9.81477L28.1438 9.31842C27.9511 9.295 27.7579 9.27123 27.5643 9.24742C27.3708 9.22361 27.1768 9.19975 26.9832 9.17623L26.9229 9.67258L26.8626 10.1689C27.0554 10.1923 27.2485 10.2161 27.4422 10.2399C27.6357 10.2637 27.8296 10.2876 28.0232 10.3111L28.0835 9.81477ZM26.9229 9.67258L27.0954 9.2033C27.0492 9.18631 27.061 9.18577 26.9473 9.13611C26.8754 9.10468 26.7352 9.04724 26.5656 9.04919L26.5713 9.54916L26.5771 10.0491C26.5472 10.0495 26.5282 10.0444 26.5251 10.0435C26.5226 10.0429 26.5281 10.0442 26.5469 10.0524C26.5686 10.0619 26.5856 10.0703 26.6235 10.088C26.6553 10.1029 26.7004 10.1235 26.7503 10.1419L26.9229 9.67258ZM26.5713 9.54916L26.5663 9.04918C26.2585 9.05227 26.0487 8.97599 25.8881 8.85728C25.7196 8.73278 25.5663 8.53257 25.4267 8.22679L24.9719 8.43438L24.517 8.64198C24.6995 9.04182 24.944 9.40302 25.2938 9.66152C25.6514 9.9258 26.0804 10.0541 26.5763 10.0491L26.5713 9.54916ZM24.9719 8.43438L25.4269 8.22703C25.2038 7.7376 24.8428 7.25106 24.6166 6.88416L24.1909 7.14656L23.7653 7.40895C24.0651 7.89524 24.3267 8.22432 24.5169 8.64173L24.9719 8.43438ZM24.1909 7.14656L24.6903 7.12072C24.6839 6.99753 24.6582 6.8099 24.6519 6.74489C24.6422 6.64241 24.6461 6.59498 24.6522 6.57021L24.1668 6.45033L23.6814 6.33044C23.6338 6.52299 23.6438 6.70697 23.6565 6.83992C23.6727 7.01034 23.6859 7.06217 23.6916 7.17239L24.1909 7.14656ZM24.1668 6.45033L24.6522 6.57043C24.7091 6.34046 24.7908 6.11734 24.8824 5.85101C24.9698 5.59662 25.0637 5.30848 25.1127 5.00283L24.619 4.92372L24.1253 4.8446C24.0911 5.0581 24.0226 5.2757 23.9366 5.52605C23.8547 5.76445 23.752 6.04506 23.6814 6.33022L24.1668 6.45033ZM24.619 4.92372L25.1126 5.00361C25.1546 4.74357 25.1109 4.49604 25.0683 4.30865C25.0161 4.07946 24.9792 3.97787 24.9504 3.81459L24.458 3.9015L23.9656 3.98842C23.9971 4.16722 24.0669 4.41508 24.0932 4.53065C24.129 4.68802 24.1356 4.78056 24.1254 4.84382L24.619 4.92372ZM24.458 3.9015L23.9656 3.81459L23.9615 3.8374L24.4539 3.92431L24.9463 4.01122L24.9504 3.98841L24.458 3.9015ZM24.4539 3.92431L24.8425 3.60966C24.8173 3.57854 24.7921 3.5482 24.7693 3.52078C24.7458 3.49253 24.7247 3.4672 24.7043 3.44198L24.3157 3.75662L23.9271 4.07127C23.9523 4.10239 23.9776 4.13273 24.0004 4.16015C24.0239 4.1884 24.0449 4.21374 24.0654 4.23895L24.4539 3.92431ZM24.3157 3.75662L24.6561 3.39034C24.4511 3.19989 24.2019 2.9486 23.9497 2.73894L23.6301 3.12344L23.3104 3.50794C23.5359 3.69536 23.7241 3.88945 23.9754 4.12291L24.3157 3.75662ZM23.6301 3.12344L23.9499 2.73913C23.636 2.47788 23.3687 2.25447 23.1364 2.09894C22.9011 1.94138 22.6406 1.81003 22.3352 1.79908C22.0272 1.78805 21.7579 1.90221 21.5109 2.04986C21.2682 2.19495 20.9901 2.40836 20.6625 2.66287L20.9692 3.05771L21.276 3.45255C21.6166 3.1879 21.844 3.0158 22.024 2.90819C22.1998 2.80314 22.2704 2.79741 22.2994 2.79844C22.3309 2.79957 22.4044 2.81226 22.5801 2.92988C22.7587 3.04951 22.9794 3.23241 23.3102 3.50775L23.6301 3.12344ZM20.9692 3.05771L20.6626 2.66279C20.3391 2.91397 20.0824 3.05045 19.8547 3.09287C19.6512 3.13079 19.4222 3.10271 19.1213 2.91019L18.8519 3.33137L18.5824 3.75255C19.0678 4.06309 19.552 4.16648 20.0379 4.07595C20.4996 3.98992 20.9083 3.73804 21.2759 3.45263L20.9692 3.05771ZM18.8519 3.33137L19.1234 2.91156C18.9808 2.81928 18.7953 2.74016 18.5965 2.7178L18.5406 3.21466L18.4847 3.71153C18.5006 3.71331 18.5405 3.72542 18.5803 3.75119L18.8519 3.33137ZM18.5406 3.21466L18.5941 2.71754C18.1049 2.66481 17.8131 2.50358 17.6168 2.28486C17.4089 2.05331 17.2585 1.70255 17.1632 1.18324L16.6714 1.27353L16.1796 1.36382C16.2909 1.97002 16.4901 2.52678 16.8726 2.95289C17.2667 3.39183 17.8062 3.63841 18.487 3.71178L18.5406 3.21466ZM16.6714 1.27353L17.1632 1.18345C17.0464 0.54541 16.7862 0.0232336 16.2834 -0.267539C15.8009 -0.546543 15.2125 -0.541 14.6097 -0.424762L14.7043 0.0661954L14.799 0.557153C15.3232 0.45607 15.6151 0.501187 15.7827 0.598134C15.93 0.683313 16.0898 0.873465 16.1796 1.36361L16.6714 1.27353ZM14.7043 0.0661954L14.6108 -0.424978C14.2134 -0.349309 13.9271 -0.304073 13.7127 -0.359957L13.5866 0.123879L13.4605 0.607715C13.9358 0.731591 14.4626 0.621214 14.7979 0.557369L14.7043 0.0661954ZM13.5866 0.123879L13.7131 -0.359843C13.283 -0.472378 12.8812 -0.438984 12.5445 -0.218757C12.2275 -0.0113794 12.0464 0.31228 11.9319 0.612461L12.3991 0.790598L12.8663 0.968735C12.9477 0.755126 13.0296 0.658901 13.0919 0.618104C13.1347 0.590156 13.2287 0.547085 13.4601 0.607602L13.5866 0.123879ZM12.3991 0.790598L11.932 0.612259C11.6941 1.2353 11.529 1.91793 11.3552 2.49843L11.8342 2.64185L12.3132 2.78527C12.5097 2.12892 12.6452 1.54787 12.8662 0.968937L12.3991 0.790598ZM11.8342 2.64185L11.4807 2.28825C11.4468 2.32214 11.4124 2.35618 11.377 2.3912C11.342 2.42594 11.3059 2.46166 11.27 2.49752L11.6235 2.85112L11.977 3.20472C12.0109 3.17083 12.0453 3.13679 12.0807 3.10177C12.1157 3.06703 12.1518 3.03131 12.1877 2.99544L11.8342 2.64185ZM11.6235 2.85112L11.5728 2.3537C11.5428 2.35676 11.5125 2.35955 11.4792 2.3626C11.4467 2.36558 11.4113 2.36883 11.3755 2.37248L11.4263 2.8699L11.477 3.36732C11.507 3.36426 11.5373 3.36147 11.5706 3.35842C11.6031 3.35544 11.6385 3.35219 11.6743 3.34854L11.6235 2.85112ZM11.4263 2.8699L11.248 2.40276C10.9105 2.53154 10.5731 2.66033 10.2356 2.78911C9.89814 2.91789 9.56068 3.04667 9.22321 3.17546L9.40148 3.6426L9.57975 4.10974C9.91721 3.98095 10.2547 3.85217 10.5921 3.72339C10.9296 3.59461 11.2671 3.46582 11.6045 3.33704L11.4263 2.8699ZM9.40148 3.6426L9.75498 3.9962L9.7684 3.98279L9.4149 3.62918L9.0614 3.27558L9.04798 3.28899L9.40148 3.6426ZM9.4149 3.62918L9.23326 3.16334C9.16571 3.18968 9.09856 3.21599 9.03187 3.24213C8.96505 3.26831 8.89869 3.29431 8.83206 3.32029L9.01369 3.78614L9.19533 4.25198C9.26288 4.22564 9.33003 4.19933 9.39672 4.17319C9.46354 4.14701 9.5299 4.121 9.59653 4.09502L9.4149 3.62918ZM9.01369 3.78614L9.03063 3.28642C8.95221 3.28376 8.86885 3.28093 8.78615 3.2795L8.77754 3.77943L8.76892 4.27935C8.84187 4.28061 8.91685 4.28314 8.99676 4.28585L9.01369 3.78614ZM8.77754 3.77943L8.98394 3.32402C8.93281 3.30085 8.88214 3.27807 8.83227 3.25565C8.78217 3.23313 8.73288 3.21097 8.68337 3.18853L8.47697 3.64394L8.27057 4.09935C8.32169 4.12252 8.37237 4.1453 8.42224 4.16772C8.47233 4.19024 8.52163 4.2124 8.57113 4.23484L8.77754 3.77943ZM8.47697 3.64394L8.57051 4.13511L8.59868 4.12975L8.50515 3.63857L8.41161 3.1474L8.38344 3.15276L8.47697 3.64394ZM8.50515 3.63857L8.84168 3.26878C8.78934 3.22115 8.73701 3.17353 8.68468 3.12591C8.63235 3.07828 8.58002 3.03066 8.52769 2.98304L8.19116 3.35284L7.85464 3.72263C7.90697 3.77025 7.9593 3.81788 8.01163 3.8655C8.06396 3.91312 8.11629 3.96075 8.16862 4.00837L8.50515 3.63857ZM8.19116 3.35284L8.52316 2.97896C8.30201 2.78259 8.09151 2.59953 7.88128 2.40785L7.54441 2.77734L7.20754 3.14682C7.42401 3.34418 7.64826 3.53942 7.85917 3.72671L8.19116 3.35284ZM7.54441 2.77734L7.88271 2.40916C7.56586 2.11803 7.19537 1.92506 6.77584 1.92369C6.35878 1.92233 5.98768 2.11075 5.66847 2.38744L5.99596 2.76526L6.32345 3.14309C6.52889 2.96501 6.67505 2.92337 6.77258 2.92369C6.86764 2.924 7.00905 2.96444 7.20611 3.14552L7.54441 2.77734ZM5.99596 2.76526L5.66841 2.38749C5.44579 2.58051 5.21803 2.7697 4.98575 2.96198C4.75477 3.1532 4.51866 3.34802 4.28604 3.54717L4.61121 3.92699L4.93637 4.30682C5.16131 4.11425 5.39014 3.92541 5.62343 3.73228C5.85542 3.54024 6.09125 3.34442 6.3235 3.14304L5.99596 2.76526ZM4.61121 3.92699L4.28648 3.54679C4.03023 3.76566 3.81553 4.04934 3.72889 4.39073C3.6386 4.74651 3.70104 5.11417 3.91464 5.44891L4.33614 5.17994L4.75763 4.91097C4.68275 4.79363 4.68011 4.70787 4.69816 4.63672C4.71987 4.55118 4.78696 4.43443 4.93594 4.30719L4.61121 3.92699ZM4.33614 5.17994L3.91508 5.4496C4.23478 5.94879 4.3387 6.39274 4.3025 6.80315C4.26568 7.22069 4.07897 7.65713 3.72413 8.1259L4.12279 8.42768L4.52145 8.72945C4.95156 8.16125 5.24052 7.54999 5.29864 6.89099C5.35738 6.22486 5.17549 5.56343 4.75719 4.91028L4.33614 5.17994ZM4.12279 8.42768L3.72282 8.12763C3.62036 8.26421 3.56512 8.41501 3.53383 8.50736L4.00739 8.6678L4.48095 8.82824C4.49231 8.79472 4.50178 8.77018 4.51043 8.75133C4.51915 8.73234 4.52385 8.72626 4.52275 8.72772L4.12279 8.42768ZM4.00739 8.6678L3.53219 8.51228C3.45102 8.7603 3.34998 8.87606 3.24595 8.94393C3.13009 9.0195 2.94783 9.07653 2.63402 9.0913L2.65753 9.59075L2.68104 10.0902C3.07973 10.0714 3.46505 9.99497 3.79233 9.78146C4.13144 9.56024 4.34907 9.23129 4.48259 8.82332L4.00739 8.6678ZM2.65753 9.59075L2.63429 9.09129C2.13111 9.1147 1.70807 9.14457 1.36236 9.21416C1.00991 9.28511 0.692968 9.40548 0.43318 9.64112C0.174936 9.87535 0.0228315 10.1786 -0.0879303 10.5178C-0.197036 10.8519 -0.280062 11.2673 -0.370307 11.7597L0.121501 11.8498L0.61331 11.9399C0.704881 11.4403 0.777505 11.089 0.862669 10.8282C0.946176 10.5725 1.02696 10.4526 1.10501 10.3818C1.18151 10.3124 1.30426 10.2459 1.5597 10.1945C1.82187 10.1417 2.1749 10.1137 2.68077 10.0902L2.65753 9.59075ZM0.121501 11.8498L-0.370268 11.7595C-0.425733 12.0614 -0.475316 12.3279 -0.492792 12.5484C-0.510655 12.7737 -0.502065 13.017 -0.390302 13.2517C-0.277488 13.4886 -0.0922246 13.6486 0.101546 13.776C0.290225 13.9001 0.535506 14.0234 0.818032 14.1628L1.0393 13.7145L1.26057 13.2661C0.965447 13.1205 0.778496 13.0243 0.650927 12.9404C0.528449 12.8599 0.513446 12.8236 0.512542 12.8217C0.510586 12.8176 0.492004 12.7797 0.50408 12.6274C0.516544 12.4702 0.554011 12.2627 0.613271 11.9402L0.121501 11.8498ZM1.0393 13.7145L0.817748 14.1627C1.23526 14.3691 1.51901 14.5466 1.68579 14.7545C1.82409 14.927 1.91126 15.157 1.82567 15.5721L2.31537 15.673L2.80506 15.774C2.94355 15.1025 2.81201 14.5605 2.46591 14.1289C2.14829 13.7329 1.68198 13.4744 1.26085 13.2662L1.0393 13.7145ZM2.31537 15.673L1.82564 15.5722C1.8016 15.6889 1.81087 15.793 1.82483 15.8694C1.83848 15.944 1.86027 16.0104 1.8749 16.0533C1.8938 16.1086 1.90029 16.1245 1.90939 16.1541C1.91648 16.1771 1.91492 16.1778 1.91389 16.1661L2.41198 16.1224L2.91006 16.0787C2.90233 15.9906 2.88181 15.914 2.86512 15.8598C2.85045 15.8122 2.82835 15.7509 2.82124 15.7301C2.80988 15.6968 2.80827 15.6881 2.80854 15.6896C2.80912 15.6928 2.81504 15.7256 2.80509 15.7739L2.31537 15.673ZM2.41198 16.1224L1.91403 16.1677C1.95407 16.6081 1.98327 16.9272 1.91989 17.1986C1.86818 17.42 1.75051 17.6231 1.40388 17.7986L1.6297 18.2447L1.85552 18.6908C2.46292 18.3833 2.77396 17.9385 2.89367 17.4261C3.00169 16.9636 2.94502 16.4632 2.90992 16.0772L2.41198 16.1224ZM1.6297 18.2447L1.40413 17.7984C1.14924 17.9273 0.947913 18.1147 0.789572 18.2775C0.60561 18.4667 0.510863 18.5845 0.363594 18.7233L0.706532 19.0871L1.04947 19.451C1.20679 19.3027 1.3945 19.0898 1.5064 18.9748C1.64393 18.8334 1.7519 18.7432 1.85527 18.6909L1.6297 18.2447ZM0.706532 19.0871L0.226788 19.228C0.398565 19.813 0.570168 20.3974 0.740406 20.9816L1.22045 20.8418L1.70049 20.7019C1.5299 20.1164 1.358 19.531 1.18628 18.9462L0.706532 19.0871ZM1.22045 20.8418L1.71073 20.7437L1.70671 20.7236L1.21642 20.8217L0.726134 20.9197L0.730159 20.9399L1.22045 20.8418ZM1.21642 20.8217L0.770493 21.0478C0.817016 21.1396 0.86629 21.238 0.915374 21.3334L1.35999 21.1047L1.80462 20.876C1.75709 20.7836 1.71244 20.6943 1.66235 20.5955L1.21642 20.8217ZM1.35999 21.1047L1.56034 20.6466L1.53888 20.6372L1.33853 21.0953L1.13818 21.5534L1.15965 21.5628L1.35999 21.1047ZM1.33853 21.0953L0.892634 21.3216C0.939217 21.4134 0.985521 21.5053 1.0322 21.598C1.07878 21.6904 1.12573 21.7836 1.17307 21.8769L1.61896 21.6507L2.06486 21.4245C2.01827 21.3327 1.97197 21.2407 1.92529 21.1481C1.87871 21.0556 1.83176 20.9624 1.78442 20.8691L1.33853 21.0953ZM1.61896 21.6507L2.11135 21.7376L2.11538 21.7148L1.62299 21.6279L1.1306 21.541L1.12658 21.5638L1.61896 21.6507ZM1.62299 21.6279L1.17844 21.8568C1.20233 21.9032 1.22616 21.9491 1.24958 21.9943C1.27312 22.0396 1.29625 22.0843 1.31934 22.1291L1.76388 21.9002L2.20843 21.6714C2.18454 21.625 2.16071 21.579 2.13729 21.5339C2.11375 21.4885 2.09062 21.4439 2.06754 21.399L1.62299 21.6279ZM1.76388 21.9002L1.41046 22.2539L1.41315 22.2566L1.76656 21.9029L2.11998 21.5492L2.1173 21.5465L1.76388 21.9002ZM1.76656 21.9029C2.26656 21.9029 2.26656 21.9029 2.26656 21.9029C2.26656 21.9029 2.26656 21.9029 2.26656 21.9029V21.9029C2.26656 21.9029 2.26656 21.9029 2.26656 21.9029C2.26656 21.9029 2.26656 21.9029 2.26656 21.9029C2.26656 21.9029 2.26656 21.9029 2.26656 21.9029C2.26656 21.9029 2.26656 21.9029 2.26656 21.9029C2.26656 21.9029 2.26656 21.9029 2.26656 21.9029V21.9029V21.9029V21.9029C2.26656 21.9029 2.26656 21.9029 2.26656 21.9029C2.26656 21.9029 2.26656 21.9029 2.26656 21.9029V21.9029C2.26656 21.9029 2.26656 21.9029 2.26656 21.9029C2.26656 21.9029 2.26656 21.9029 2.26656 21.9029C2.26656 21.9029 2.26656 21.9029 2.26656 21.9029V21.9029C2.26656 21.9029 2.26656 21.9029 2.26656 21.9029V21.9029C2.26656 21.9029 2.26656 21.9029 2.26656 21.9029C2.26656 21.9029 2.26656 21.9029 2.26656 21.9029C2.26656 21.9029 2.26656 21.9029 2.26656 21.9029V21.9029C2.26656 21.9029 2.26656 21.9029 2.26656 21.9029C2.26656 21.9029 2.26656 21.9029 2.26656 21.9029C2.26656 21.9029 2.26656 21.9029 2.26656 21.9029C2.26656 21.9028 2.26656 21.9028 2.26656 21.9028V21.9028V21.9028V21.9028V21.9028C2.26656 21.9028 2.26656 21.9028 2.26656 21.9028C2.26656 21.9028 2.26656 21.9028 2.26656 21.9028C2.26656 21.9028 2.26656 21.9028 2.26656 21.9028C2.26656 21.9028 2.26656 21.9028 2.26656 21.9028C2.26656 21.9028 2.26656 21.9028 2.26656 21.9028C2.26656 21.9028 2.26656 21.9028 2.26656 21.9028C2.26656 21.9028 2.26656 21.9028 2.26656 21.9028V21.9028V21.9028V21.9028V21.9028C2.26656 21.9028 2.26656 21.9028 2.26656 21.9028C2.26656 21.9028 2.26656 21.9028 2.26656 21.9028C2.26656 21.9028 2.26656 21.9028 2.26656 21.9028C2.26656 21.9028 2.26656 21.9028 2.26656 21.9028C2.26656 21.9028 2.26656 21.9028 2.26656 21.9028V21.9028V21.9028C2.26656 21.9028 2.26656 21.9028 2.26656 21.9028C2.26656 21.9028 2.26656 21.9028 2.26656 21.9028C2.26656 21.9028 2.26656 21.9028 2.26656 21.9028V21.9028C2.26656 21.9028 2.26656 21.9028 2.26656 21.9028C2.26656 21.9028 2.26656 21.9028 2.26656 21.9028V21.9028V21.9028C2.26656 21.9028 2.26656 21.9028 2.26656 21.9028C2.26656 21.9028 2.26656 21.9028 2.26656 21.9028V21.9028C2.26656 21.9028 2.26656 21.9028 2.26656 21.9028C2.26656 21.9028 2.26656 21.9028 2.26656 21.9028V21.9028C2.26656 21.9028 2.26656 21.9028 2.26656 21.9028V21.9028C2.26656 21.9028 2.26656 21.9028 2.26656 21.9028C2.26656 21.9028 2.26656 21.9028 2.26656 21.9028V21.9028C2.26656 21.9028 2.26656 21.9028 2.26656 21.9028V21.9028C2.26656 21.9028 2.26656 21.9028 2.26656 21.9027V21.9027C2.26656 21.9027 2.26656 21.9027 2.26656 21.9027V21.9027C2.26656 21.9027 2.26656 21.9027 2.26656 21.9027V21.9027C2.26656 21.9027 2.26656 21.9027 2.26656 21.9027C2.26656 21.9027 2.26656 21.9027 2.26656 21.9027V21.9027C2.26656 21.9027 2.26656 21.9027 2.26656 21.9027V21.9027C2.26656 21.9027 2.26656 21.9027 2.26656 21.9027C2.26656 21.9027 2.26656 21.9027 2.26656 21.9027V21.9027C2.26656 21.9027 2.26656 21.9027 2.26656 21.9027C2.26656 21.9027 2.26656 21.9027 2.26656 21.9027V21.9027C2.26656 21.9027 2.26656 21.9027 2.26656 21.9027C2.26656 21.9027 2.26656 21.9027 2.26656 21.9027V21.9027C2.26656 21.9027 2.26656 21.9027 2.26656 21.9027C2.26656 21.9027 2.26656 21.9027 2.26656 21.9027C2.26656 21.9027 2.26656 21.9027 2.26656 21.9027V21.9027C2.26656 21.9027 2.26656 21.9027 2.26656 21.9027C2.26656 21.9027 2.26656 21.9027 2.26656 21.9027C2.26656 21.9027 2.26656 21.9027 2.26656 21.9027C2.26656 21.9027 2.26656 21.9027 2.26656 21.9027V21.9027C2.26656 21.9027 2.26656 21.9027 2.26656 21.9027C2.26656 21.9027 2.26656 21.9027 2.26656 21.9027C2.26656 21.9027 2.26656 21.9027 2.26656 21.9026C2.26656 21.9026 2.26656 21.9026 2.26656 21.9026C2.26656 21.9026 2.26656 21.9026 2.26656 21.9026C2.26656 21.9026 2.26656 21.9026 2.26656 21.9026C2.26656 21.9026 2.26656 21.9026 2.26656 21.9026C2.26656 21.9026 2.26656 21.9026 2.26656 21.9026V21.9026C2.26656 21.9026 2.26656 21.9026 2.26656 21.9026C2.26656 21.9026 2.26656 21.9026 2.26656 21.9026C2.26656 21.9026 2.26656 21.9026 2.26656 21.9026C2.26656 21.9026 2.26656 21.9026 2.26656 21.9026C2.26656 21.9026 2.26656 21.9026 2.26656 21.9026C2.26656 21.9026 2.26656 21.9026 2.26656 21.9026C2.26656 21.9026 2.26656 21.9026 2.26656 21.9026C2.26656 21.9026 2.26656 21.9026 2.26656 21.9026C2.26656 21.9026 2.26656 21.9026 2.26656 21.9026C2.26656 21.9026 2.26656 21.9026 2.26656 21.9026C2.26656 21.9026 2.26656 21.9026 2.26656 21.9026C2.26656 21.9026 2.26656 21.9026 2.26656 21.9026C2.26656 21.9026 2.26656 21.9026 2.26656 21.9026C2.26656 21.9026 2.26656 21.9026 2.26656 21.9026C2.26656 21.9026 2.26656 21.9026 2.26656 21.9026C2.26656 21.9026 2.26656 21.9026 2.26656 21.9026C2.26656 21.9026 2.26656 21.9026 2.26656 21.9026C2.26656 21.9026 2.26656 21.9026 2.26656 21.9026C2.26656 21.9026 2.26656 21.9026 2.26656 21.9026C2.26656 21.9026 2.26656 21.9025 2.26656 21.9025C2.26656 21.9025 2.26656 21.9025 2.26656 21.9025C2.26656 21.9025 2.26656 21.9025 2.26656 21.9025C2.26656 21.9025 2.26656 21.9025 2.26656 21.9025C2.26656 21.9025 2.26656 21.9025 2.26656 21.9025C2.26656 21.9025 2.26656 21.9025 2.26656 21.9025C2.26656 21.9025 2.26656 21.9025 2.26656 21.9025C2.26656 21.9025 2.26656 21.9025 2.26656 21.9025C2.26656 21.9025 2.26656 21.9025 2.26656 21.9025C2.26656 21.9025 2.26656 21.9025 2.26656 21.9025C2.26656 21.9025 2.26656 21.9025 2.26656 21.9025C2.26656 21.9025 2.26656 21.9025 2.26656 21.9025C2.26656 21.9025 2.26656 21.9025 2.26656 21.9025C2.26656 21.9025 2.26656 21.9025 2.26656 21.9025C2.26656 21.9025 2.26656 21.9025 2.26656 21.9025C2.26656 21.9025 2.26656 21.9025 2.26656 21.9025C2.26656 21.9025 2.26656 21.9025 2.26656 21.9025C2.26656 21.9025 2.26656 21.9025 2.26656 21.9025C2.26656 21.9025 2.26656 21.9025 2.26656 21.9025C2.26656 21.9025 2.26656 21.9025 2.26656 21.9025C2.26656 21.9025 2.26656 21.9025 2.26656 21.9025C2.26656 21.9025 2.26656 21.9025 2.26656 21.9025C2.26656 21.9025 2.26656 21.9025 2.26656 21.9025C2.26656 21.9025 2.26656 21.9024 2.26656 21.9024C2.26656 21.9024 2.26656 21.9024 2.26656 21.9024C2.26656 21.9024 2.26656 21.9024 2.26656 21.9024C2.26656 21.9024 2.26656 21.9024 2.26656 21.9024C2.26656 21.9024 2.26656 21.9024 2.26656 21.9024C2.26656 21.9024 2.26656 21.9024 2.26656 21.9024C2.26656 21.9024 2.26656 21.9024 2.26656 21.9024C2.26656 21.9024 2.26656 21.9024 2.26656 21.9024C2.26656 21.9024 2.26656 21.9024 2.26656 21.9024C2.26656 21.9024 2.26656 21.9024 2.26656 21.9024C2.26656 21.9024 2.26656 21.9024 2.26656 21.9024C2.26656 21.9024 2.26656 21.9024 2.26656 21.9024C2.26656 21.9024 2.26656 21.9024 2.26656 21.9024C2.26656 21.9024 2.26656 21.9024 2.26656 21.9024C2.26656 21.9024 2.26656 21.9024 2.26656 21.9024C2.26656 21.9024 2.26656 21.9024 2.26656 21.9024C2.26656 21.9024 2.26656 21.9024 2.26656 21.9024C2.26656 21.9024 2.26656 21.9024 2.26656 21.9024C2.26656 21.9024 2.26656 21.9024 2.26656 21.9024C2.26656 21.9024 2.26656 21.9024 2.26656 21.9024C2.26656 21.9024 2.26656 21.9024 2.26656 21.9024C2.26656 21.9023 2.26656 21.9023 2.26656 21.9023C2.26656 21.9023 2.26656 21.9023 2.26656 21.9023C2.26656 21.9023 2.26656 21.9023 2.26656 21.9023C2.26656 21.9023 2.26656 21.9023 2.26656 21.9023C2.26656 21.9023 2.26656 21.9023 2.26656 21.9023C2.26656 21.9023 2.26656 21.9023 2.26656 21.9023C2.26656 21.9023 2.26656 21.9023 2.26656 21.9023C2.26656 21.9023 2.26656 21.9023 2.26656 21.9023C2.26656 21.9023 2.26656 21.9023 2.26656 21.9023C2.26656 21.9023 2.26656 21.9023 2.26656 21.9023C2.26656 21.9023 2.26656 21.9023 2.26656 21.9023C2.26656 21.9023 2.26656 21.9023 2.26656 21.9023C2.26656 21.9023 2.26656 21.9023 2.26656 21.9023C2.26656 21.9023 2.26656 21.9023 2.26656 21.9023C2.26656 21.9023 2.26656 21.9023 2.26656 21.9023C2.26656 21.9023 2.26656 21.9023 2.26656 21.9023C2.26656 21.9023 2.26656 21.9023 2.26656 21.9023C2.26656 21.9023 2.26656 21.9023 2.26656 21.9023C2.26656 21.9023 2.26656 21.9023 2.26656 21.9023C2.26656 21.9023 2.26656 21.9023 2.26656 21.9022C2.26656 21.9022 2.26656 21.9022 2.26656 21.9022C2.26656 21.9022 2.26656 21.9022 2.26656 21.9022C2.26656 21.9022 2.26656 21.9022 2.26656 21.9022C2.26656 21.9022 2.26656 21.9022 2.26656 21.9022C2.26656 21.9022 2.26656 21.9022 2.26656 21.9022C2.26656 21.9022 2.26656 21.9022 2.26656 21.9022C2.26656 21.9022 2.26656 21.9022 2.26656 21.9022C2.26656 21.9022 2.26656 21.9022 2.26656 21.9022C2.26656 21.9022 2.26656 21.9022 2.26656 21.9022C2.26656 21.9022 2.26656 21.9022 2.26656 21.9022C2.26656 21.9022 2.26656 21.9022 2.26656 21.9022C2.26656 21.9022 2.26656 21.9022 2.26656 21.9022C2.26656 21.9022 2.26656 21.9022 2.26656 21.9022C2.26656 21.9022 2.26656 21.9022 2.26656 21.9022C2.26656 21.9022 2.26656 21.9022 2.26656 21.9022C2.26656 21.9022 2.26656 21.9022 2.26656 21.9022C2.26656 21.9022 2.26656 21.9022 2.26656 21.9022C2.26656 21.9022 2.26656 21.9022 2.26656 21.9021C2.26656 21.9021 2.26656 21.9021 2.26656 21.9021C2.26656 21.9021 2.26656 21.9021 2.26656 21.9021C2.26656 21.9021 2.26656 21.9021 2.26656 21.9021C2.26656 21.9021 2.26656 21.9021 2.26656 21.9021C2.26656 21.9021 2.26656 21.9021 2.26656 21.9021C2.26656 21.9021 2.26656 21.9021 2.26656 21.9021C2.26656 21.9021 2.26656 21.9021 2.26656 21.9021C2.26656 21.9021 2.26656 21.9021 2.26656 21.9021C2.26656 21.9021 2.26656 21.9021 2.26656 21.9021C2.26656 21.9021 2.26656 21.9021 2.26656 21.9021C2.26656 21.9021 2.26656 21.9021 2.26656 21.9021C2.26656 21.9021 2.26656 21.9021 2.26656 21.9021C2.26656 21.9021 2.26656 21.9021 2.26656 21.9021C2.26656 21.9021 2.26656 21.9021 2.26656 21.9021C2.26656 21.9021 2.26656 21.9021 2.26656 21.9021C2.26656 21.9021 2.26656 21.9021 2.26656 21.9021C2.26656 21.9021 2.26656 21.9021 2.26656 21.9021C2.26656 21.902 2.26656 21.902 2.26656 21.902C2.26656 21.902 2.26656 21.902 2.26656 21.902C2.26656 21.902 2.26656 21.902 2.26656 21.902C2.26656 21.902 2.26656 21.902 2.26656 21.902C2.26656 21.902 2.26656 21.902 2.26656 21.902C2.26656 21.902 2.26656 21.902 2.26656 21.902C2.26656 21.902 2.26656 21.902 2.26656 21.902C2.26656 21.902 2.26656 21.902 2.26656 21.902C2.26656 21.902 2.26656 21.902 2.26656 21.902C2.26656 21.902 2.26656 21.902 2.26656 21.902C2.26656 21.902 2.26656 21.902 2.26656 21.902C2.26656 21.902 2.26656 21.902 2.26656 21.902C2.26656 21.902 2.26656 21.902 2.26656 21.902C2.26656 21.902 2.26656 21.902 2.26656 21.902C2.26656 21.902 2.26656 21.902 2.26656 21.902C2.26656 21.902 2.26656 21.902 2.26656 21.902C2.26656 21.902 2.26656 21.902 2.26656 21.9019C2.26656 21.9019 2.26656 21.9019 2.26656 21.9019C2.26656 21.9019 2.26656 21.9019 2.26656 21.9019C2.26656 21.9019 2.26656 21.9019 2.26656 21.9019C2.26656 21.9019 2.26656 21.9019 2.26656 21.9019C2.26656 21.9019 2.26656 21.9019 2.26656 21.9019C2.26656 21.9019 2.26656 21.9019 2.26656 21.9019C2.26656 21.9019 2.26656 21.9019 2.26656 21.9019C2.26656 21.9019 2.26656 21.9019 2.26656 21.9019C2.26656 21.9019 2.26656 21.9019 2.26656 21.9019C2.26656 21.9019 2.26656 21.9019 2.26656 21.9019C2.26656 21.9019 2.26656 21.9019 2.26656 21.9019C2.26656 21.9019 2.26656 21.9019 2.26656 21.9019C2.26656 21.9019 2.26656 21.9019 2.26656 21.9019C2.26656 21.9019 2.26656 21.9019 2.26656 21.9019C2.26656 21.9019 2.26656 21.9019 2.26656 21.9019C2.26656 21.9019 2.26656 21.9018 2.26656 21.9018C2.26656 21.9018 2.26656 21.9018 2.26656 21.9018C2.26656 21.9018 2.26656 21.9018 2.26656 21.9018C2.26656 21.9018 2.26656 21.9018 2.26656 21.9018C2.26656 21.9018 2.26656 21.9018 2.26656 21.9018C2.26656 21.9018 2.26656 21.9018 2.26656 21.9018C2.26656 21.9018 2.26656 21.9018 2.26656 21.9018C2.26656 21.9018 2.26656 21.9018 2.26656 21.9018C2.26656 21.9018 2.26656 21.9018 2.26656 21.9018C2.26656 21.9018 2.26656 21.9018 2.26656 21.9018C2.26656 21.9018 2.26656 21.9018 2.26656 21.9018C2.26656 21.9018 2.26656 21.9018 2.26656 21.9018C2.26656 21.9018 2.26656 21.9018 2.26656 21.9018C2.26656 21.9018 2.26656 21.9018 2.26656 21.9018C2.26656 21.9018 2.26656 21.9018 2.26656 21.9018C2.26656 21.9018 2.26656 21.9018 2.26656 21.9018C2.26656 21.9017 2.26656 21.9017 2.26656 21.9017C2.26656 21.9017 2.26656 21.9017 2.26656 21.9017C2.26656 21.9017 2.26656 21.9017 2.26656 21.9017C2.26656 21.9017 2.26656 21.9017 2.26656 21.9017C2.26656 21.9017 2.26656 21.9017 2.26656 21.9017C2.26656 21.9017 2.26656 21.9017 2.26656 21.9017C2.26656 21.9017 2.26656 21.9017 2.26656 21.9017C2.26656 21.9017 2.26656 21.9017 2.26656 21.9017C2.26656 21.9017 2.26656 21.9017 2.26656 21.9017C2.26656 21.9017 2.26656 21.9017 2.26656 21.9017C2.26656 21.9017 2.26656 21.9017 2.26656 21.9017C2.26656 21.9017 2.26656 21.9017 2.26656 21.9017C2.26656 21.9017 2.26656 21.9017 2.26656 21.9017C2.26656 21.9017 2.26656 21.9017 2.26656 21.9017C2.26656 21.9017 2.26656 21.9017 2.26656 21.9016C2.26656 21.9016 2.26656 21.9016 2.26656 21.9016C2.26656 21.9016 2.26656 21.9016 2.26656 21.9016C2.26656 21.9016 2.26656 21.9016 2.26656 21.9016C2.26656 21.9016 2.26656 21.9016 2.26656 21.9016C2.26656 21.9016 2.26656 21.9016 2.26656 21.9016C2.26656 21.9016 2.26656 21.9016 2.26656 21.9016C2.26656 21.9016 2.26656 21.9016 2.26656 21.9016C2.26656 21.9016 2.26656 21.9016 2.26656 21.9016C2.26656 21.9016 2.26656 21.9016 2.26656 21.9016C2.26656 21.9016 2.26656 21.9016 2.26656 21.9016C2.26656 21.9016 2.26656 21.9016 2.26656 21.9016C2.26656 21.9016 2.26656 21.9016 2.26656 21.9016C2.26656 21.9016 2.26656 21.9016 2.26656 21.9016C2.26656 21.9016 2.26656 21.9016 2.26656 21.9016C2.26656 21.9016 2.26656 21.9016 2.26656 21.9015C2.26656 21.9015 2.26656 21.9015 2.26656 21.9015C2.26656 21.9015 2.26656 21.9015 2.26656 21.9015C2.26656 21.9015 2.26656 21.9015 2.26656 21.9015C2.26656 21.9015 2.26656 21.9015 2.26656 21.9015C2.26656 21.9015 2.26656 21.9015 2.26656 21.9015C2.26656 21.9015 2.26656 21.9015 2.26656 21.9015C2.26656 21.9015 2.26656 21.9015 2.26656 21.9015C2.26656 21.9015 2.26656 21.9015 2.26656 21.9015C2.26656 21.9015 2.26656 21.9015 2.26656 21.9015C2.26656 21.9015 2.26656 21.9015 2.26656 21.9015C2.26656 21.9015 2.26656 21.9015 2.26656 21.9015C2.26656 21.9015 2.26656 21.9015 2.26656 21.9015C2.26656 21.9015 2.26656 21.9015 2.26656 21.9015C2.26656 21.9015 2.26656 21.9015 2.26656 21.9014C2.26656 21.9014 2.26656 21.9014 2.26656 21.9014C2.26656 21.9014 2.26656 21.9014 2.26656 21.9014C2.26656 21.9014 2.26656 21.9014 2.26656 21.9014C2.26656 21.9014 2.26656 21.9014 2.26656 21.9014C2.26656 21.9014 2.26656 21.9014 2.26656 21.9014C2.26656 21.9014 2.26656 21.9014 2.26656 21.9014C2.26656 21.9014 2.26656 21.9014 2.26656 21.9014C2.26656 21.9014 2.26656 21.9014 2.26656 21.9014C2.26656 21.9014 2.26656 21.9014 2.26656 21.9014C2.26656 21.9014 2.26656 21.9014 2.26656 21.9014C2.26656 21.9014 2.26656 21.9014 2.26656 21.9014C2.26656 21.9014 2.26656 21.9014 2.26656 21.9014C2.26656 21.9014 2.26656 21.9014 2.26656 21.9014C2.26656 21.9014 2.26656 21.9014 2.26656 21.9014C2.26656 21.9013 2.26656 21.9013 2.26656 21.9013C2.26656 21.9013 2.26656 21.9013 2.26656 21.9013C2.26656 21.9013 2.26656 21.9013 2.26656 21.9013C2.26656 21.9013 2.26656 21.9013 2.26656 21.9013C2.26656 21.9013 2.26656 21.9013 2.26656 21.9013C2.26656 21.9013 2.26656 21.9013 2.26656 21.9013C2.26656 21.9013 2.26656 21.9013 2.26656 21.9013C2.26656 21.9013 2.26656 21.9013 2.26656 21.9013C2.26656 21.9013 2.26656 21.9013 2.26656 21.9013C2.26656 21.9013 2.26656 21.9013 2.26656 21.9013C2.26656 21.9013 2.26656 21.9013 2.26656 21.9013C2.26656 21.9013 2.26656 21.9013 2.26656 21.9013C2.26656 21.9013 2.26656 21.9013 2.26656 21.9013C2.26656 21.9013 2.26656 21.9013 2.26656 21.9012C2.26656 21.9012 2.26656 21.9012 2.26656 21.9012C2.26656 21.9012 2.26656 21.9012 2.26656 21.9012C2.26656 21.9012 2.26656 21.9012 2.26656 21.9012C2.26656 21.9012 2.26656 21.9012 2.26656 21.9012C2.26656 21.9012 2.26656 21.9012 2.26656 21.9012C2.26656 21.9012 2.26656 21.9012 2.26656 21.9012C2.26656 21.9012 2.26656 21.9012 2.26656 21.9012C2.26656 21.9012 2.26656 21.9012 2.26656 21.9012C2.26656 21.9012 2.26656 21.9012 2.26656 21.9012C2.26656 21.9012 2.26656 21.9012 2.26656 21.9012C2.26656 21.9012 2.26656 21.9012 2.26656 21.9012C2.26656 21.9012 2.26656 21.9012 2.26656 21.9012C2.26656 21.9012 2.26656 21.9012 2.26656 21.9012C2.26656 21.9011 2.26656 21.9011 2.26656 21.9011C2.26656 21.9011 2.26656 21.9011 2.26656 21.9011C2.26656 21.9011 2.26656 21.9011 2.26656 21.9011C2.26656 21.9011 2.26656 21.9011 2.26656 21.9011C2.26656 21.9011 2.26656 21.9011 2.26656 21.9011C2.26656 21.9011 2.26656 21.9011 2.26656 21.9011C2.26656 21.9011 2.26656 21.9011 2.26656 21.9011C2.26656 21.9011 2.26656 21.9011 2.26656 21.9011C2.26656 21.9011 2.26656 21.9011 2.26656 21.9011C2.26656 21.9011 2.26656 21.9011 2.26656 21.9011C2.26656 21.9011 2.26656 21.9011 2.26656 21.9011C2.26656 21.9011 2.26656 21.9011 2.26656 21.9011C2.26656 21.9011 2.26656 21.9011 2.26656 21.9011C2.26656 21.9011 2.26656 21.9011 2.26656 21.901C2.26656 21.901 2.26656 21.901 2.26656 21.901C2.26656 21.901 2.26656 21.901 2.26656 21.901C2.26656 21.901 2.26656 21.901 2.26656 21.901C2.26656 21.901 2.26656 21.901 2.26656 21.901C2.26656 21.901 2.26656 21.901 2.26656 21.901C2.26656 21.901 2.26656 21.901 2.26656 21.901C2.26656 21.901 2.26656 21.901 2.26656 21.901C2.26656 21.901 2.26656 21.901 2.26656 21.901C2.26656 21.901 2.26656 21.901 2.26656 21.901C2.26656 21.901 2.26656 21.901 2.26656 21.901C2.26656 21.901 2.26656 21.901 2.26656 21.901C2.26656 21.901 2.26656 21.901 2.26656 21.901C2.26656 21.901 2.26656 21.901 2.26656 21.9009C2.26656 21.9009 2.26656 21.9009 2.26656 21.9009C2.26656 21.9009 2.26656 21.9009 2.26656 21.9009C2.26656 21.9009 2.26656 21.9009 2.26656 21.9009C2.26656 21.9009 2.26656 21.9009 2.26656 21.9009C2.26656 21.9009 2.26656 21.9009 2.26656 21.9009C2.26656 21.9009 2.26656 21.9009 2.26656 21.9009C2.26656 21.9009 2.26656 21.9009 2.26656 21.9009C2.26656 21.9009 2.26656 21.9009 2.26656 21.9009C2.26656 21.9009 2.26656 21.9009 2.26656 21.9009C2.26656 21.9009 2.26656 21.9009 2.26656 21.9009C2.26656 21.9009 2.26656 21.9009 2.26656 21.9009C2.26656 21.9009 2.26656 21.9009 2.26656 21.9009C2.26656 21.9009 2.26656 21.9009 2.26656 21.9009C2.26656 21.9008 2.26656 21.9008 2.26656 21.9008C2.26656 21.9008 2.26656 21.9008 2.26656 21.9008C2.26656 21.9008 2.26656 21.9008 2.26656 21.9008C2.26656 21.9008 2.26656 21.9008 2.26656 21.9008C2.26656 21.9008 2.26656 21.9008 2.26656 21.9008C2.26656 21.9008 2.26656 21.9008 2.26656 21.9008C2.26656 21.9008 2.26656 21.9008 2.26656 21.9008C2.26656 21.9008 2.26656 21.9008 2.26656 21.9008C2.26656 21.9008 2.26656 21.9008 2.26656 21.9008C2.26656 21.9008 2.26656 21.9008 2.26656 21.9008C2.26656 21.9008 2.26656 21.9008 2.26656 21.9008C2.26656 21.9008 2.26656 21.9008 2.26656 21.9008C2.26656 21.9008 2.26656 21.9008 2.26656 21.9007C2.26656 21.9007 2.26656 21.9007 2.26656 21.9007C2.26656 21.9007 2.26656 21.9007 2.26656 21.9007C2.26656 21.9007 2.26656 21.9007 2.26656 21.9007C2.26656 21.9007 2.26656 21.9007 2.26656 21.9007C2.26656 21.9007 2.26656 21.9007 2.26656 21.9007C2.26656 21.9007 2.26656 21.9007 2.26656 21.9007C2.26656 21.9007 2.26656 21.9007 2.26656 21.9007C2.26656 21.9007 2.26656 21.9007 2.26656 21.9007C2.26656 21.9007 2.26656 21.9007 2.26656 21.9007C2.26656 21.9007 2.26656 21.9007 2.26656 21.9007C2.26656 21.9007 2.26656 21.9007 2.26656 21.9007C2.26656 21.9007 2.26656 21.9007 2.26656 21.9007C2.26656 21.9007 2.26656 21.9007 2.26656 21.9007C2.26656 21.9006 2.26656 21.9006 2.26656 21.9006C2.26656 21.9006 2.26656 21.9006 2.26656 21.9006C2.26656 21.9006 2.26656 21.9006 2.26656 21.9006C2.26656 21.9006 2.26656 21.9006 2.26656 21.9006C2.26656 21.9006 2.26656 21.9006 2.26656 21.9006C2.26656 21.9006 2.26656 21.9006 2.26656 21.9006C2.26656 21.9006 2.26656 21.9006 2.26656 21.9006C2.26656 21.9006 2.26656 21.9006 2.26656 21.9006C2.26656 21.9006 2.26656 21.9006 2.26656 21.9006C2.26656 21.9006 2.26656 21.9006 2.26656 21.9006C2.26656 21.9006 2.26656 21.9006 2.26656 21.9006C2.26656 21.9006 2.26656 21.9006 2.26656 21.9006C2.26656 21.9006 2.26656 21.9006 2.26656 21.9005C2.26656 21.9005 2.26656 21.9005 2.26656 21.9005C2.26656 21.9005 2.26656 21.9005 2.26656 21.9005C2.26656 21.9005 2.26656 21.9005 2.26656 21.9005C2.26656 21.9005 2.26656 21.9005 2.26656 21.9005C2.26656 21.9005 2.26656 21.9005 2.26656 21.9005C2.26656 21.9005 2.26656 21.9005 2.26656 21.9005C2.26656 21.9005 2.26656 21.9005 2.26656 21.9005C2.26656 21.9005 2.26656 21.9005 2.26656 21.9005C2.26656 21.9005 2.26656 21.9005 2.26656 21.9005C2.26656 21.9005 2.26656 21.9005 2.26656 21.9005C2.26656 21.9005 2.26656 21.9005 2.26656 21.9005C2.26656 21.9005 2.26656 21.9005 2.26656 21.9005C2.26656 21.9005 2.26656 21.9004 2.26656 21.9004C2.26656 21.9004 2.26656 21.9004 2.26656 21.9004C2.26656 21.9004 2.26656 21.9004 2.26656 21.9004C2.26656 21.9004 2.26656 21.9004 2.26656 21.9004C2.26656 21.9004 2.26656 21.9004 2.26656 21.9004C2.26656 21.9004 2.26656 21.9004 2.26656 21.9004C2.26656 21.9004 2.26656 21.9004 2.26656 21.9004C2.26656 21.9004 2.26656 21.9004 2.26656 21.9004C2.26656 21.9004 2.26656 21.9004 2.26656 21.9004C2.26656 21.9004 2.26656 21.9004 2.26656 21.9004C2.26656 21.9004 2.26656 21.9004 2.26656 21.9004C2.26656 21.9004 2.26656 21.9004 2.26656 21.9004C2.26656 21.9004 2.26656 21.9004 2.26656 21.9004C2.26656 21.9004 2.26656 21.9003 2.26656 21.9003C2.26656 21.9003 2.26656 21.9003 2.26656 21.9003C2.26656 21.9003 2.26656 21.9003 2.26656 21.9003C2.26656 21.9003 2.26656 21.9003 2.26656 21.9003C2.26656 21.9003 2.26656 21.9003 2.26656 21.9003C2.26656 21.9003 2.26656 21.9003 2.26656 21.9003C2.26656 21.9003 2.26656 21.9003 2.26656 21.9003C2.26656 21.9003 2.26656 21.9003 2.26656 21.9003C2.26656 21.9003 2.26656 21.9003 2.26656 21.9003C2.26656 21.9003 2.26656 21.9003 2.26656 21.9003C2.26656 21.9003 2.26656 21.9003 2.26656 21.9003C2.26656 21.9003 2.26656 21.9003 2.26656 21.9003C2.26656 21.9003 2.26656 21.9003 2.26656 21.9002C2.26656 21.9002 2.26656 21.9002 2.26656 21.9002C2.26656 21.9002 2.26656 21.9002 2.26656 21.9002C2.26656 21.9002 2.26656 21.9002 2.26656 21.9002C2.26656 21.9002 2.26656 21.9002 2.26656 21.9002H1.76656H1.26656C1.26656 21.9002 1.26656 21.9002 1.26656 21.9002C1.26656 21.9002 1.26656 21.9002 1.26656 21.9002C1.26656 21.9002 1.26656 21.9002 1.26656 21.9002C1.26656 21.9002 1.26656 21.9002 1.26656 21.9002C1.26656 21.9003 1.26656 21.9003 1.26656 21.9003C1.26656 21.9003 1.26656 21.9003 1.26656 21.9003C1.26656 21.9003 1.26656 21.9003 1.26656 21.9003C1.26656 21.9003 1.26656 21.9003 1.26656 21.9003C1.26656 21.9003 1.26656 21.9003 1.26656 21.9003C1.26656 21.9003 1.26656 21.9003 1.26656 21.9003C1.26656 21.9003 1.26656 21.9003 1.26656 21.9003C1.26656 21.9003 1.26656 21.9003 1.26656 21.9003C1.26656 21.9003 1.26656 21.9003 1.26656 21.9003C1.26656 21.9003 1.26656 21.9003 1.26656 21.9003C1.26656 21.9003 1.26656 21.9003 1.26656 21.9003C1.26656 21.9003 1.26656 21.9003 1.26656 21.9003C1.26656 21.9003 1.26656 21.9004 1.26656 21.9004C1.26656 21.9004 1.26656 21.9004 1.26656 21.9004C1.26656 21.9004 1.26656 21.9004 1.26656 21.9004C1.26656 21.9004 1.26656 21.9004 1.26656 21.9004C1.26656 21.9004 1.26656 21.9004 1.26656 21.9004C1.26656 21.9004 1.26656 21.9004 1.26656 21.9004C1.26656 21.9004 1.26656 21.9004 1.26656 21.9004C1.26656 21.9004 1.26656 21.9004 1.26656 21.9004C1.26656 21.9004 1.26656 21.9004 1.26656 21.9004C1.26656 21.9004 1.26656 21.9004 1.26656 21.9004C1.26656 21.9004 1.26656 21.9004 1.26656 21.9004C1.26656 21.9004 1.26656 21.9004 1.26656 21.9004C1.26656 21.9004 1.26656 21.9004 1.26656 21.9004C1.26656 21.9004 1.26656 21.9005 1.26656 21.9005C1.26656 21.9005 1.26656 21.9005 1.26656 21.9005C1.26656 21.9005 1.26656 21.9005 1.26656 21.9005C1.26656 21.9005 1.26656 21.9005 1.26656 21.9005C1.26656 21.9005 1.26656 21.9005 1.26656 21.9005C1.26656 21.9005 1.26656 21.9005 1.26656 21.9005C1.26656 21.9005 1.26656 21.9005 1.26656 21.9005C1.26656 21.9005 1.26656 21.9005 1.26656 21.9005C1.26656 21.9005 1.26656 21.9005 1.26656 21.9005C1.26656 21.9005 1.26656 21.9005 1.26656 21.9005C1.26656 21.9005 1.26656 21.9005 1.26656 21.9005C1.26656 21.9005 1.26656 21.9005 1.26656 21.9005C1.26656 21.9005 1.26656 21.9005 1.26656 21.9005C1.26656 21.9006 1.26656 21.9006 1.26656 21.9006C1.26656 21.9006 1.26656 21.9006 1.26656 21.9006C1.26656 21.9006 1.26656 21.9006 1.26656 21.9006C1.26656 21.9006 1.26656 21.9006 1.26656 21.9006C1.26656 21.9006 1.26656 21.9006 1.26656 21.9006C1.26656 21.9006 1.26656 21.9006 1.26656 21.9006C1.26656 21.9006 1.26656 21.9006 1.26656 21.9006C1.26656 21.9006 1.26656 21.9006 1.26656 21.9006C1.26656 21.9006 1.26656 21.9006 1.26656 21.9006C1.26656 21.9006 1.26656 21.9006 1.26656 21.9006C1.26656 21.9006 1.26656 21.9006 1.26656 21.9006C1.26656 21.9006 1.26656 21.9006 1.26656 21.9006C1.26656 21.9006 1.26656 21.9006 1.26656 21.9007C1.26656 21.9007 1.26656 21.9007 1.26656 21.9007C1.26656 21.9007 1.26656 21.9007 1.26656 21.9007C1.26656 21.9007 1.26656 21.9007 1.26656 21.9007C1.26656 21.9007 1.26656 21.9007 1.26656 21.9007C1.26656 21.9007 1.26656 21.9007 1.26656 21.9007C1.26656 21.9007 1.26656 21.9007 1.26656 21.9007C1.26656 21.9007 1.26656 21.9007 1.26656 21.9007C1.26656 21.9007 1.26656 21.9007 1.26656 21.9007C1.26656 21.9007 1.26656 21.9007 1.26656 21.9007C1.26656 21.9007 1.26656 21.9007 1.26656 21.9007C1.26656 21.9007 1.26656 21.9007 1.26656 21.9007C1.26656 21.9007 1.26656 21.9007 1.26656 21.9007C1.26656 21.9007 1.26656 21.9007 1.26656 21.9007C1.26656 21.9008 1.26656 21.9008 1.26656 21.9008C1.26656 21.9008 1.26656 21.9008 1.26656 21.9008C1.26656 21.9008 1.26656 21.9008 1.26656 21.9008C1.26656 21.9008 1.26656 21.9008 1.26656 21.9008C1.26656 21.9008 1.26656 21.9008 1.26656 21.9008C1.26656 21.9008 1.26656 21.9008 1.26656 21.9008C1.26656 21.9008 1.26656 21.9008 1.26656 21.9008C1.26656 21.9008 1.26656 21.9008 1.26656 21.9008C1.26656 21.9008 1.26656 21.9008 1.26656 21.9008C1.26656 21.9008 1.26656 21.9008 1.26656 21.9008C1.26656 21.9008 1.26656 21.9008 1.26656 21.9008C1.26656 21.9008 1.26656 21.9008 1.26656 21.9008C1.26656 21.9008 1.26656 21.9008 1.26656 21.9009C1.26656 21.9009 1.26656 21.9009 1.26656 21.9009C1.26656 21.9009 1.26656 21.9009 1.26656 21.9009C1.26656 21.9009 1.26656 21.9009 1.26656 21.9009C1.26656 21.9009 1.26656 21.9009 1.26656 21.9009C1.26656 21.9009 1.26656 21.9009 1.26656 21.9009C1.26656 21.9009 1.26656 21.9009 1.26656 21.9009C1.26656 21.9009 1.26656 21.9009 1.26656 21.9009C1.26656 21.9009 1.26656 21.9009 1.26656 21.9009C1.26656 21.9009 1.26656 21.9009 1.26656 21.9009C1.26656 21.9009 1.26656 21.9009 1.26656 21.9009C1.26656 21.9009 1.26656 21.9009 1.26656 21.9009C1.26656 21.9009 1.26656 21.9009 1.26656 21.9009C1.26656 21.9009 1.26656 21.9009 1.26656 21.9009C1.26656 21.901 1.26656 21.901 1.26656 21.901C1.26656 21.901 1.26656 21.901 1.26656 21.901C1.26656 21.901 1.26656 21.901 1.26656 21.901C1.26656 21.901 1.26656 21.901 1.26656 21.901C1.26656 21.901 1.26656 21.901 1.26656 21.901C1.26656 21.901 1.26656 21.901 1.26656 21.901C1.26656 21.901 1.26656 21.901 1.26656 21.901C1.26656 21.901 1.26656 21.901 1.26656 21.901C1.26656 21.901 1.26656 21.901 1.26656 21.901C1.26656 21.901 1.26656 21.901 1.26656 21.901C1.26656 21.901 1.26656 21.901 1.26656 21.901C1.26656 21.901 1.26656 21.901 1.26656 21.901C1.26656 21.901 1.26656 21.901 1.26656 21.901C1.26656 21.9011 1.26656 21.9011 1.26656 21.9011C1.26656 21.9011 1.26656 21.9011 1.26656 21.9011C1.26656 21.9011 1.26656 21.9011 1.26656 21.9011C1.26656 21.9011 1.26656 21.9011 1.26656 21.9011C1.26656 21.9011 1.26656 21.9011 1.26656 21.9011C1.26656 21.9011 1.26656 21.9011 1.26656 21.9011C1.26656 21.9011 1.26656 21.9011 1.26656 21.9011C1.26656 21.9011 1.26656 21.9011 1.26656 21.9011C1.26656 21.9011 1.26656 21.9011 1.26656 21.9011C1.26656 21.9011 1.26656 21.9011 1.26656 21.9011C1.26656 21.9011 1.26656 21.9011 1.26656 21.9011C1.26656 21.9011 1.26656 21.9011 1.26656 21.9011C1.26656 21.9011 1.26656 21.9011 1.26656 21.9011C1.26656 21.9011 1.26656 21.9011 1.26656 21.9012C1.26656 21.9012 1.26656 21.9012 1.26656 21.9012C1.26656 21.9012 1.26656 21.9012 1.26656 21.9012C1.26656 21.9012 1.26656 21.9012 1.26656 21.9012C1.26656 21.9012 1.26656 21.9012 1.26656 21.9012C1.26656 21.9012 1.26656 21.9012 1.26656 21.9012C1.26656 21.9012 1.26656 21.9012 1.26656 21.9012C1.26656 21.9012 1.26656 21.9012 1.26656 21.9012C1.26656 21.9012 1.26656 21.9012 1.26656 21.9012C1.26656 21.9012 1.26656 21.9012 1.26656 21.9012C1.26656 21.9012 1.26656 21.9012 1.26656 21.9012C1.26656 21.9012 1.26656 21.9012 1.26656 21.9012C1.26656 21.9012 1.26656 21.9012 1.26656 21.9012C1.26656 21.9012 1.26656 21.9012 1.26656 21.9012C1.26656 21.9013 1.26656 21.9013 1.26656 21.9013C1.26656 21.9013 1.26656 21.9013 1.26656 21.9013C1.26656 21.9013 1.26656 21.9013 1.26656 21.9013C1.26656 21.9013 1.26656 21.9013 1.26656 21.9013C1.26656 21.9013 1.26656 21.9013 1.26656 21.9013C1.26656 21.9013 1.26656 21.9013 1.26656 21.9013C1.26656 21.9013 1.26656 21.9013 1.26656 21.9013C1.26656 21.9013 1.26656 21.9013 1.26656 21.9013C1.26656 21.9013 1.26656 21.9013 1.26656 21.9013C1.26656 21.9013 1.26656 21.9013 1.26656 21.9013C1.26656 21.9013 1.26656 21.9013 1.26656 21.9013C1.26656 21.9013 1.26656 21.9013 1.26656 21.9013C1.26656 21.9013 1.26656 21.9013 1.26656 21.9013C1.26656 21.9013 1.26656 21.9013 1.26656 21.9014C1.26656 21.9014 1.26656 21.9014 1.26656 21.9014C1.26656 21.9014 1.26656 21.9014 1.26656 21.9014C1.26656 21.9014 1.26656 21.9014 1.26656 21.9014C1.26656 21.9014 1.26656 21.9014 1.26656 21.9014C1.26656 21.9014 1.26656 21.9014 1.26656 21.9014C1.26656 21.9014 1.26656 21.9014 1.26656 21.9014C1.26656 21.9014 1.26656 21.9014 1.26656 21.9014C1.26656 21.9014 1.26656 21.9014 1.26656 21.9014C1.26656 21.9014 1.26656 21.9014 1.26656 21.9014C1.26656 21.9014 1.26656 21.9014 1.26656 21.9014C1.26656 21.9014 1.26656 21.9014 1.26656 21.9014C1.26656 21.9014 1.26656 21.9014 1.26656 21.9014C1.26656 21.9014 1.26656 21.9014 1.26656 21.9014C1.26656 21.9014 1.26656 21.9014 1.26656 21.9014C1.26656 21.9015 1.26656 21.9015 1.26656 21.9015C1.26656 21.9015 1.26656 21.9015 1.26656 21.9015C1.26656 21.9015 1.26656 21.9015 1.26656 21.9015C1.26656 21.9015 1.26656 21.9015 1.26656 21.9015C1.26656 21.9015 1.26656 21.9015 1.26656 21.9015C1.26656 21.9015 1.26656 21.9015 1.26656 21.9015C1.26656 21.9015 1.26656 21.9015 1.26656 21.9015C1.26656 21.9015 1.26656 21.9015 1.26656 21.9015C1.26656 21.9015 1.26656 21.9015 1.26656 21.9015C1.26656 21.9015 1.26656 21.9015 1.26656 21.9015C1.26656 21.9015 1.26656 21.9015 1.26656 21.9015C1.26656 21.9015 1.26656 21.9015 1.26656 21.9015C1.26656 21.9015 1.26656 21.9015 1.26656 21.9015C1.26656 21.9015 1.26656 21.9015 1.26656 21.9015C1.26656 21.9016 1.26656 21.9016 1.26656 21.9016C1.26656 21.9016 1.26656 21.9016 1.26656 21.9016C1.26656 21.9016 1.26656 21.9016 1.26656 21.9016C1.26656 21.9016 1.26656 21.9016 1.26656 21.9016C1.26656 21.9016 1.26656 21.9016 1.26656 21.9016C1.26656 21.9016 1.26656 21.9016 1.26656 21.9016C1.26656 21.9016 1.26656 21.9016 1.26656 21.9016C1.26656 21.9016 1.26656 21.9016 1.26656 21.9016C1.26656 21.9016 1.26656 21.9016 1.26656 21.9016C1.26656 21.9016 1.26656 21.9016 1.26656 21.9016C1.26656 21.9016 1.26656 21.9016 1.26656 21.9016C1.26656 21.9016 1.26656 21.9016 1.26656 21.9016C1.26656 21.9016 1.26656 21.9016 1.26656 21.9016C1.26656 21.9016 1.26656 21.9016 1.26656 21.9016C1.26656 21.9016 1.26656 21.9016 1.26656 21.9016C1.26656 21.9017 1.26656 21.9017 1.26656 21.9017C1.26656 21.9017 1.26656 21.9017 1.26656 21.9017C1.26656 21.9017 1.26656 21.9017 1.26656 21.9017C1.26656 21.9017 1.26656 21.9017 1.26656 21.9017C1.26656 21.9017 1.26656 21.9017 1.26656 21.9017C1.26656 21.9017 1.26656 21.9017 1.26656 21.9017C1.26656 21.9017 1.26656 21.9017 1.26656 21.9017C1.26656 21.9017 1.26656 21.9017 1.26656 21.9017C1.26656 21.9017 1.26656 21.9017 1.26656 21.9017C1.26656 21.9017 1.26656 21.9017 1.26656 21.9017C1.26656 21.9017 1.26656 21.9017 1.26656 21.9017C1.26656 21.9017 1.26656 21.9017 1.26656 21.9017C1.26656 21.9017 1.26656 21.9017 1.26656 21.9017C1.26656 21.9017 1.26656 21.9017 1.26656 21.9017C1.26656 21.9017 1.26656 21.9017 1.26656 21.9018C1.26656 21.9018 1.26656 21.9018 1.26656 21.9018C1.26656 21.9018 1.26656 21.9018 1.26656 21.9018C1.26656 21.9018 1.26656 21.9018 1.26656 21.9018C1.26656 21.9018 1.26656 21.9018 1.26656 21.9018C1.26656 21.9018 1.26656 21.9018 1.26656 21.9018C1.26656 21.9018 1.26656 21.9018 1.26656 21.9018C1.26656 21.9018 1.26656 21.9018 1.26656 21.9018C1.26656 21.9018 1.26656 21.9018 1.26656 21.9018C1.26656 21.9018 1.26656 21.9018 1.26656 21.9018C1.26656 21.9018 1.26656 21.9018 1.26656 21.9018C1.26656 21.9018 1.26656 21.9018 1.26656 21.9018C1.26656 21.9018 1.26656 21.9018 1.26656 21.9018C1.26656 21.9018 1.26656 21.9018 1.26656 21.9018C1.26656 21.9018 1.26656 21.9018 1.26656 21.9018C1.26656 21.9018 1.26656 21.9018 1.26656 21.9018C1.26656 21.9018 1.26656 21.9019 1.26656 21.9019C1.26656 21.9019 1.26656 21.9019 1.26656 21.9019C1.26656 21.9019 1.26656 21.9019 1.26656 21.9019C1.26656 21.9019 1.26656 21.9019 1.26656 21.9019C1.26656 21.9019 1.26656 21.9019 1.26656 21.9019C1.26656 21.9019 1.26656 21.9019 1.26656 21.9019C1.26656 21.9019 1.26656 21.9019 1.26656 21.9019C1.26656 21.9019 1.26656 21.9019 1.26656 21.9019C1.26656 21.9019 1.26656 21.9019 1.26656 21.9019C1.26656 21.9019 1.26656 21.9019 1.26656 21.9019C1.26656 21.9019 1.26656 21.9019 1.26656 21.9019C1.26656 21.9019 1.26656 21.9019 1.26656 21.9019C1.26656 21.9019 1.26656 21.9019 1.26656 21.9019C1.26656 21.9019 1.26656 21.9019 1.26656 21.9019C1.26656 21.9019 1.26656 21.9019 1.26656 21.9019C1.26656 21.9019 1.26656 21.9019 1.26656 21.9019C1.26656 21.902 1.26656 21.902 1.26656 21.902C1.26656 21.902 1.26656 21.902 1.26656 21.902C1.26656 21.902 1.26656 21.902 1.26656 21.902C1.26656 21.902 1.26656 21.902 1.26656 21.902C1.26656 21.902 1.26656 21.902 1.26656 21.902C1.26656 21.902 1.26656 21.902 1.26656 21.902C1.26656 21.902 1.26656 21.902 1.26656 21.902C1.26656 21.902 1.26656 21.902 1.26656 21.902C1.26656 21.902 1.26656 21.902 1.26656 21.902C1.26656 21.902 1.26656 21.902 1.26656 21.902C1.26656 21.902 1.26656 21.902 1.26656 21.902C1.26656 21.902 1.26656 21.902 1.26656 21.902C1.26656 21.902 1.26656 21.902 1.26656 21.902C1.26656 21.902 1.26656 21.902 1.26656 21.902C1.26656 21.902 1.26656 21.902 1.26656 21.902C1.26656 21.902 1.26656 21.902 1.26656 21.902C1.26656 21.902 1.26656 21.902 1.26656 21.9021C1.26656 21.9021 1.26656 21.9021 1.26656 21.9021C1.26656 21.9021 1.26656 21.9021 1.26656 21.9021C1.26656 21.9021 1.26656 21.9021 1.26656 21.9021C1.26656 21.9021 1.26656 21.9021 1.26656 21.9021C1.26656 21.9021 1.26656 21.9021 1.26656 21.9021C1.26656 21.9021 1.26656 21.9021 1.26656 21.9021C1.26656 21.9021 1.26656 21.9021 1.26656 21.9021C1.26656 21.9021 1.26656 21.9021 1.26656 21.9021C1.26656 21.9021 1.26656 21.9021 1.26656 21.9021C1.26656 21.9021 1.26656 21.9021 1.26656 21.9021C1.26656 21.9021 1.26656 21.9021 1.26656 21.9021C1.26656 21.9021 1.26656 21.9021 1.26656 21.9021C1.26656 21.9021 1.26656 21.9021 1.26656 21.9021C1.26656 21.9021 1.26656 21.9021 1.26656 21.9021C1.26656 21.9021 1.26656 21.9021 1.26656 21.9021C1.26656 21.9021 1.26656 21.9021 1.26656 21.9021C1.26656 21.9021 1.26656 21.9021 1.26656 21.9021C1.26656 21.9022 1.26656 21.9022 1.26656 21.9022C1.26656 21.9022 1.26656 21.9022 1.26656 21.9022C1.26656 21.9022 1.26656 21.9022 1.26656 21.9022C1.26656 21.9022 1.26656 21.9022 1.26656 21.9022C1.26656 21.9022 1.26656 21.9022 1.26656 21.9022C1.26656 21.9022 1.26656 21.9022 1.26656 21.9022C1.26656 21.9022 1.26656 21.9022 1.26656 21.9022C1.26656 21.9022 1.26656 21.9022 1.26656 21.9022C1.26656 21.9022 1.26656 21.9022 1.26656 21.9022C1.26656 21.9022 1.26656 21.9022 1.26656 21.9022C1.26656 21.9022 1.26656 21.9022 1.26656 21.9022C1.26656 21.9022 1.26656 21.9022 1.26656 21.9022C1.26656 21.9022 1.26656 21.9022 1.26656 21.9022C1.26656 21.9022 1.26656 21.9022 1.26656 21.9022C1.26656 21.9022 1.26656 21.9022 1.26656 21.9022C1.26656 21.9022 1.26656 21.9022 1.26656 21.9022C1.26656 21.9022 1.26656 21.9022 1.26656 21.9022C1.26656 21.9022 1.26656 21.9022 1.26656 21.9022C1.26656 21.9023 1.26656 21.9023 1.26656 21.9023C1.26656 21.9023 1.26656 21.9023 1.26656 21.9023C1.26656 21.9023 1.26656 21.9023 1.26656 21.9023C1.26656 21.9023 1.26656 21.9023 1.26656 21.9023C1.26656 21.9023 1.26656 21.9023 1.26656 21.9023C1.26656 21.9023 1.26656 21.9023 1.26656 21.9023C1.26656 21.9023 1.26656 21.9023 1.26656 21.9023C1.26656 21.9023 1.26656 21.9023 1.26656 21.9023C1.26656 21.9023 1.26656 21.9023 1.26656 21.9023C1.26656 21.9023 1.26656 21.9023 1.26656 21.9023C1.26656 21.9023 1.26656 21.9023 1.26656 21.9023C1.26656 21.9023 1.26656 21.9023 1.26656 21.9023C1.26656 21.9023 1.26656 21.9023 1.26656 21.9023C1.26656 21.9023 1.26656 21.9023 1.26656 21.9023C1.26656 21.9023 1.26656 21.9023 1.26656 21.9023C1.26656 21.9023 1.26656 21.9023 1.26656 21.9023C1.26656 21.9023 1.26656 21.9023 1.26656 21.9023C1.26656 21.9023 1.26656 21.9023 1.26656 21.9023C1.26656 21.9023 1.26656 21.9023 1.26656 21.9023C1.26656 21.9023 1.26656 21.9023 1.26656 21.9024C1.26656 21.9024 1.26656 21.9024 1.26656 21.9024C1.26656 21.9024 1.26656 21.9024 1.26656 21.9024C1.26656 21.9024 1.26656 21.9024 1.26656 21.9024C1.26656 21.9024 1.26656 21.9024 1.26656 21.9024C1.26656 21.9024 1.26656 21.9024 1.26656 21.9024C1.26656 21.9024 1.26656 21.9024 1.26656 21.9024C1.26656 21.9024 1.26656 21.9024 1.26656 21.9024C1.26656 21.9024 1.26656 21.9024 1.26656 21.9024C1.26656 21.9024 1.26656 21.9024 1.26656 21.9024C1.26656 21.9024 1.26656 21.9024 1.26656 21.9024C1.26656 21.9024 1.26656 21.9024 1.26656 21.9024C1.26656 21.9024 1.26656 21.9024 1.26656 21.9024C1.26656 21.9024 1.26656 21.9024 1.26656 21.9024C1.26656 21.9024 1.26656 21.9024 1.26656 21.9024C1.26656 21.9024 1.26656 21.9024 1.26656 21.9024C1.26656 21.9024 1.26656 21.9024 1.26656 21.9024C1.26656 21.9024 1.26656 21.9024 1.26656 21.9024C1.26656 21.9024 1.26656 21.9024 1.26656 21.9024C1.26656 21.9024 1.26656 21.9024 1.26656 21.9024C1.26656 21.9024 1.26656 21.9024 1.26656 21.9024C1.26656 21.9024 1.26656 21.9025 1.26656 21.9025C1.26656 21.9025 1.26656 21.9025 1.26656 21.9025C1.26656 21.9025 1.26656 21.9025 1.26656 21.9025C1.26656 21.9025 1.26656 21.9025 1.26656 21.9025C1.26656 21.9025 1.26656 21.9025 1.26656 21.9025C1.26656 21.9025 1.26656 21.9025 1.26656 21.9025C1.26656 21.9025 1.26656 21.9025 1.26656 21.9025C1.26656 21.9025 1.26656 21.9025 1.26656 21.9025C1.26656 21.9025 1.26656 21.9025 1.26656 21.9025C1.26656 21.9025 1.26656 21.9025 1.26656 21.9025C1.26656 21.9025 1.26656 21.9025 1.26656 21.9025C1.26656 21.9025 1.26656 21.9025 1.26656 21.9025C1.26656 21.9025 1.26656 21.9025 1.26656 21.9025C1.26656 21.9025 1.26656 21.9025 1.26656 21.9025C1.26656 21.9025 1.26656 21.9025 1.26656 21.9025C1.26656 21.9025 1.26656 21.9025 1.26656 21.9025C1.26656 21.9025 1.26656 21.9025 1.26656 21.9025C1.26656 21.9025 1.26656 21.9025 1.26656 21.9025C1.26656 21.9025 1.26656 21.9025 1.26656 21.9025C1.26656 21.9025 1.26656 21.9025 1.26656 21.9025C1.26656 21.9025 1.26656 21.9025 1.26656 21.9025C1.26656 21.9025 1.26656 21.9025 1.26656 21.9025C1.26656 21.9025 1.26656 21.9025 1.26656 21.9025C1.26656 21.9025 1.26656 21.9026 1.26656 21.9026C1.26656 21.9026 1.26656 21.9026 1.26656 21.9026C1.26656 21.9026 1.26656 21.9026 1.26656 21.9026C1.26656 21.9026 1.26656 21.9026 1.26656 21.9026C1.26656 21.9026 1.26656 21.9026 1.26656 21.9026C1.26656 21.9026 1.26656 21.9026 1.26656 21.9026C1.26656 21.9026 1.26656 21.9026 1.26656 21.9026C1.26656 21.9026 1.26656 21.9026 1.26656 21.9026C1.26656 21.9026 1.26656 21.9026 1.26656 21.9026C1.26656 21.9026 1.26656 21.9026 1.26656 21.9026C1.26656 21.9026 1.26656 21.9026 1.26656 21.9026C1.26656 21.9026 1.26656 21.9026 1.26656 21.9026C1.26656 21.9026 1.26656 21.9026 1.26656 21.9026C1.26656 21.9026 1.26656 21.9026 1.26656 21.9026C1.26656 21.9026 1.26656 21.9026 1.26656 21.9026C1.26656 21.9026 1.26656 21.9026 1.26656 21.9026C1.26656 21.9026 1.26656 21.9026 1.26656 21.9026C1.26656 21.9026 1.26656 21.9026 1.26656 21.9026C1.26656 21.9026 1.26656 21.9026 1.26656 21.9026C1.26656 21.9026 1.26656 21.9026 1.26656 21.9026V21.9026C1.26656 21.9026 1.26656 21.9026 1.26656 21.9026C1.26656 21.9026 1.26656 21.9026 1.26656 21.9026C1.26656 21.9026 1.26656 21.9026 1.26656 21.9026C1.26656 21.9026 1.26656 21.9026 1.26656 21.9026C1.26656 21.9026 1.26656 21.9026 1.26656 21.9026C1.26656 21.9027 1.26656 21.9027 1.26656 21.9027C1.26656 21.9027 1.26656 21.9027 1.26656 21.9027C1.26656 21.9027 1.26656 21.9027 1.26656 21.9027V21.9027C1.26656 21.9027 1.26656 21.9027 1.26656 21.9027C1.26656 21.9027 1.26656 21.9027 1.26656 21.9027C1.26656 21.9027 1.26656 21.9027 1.26656 21.9027C1.26656 21.9027 1.26656 21.9027 1.26656 21.9027V21.9027C1.26656 21.9027 1.26656 21.9027 1.26656 21.9027C1.26656 21.9027 1.26656 21.9027 1.26656 21.9027C1.26656 21.9027 1.26656 21.9027 1.26656 21.9027V21.9027C1.26656 21.9027 1.26656 21.9027 1.26656 21.9027C1.26656 21.9027 1.26656 21.9027 1.26656 21.9027V21.9027C1.26656 21.9027 1.26656 21.9027 1.26656 21.9027C1.26656 21.9027 1.26656 21.9027 1.26656 21.9027V21.9027C1.26656 21.9027 1.26656 21.9027 1.26656 21.9027C1.26656 21.9027 1.26656 21.9027 1.26656 21.9027V21.9027C1.26656 21.9027 1.26656 21.9027 1.26656 21.9027V21.9027C1.26656 21.9027 1.26656 21.9027 1.26656 21.9027C1.26656 21.9027 1.26656 21.9027 1.26656 21.9027V21.9027C1.26656 21.9027 1.26656 21.9027 1.26656 21.9027V21.9027C1.26656 21.9027 1.26656 21.9027 1.26656 21.9027V21.9027C1.26656 21.9028 1.26656 21.9028 1.26656 21.9028V21.9028C1.26656 21.9028 1.26656 21.9028 1.26656 21.9028V21.9028C1.26656 21.9028 1.26656 21.9028 1.26656 21.9028C1.26656 21.9028 1.26656 21.9028 1.26656 21.9028V21.9028C1.26656 21.9028 1.26656 21.9028 1.26656 21.9028V21.9028C1.26656 21.9028 1.26656 21.9028 1.26656 21.9028C1.26656 21.9028 1.26656 21.9028 1.26656 21.9028V21.9028C1.26656 21.9028 1.26656 21.9028 1.26656 21.9028C1.26656 21.9028 1.26656 21.9028 1.26656 21.9028V21.9028V21.9028C1.26656 21.9028 1.26656 21.9028 1.26656 21.9028C1.26656 21.9028 1.26656 21.9028 1.26656 21.9028V21.9028C1.26656 21.9028 1.26656 21.9028 1.26656 21.9028C1.26656 21.9028 1.26656 21.9028 1.26656 21.9028C1.26656 21.9028 1.26656 21.9028 1.26656 21.9028V21.9028V21.9028C1.26656 21.9028 1.26656 21.9028 1.26656 21.9028C1.26656 21.9028 1.26656 21.9028 1.26656 21.9028C1.26656 21.9028 1.26656 21.9028 1.26656 21.9028C1.26656 21.9028 1.26656 21.9028 1.26656 21.9028C1.26656 21.9028 1.26656 21.9028 1.26656 21.9028V21.9028V21.9028V21.9028V21.9028C1.26656 21.9028 1.26656 21.9028 1.26656 21.9028C1.26656 21.9028 1.26656 21.9028 1.26656 21.9028C1.26656 21.9028 1.26656 21.9028 1.26656 21.9028C1.26656 21.9028 1.26656 21.9028 1.26656 21.9028C1.26656 21.9028 1.26656 21.9028 1.26656 21.9028C1.26656 21.9028 1.26656 21.9028 1.26656 21.9028C1.26656 21.9028 1.26656 21.9028 1.26656 21.9028V21.9028V21.9028V21.9028V21.9028C1.26656 21.9028 1.26656 21.9028 1.26656 21.9029C1.26656 21.9029 1.26656 21.9029 1.26656 21.9029C1.26656 21.9029 1.26656 21.9029 1.26656 21.9029C1.26656 21.9029 1.26656 21.9029 1.26656 21.9029V21.9029C1.26656 21.9029 1.26656 21.9029 1.26656 21.9029C1.26656 21.9029 1.26656 21.9029 1.26656 21.9029C1.26656 21.9029 1.26656 21.9029 1.26656 21.9029V21.9029C1.26656 21.9029 1.26656 21.9029 1.26656 21.9029V21.9029C1.26656 21.9029 1.26656 21.9029 1.26656 21.9029C1.26656 21.9029 1.26656 21.9029 1.26656 21.9029C1.26656 21.9029 1.26656 21.9029 1.26656 21.9029V21.9029C1.26656 21.9029 1.26656 21.9029 1.26656 21.9029C1.26656 21.9029 1.26656 21.9029 1.26656 21.9029V21.9029V21.9029V21.9029C1.26656 21.9029 1.26656 21.9029 1.26656 21.9029C1.26656 21.9029 1.26656 21.9029 1.26656 21.9029C1.26656 21.9029 1.26656 21.9029 1.26656 21.9029C1.26656 21.9029 1.26656 21.9029 1.26656 21.9029C1.26656 21.9029 1.26656 21.9029 1.26656 21.9029V21.9029C1.26656 21.9029 1.26656 21.9029 1.26656 21.9029C1.26656 21.9029 1.26656 21.9029 1.76656 21.9029ZM1.76656 21.9002L1.60262 22.3726C1.72377 22.4146 1.77748 22.4494 1.96632 22.5266C2.10993 22.5854 2.32351 22.662 2.56457 22.6505L2.54079 22.1511L2.51701 21.6516C2.50447 21.6522 2.46042 21.6483 2.34506 21.6011C2.27493 21.5724 2.06833 21.4757 1.9305 21.4279L1.76656 21.9002ZM2.54079 22.1511L2.56581 22.6504C3.1837 22.6195 3.8265 22.4914 4.37036 22.4155L4.30125 21.9203L4.23214 21.4251C3.60325 21.5129 3.07599 21.6236 2.51577 21.6517L2.54079 22.1511ZM4.30125 21.9203L4.43005 21.4372C4.39673 21.4283 4.36532 21.4191 4.33722 21.4098L4.17914 21.8841L4.02106 22.3585C4.07348 22.3759 4.12526 22.3909 4.17245 22.4035L4.30125 21.9203ZM4.17914 21.8841L4.02568 22.36C4.07351 22.3754 4.12217 22.3901 4.17245 22.4035L4.30125 21.9203L4.43005 21.4372C4.39982 21.4292 4.36797 21.4197 4.33261 21.4083L4.17914 21.8841ZM4.30125 21.9203L3.93841 22.2644C3.99949 22.3288 4.06091 22.3935 4.12229 22.4583C4.18368 22.523 4.24505 22.5877 4.30607 22.6521L4.66891 22.308L5.03174 21.964C4.97066 21.8996 4.90925 21.8348 4.84786 21.7701C4.78647 21.7054 4.72511 21.6407 4.66408 21.5763L4.30125 21.9203ZM4.66891 22.308L4.37487 22.7124C4.43977 22.7596 4.49219 22.7968 4.54741 22.8382L4.84737 22.4382L5.14732 22.0381C5.08446 21.991 5.01612 21.9423 4.96294 21.9036L4.66891 22.308ZM4.84737 22.4382L4.39888 22.6592C4.42244 22.707 4.44624 22.7546 4.46928 22.8006C4.49253 22.8471 4.51503 22.8921 4.53709 22.9369L4.98557 22.7158L5.43406 22.4948C5.4105 22.447 5.3867 22.3994 5.36366 22.3533C5.34041 22.3068 5.31791 22.2619 5.29585 22.2171L4.84737 22.4382ZM4.98557 22.7158L4.59998 23.0341C4.8529 23.3405 5.17657 23.8102 5.5491 24.1547L5.88861 23.7877L6.22813 23.4206C5.91901 23.1347 5.71401 22.8129 5.37117 22.3975L4.98557 22.7158ZM5.88861 23.7877L5.54983 24.1554C5.69974 24.2935 5.75324 24.394 5.77504 24.4752C5.79803 24.5609 5.80215 24.6863 5.74652 24.9027L6.23078 25.0272L6.71503 25.1517C6.79492 24.8409 6.82454 24.5277 6.74085 24.216C6.65598 23.8998 6.47064 23.644 6.2274 23.42L5.88861 23.7877ZM6.23078 25.0272L5.74646 24.903C5.62873 25.362 5.53167 25.7435 5.48739 26.0572C5.44218 26.3775 5.44141 26.6898 5.56697 26.9918C5.69153 27.2914 5.9126 27.5135 6.16741 27.7124C6.41855 27.9085 6.7552 28.121 7.15968 28.3778L7.42767 27.9557L7.69566 27.5336C7.27291 27.2652 6.98629 27.0831 6.78285 26.9242C6.58309 26.7683 6.51826 26.675 6.49036 26.6079C6.46345 26.5432 6.44365 26.4373 6.47757 26.197C6.51241 25.9502 6.59264 25.6288 6.7151 25.1515L6.23078 25.0272ZM7.42767 27.9557L7.15734 28.3763C7.2556 28.4395 7.359 28.5036 7.4661 28.5646L7.71348 28.1301L7.96085 27.6956C7.87474 27.6465 7.7876 27.5926 7.698 27.5351L7.42767 27.9557ZM7.71348 28.1301L7.46509 28.564C7.68469 28.6897 7.89404 28.8027 8.09159 28.8809C8.29141 28.96 8.51047 29.0165 8.74539 29.0003C9.23899 28.9664 9.59252 28.6309 9.91346 28.2312L9.52358 27.9181L9.13371 27.6051C8.83205 27.9808 8.71527 28 8.67684 28.0027C8.64575 28.0048 8.58337 28 8.45956 27.951C8.33347 27.9011 8.17702 27.8193 7.96186 27.6961L7.71348 28.1301ZM9.52358 27.9181L9.91366 28.2309C10.2958 27.7544 10.6524 27.5679 10.992 27.5189C11.3501 27.4672 11.7708 27.5561 12.2964 27.79L12.4997 27.3332L12.7031 26.8764C12.1015 26.6087 11.4763 26.4386 10.8492 26.5292C10.2036 26.6223 9.63564 26.9791 9.13351 27.6053L9.52358 27.9181ZM12.4997 27.3332L12.2883 27.7863C12.32 27.8011 12.3472 27.8103 12.3592 27.8142C12.3652 27.8162 12.3714 27.8182 12.3727 27.8186C12.3753 27.8194 12.3741 27.819 12.3718 27.8183C12.3681 27.817 12.3492 27.8106 12.325 27.7986C12.2999 27.786 12.2625 27.7643 12.2236 27.7287L12.5614 27.3601L12.8993 26.9914C12.8523 26.9484 12.8058 26.9208 12.7706 26.9034C12.7365 26.8864 12.707 26.876 12.6924 26.871C12.6847 26.8684 12.6779 26.8663 12.675 26.8654C12.6708 26.864 12.6714 26.8642 12.672 26.8644C12.6731 26.8648 12.6895 26.8701 12.7111 26.8801L12.4997 27.3332ZM12.5614 27.3601L12.2252 27.7301C12.3198 27.8161 12.4226 27.8933 12.5114 27.9583C12.6073 28.0285 12.6828 28.0817 12.7569 28.1398C12.9202 28.2678 12.9368 28.3179 12.9347 28.3105L13.4162 28.1757L13.8977 28.0409C13.8043 27.7075 13.5412 27.4839 13.3737 27.3527C13.2824 27.2812 13.1798 27.2084 13.1021 27.1514C13.0171 27.0892 12.9507 27.0382 12.8977 26.9901L12.5614 27.3601ZM13.4162 28.1757L12.9348 28.3107C13.1608 29.1169 13.5442 29.731 14.1429 30.1036C14.7338 30.4715 15.4534 30.553 16.2467 30.4706L16.1951 29.9733L16.1434 29.476C15.4648 29.5465 14.9996 29.459 14.6713 29.2547C14.3509 29.0552 14.0808 28.694 13.8976 28.0407L13.4162 28.1757ZM16.1951 29.9733L16.2466 30.4706C16.8718 30.4058 17.435 30.2795 17.8284 29.9149C18.2435 29.5303 18.3647 28.9852 18.3763 28.3648L17.8764 28.3554L17.3765 28.3461C17.3666 28.8767 17.2617 29.0768 17.1487 29.1815C17.0142 29.3062 16.7475 29.4133 16.1435 29.4759L16.1951 29.9733ZM17.8764 28.3554L18.3423 28.537C18.4122 28.3574 18.4818 28.178 18.5512 27.9989C18.6207 27.8198 18.69 27.6411 18.7596 27.4624L18.2937 27.2809L17.8278 27.0994C17.7578 27.2789 17.6883 27.4584 17.6188 27.6374C17.5494 27.8166 17.4801 27.9953 17.4105 28.1739L17.8764 28.3554ZM18.2937 27.2809L18.5172 27.7282C18.6536 27.66 18.79 27.5921 18.927 27.524C19.0637 27.456 19.201 27.3877 19.3384 27.319L19.1149 26.8718L18.8913 26.4245C18.7549 26.4927 18.6185 26.5606 18.4816 26.6287C18.3448 26.6967 18.2075 26.765 18.0701 26.8337L18.2937 27.2809ZM19.1149 26.8718L19.0389 27.366C19.1794 27.3876 19.3258 27.3648 19.4588 27.2896L19.2128 26.8543L18.9668 26.419C18.9982 26.4013 19.0362 26.3866 19.0791 26.3791C19.1216 26.3716 19.1599 26.3728 19.1909 26.3776L19.1149 26.8718ZM19.2128 26.8543L19.7127 26.8639C19.7141 26.7928 19.7151 26.7222 19.7161 26.653C19.7171 26.5834 19.7181 26.5151 19.7194 26.4467L19.2195 26.4371L18.7196 26.4275C18.7182 26.4986 18.7172 26.5692 18.7162 26.6385C18.7152 26.7081 18.7142 26.7763 18.7129 26.8447L19.2128 26.8543ZM19.2195 26.4371L19.579 26.0896C19.1934 25.6907 18.8059 25.2885 18.4177 24.8884L18.0589 25.2365L17.7 25.5846C18.0874 25.984 18.4728 26.384 18.86 26.7846L19.2195 26.4371ZM18.0589 25.2365L18.4074 24.878C18.2634 24.7381 18.1194 24.5967 17.9756 24.4557L17.6255 24.8126L17.2753 25.1695C17.4187 25.3102 17.5645 25.4532 17.7104 25.595L18.0589 25.2365ZM17.6255 24.8126H18.1255V24.8099H17.6255H17.1255V24.8126H17.6255ZM6.92047 16.1385L6.42688 16.2183C6.45092 16.3671 6.48201 16.513 6.5164 16.6548L7.00232 16.537L7.48824 16.4191C7.45822 16.2953 7.43295 16.1756 7.41406 16.0587L6.92047 16.1385ZM7.00232 16.537L7.48709 16.4145C7.45743 16.2971 7.43343 16.1786 7.41406 16.0587L6.92047 16.1385L6.42688 16.2183C6.45044 16.3641 6.48012 16.5112 6.51754 16.6594L7.00232 16.537Z" fill="#1E4EA4" mask="url(#path-1-inside-1_533_32)"/>
<path d="M14.1592 11.5078C15.1157 11.1354 16.3714 11.1667 17.5527 11.6055C18.8433 12.0848 20.0067 13.036 20.5635 14.4092L20.5518 14.4629L20.5771 14.5166L20.5723 14.5527L20.5898 14.6074C20.6115 14.6761 20.6336 14.7456 20.6553 14.8154C20.6768 14.8849 20.6985 14.9553 20.7207 15.0254L20.7266 15.0234C21.1038 16.1247 21.1149 17.2191 20.7188 18.3145L20.6631 18.4678L20.7812 18.5811L26.1738 23.7305C27.069 24.5854 27.967 25.4234 28.8506 26.2822H28.8516C29.0868 26.5108 29.2698 26.7656 29.5049 27.0459L29.6074 27.2949L29.6191 27.3438C29.6386 27.43 29.6581 27.5165 29.6777 27.6025C29.6969 27.6867 29.7156 27.771 29.7344 27.8545C29.7366 27.9057 29.7399 27.9565 29.7422 28.0068C29.7446 28.0579 29.7459 28.1086 29.748 28.1592C29.6859 28.4063 29.6243 28.6536 29.5625 28.9004C29.5033 29.1365 29.4432 29.3722 29.3838 29.6084C29.3451 29.6804 29.3046 29.756 29.2646 29.8311C29.2106 29.8858 29.1563 29.941 29.1016 29.9961C29.0565 30.0414 29.0101 30.086 28.9648 30.1318C28.9558 30.1335 28.9465 30.136 28.9375 30.1377L28.8643 30.1504L28.8096 30.2031C28.144 30.8404 27.1376 30.9371 26.2256 30.4062L26.2275 30.3975C26.145 30.3579 26.0635 30.3172 25.9814 30.2773C25.9481 30.2483 25.9146 30.2197 25.8818 30.1914C25.8418 30.1568 25.8025 30.1229 25.7637 30.0889C25.7346 30.0621 25.7052 30.0352 25.6758 30.0078C25.6496 29.9834 25.6227 29.9585 25.5957 29.9336C24.0615 28.3617 22.5247 26.7935 20.9951 25.2197C20.4703 24.6792 19.9467 24.1333 19.4219 23.5879L17.8398 21.958C17.7319 21.8488 17.5998 21.7797 17.4893 21.7285C17.362 21.6696 17.2812 21.6406 17.1875 21.5908L17.1084 21.5488L17.0205 21.5664C15.822 21.808 14.6757 21.827 13.5791 21.3174L13.5615 21.3096L13.2998 21.2021C12.0143 20.6228 11.0871 19.4634 10.6104 18.2666C10.3568 17.63 10.2353 16.9944 10.251 16.4453C10.2635 16.0083 10.363 15.6419 10.5352 15.3691C11.2717 16.0524 12.0113 16.6796 12.6543 17.4082C12.9982 17.7989 13.3605 18.0572 13.7803 18.1514C14.1995 18.2454 14.637 18.1674 15.1143 17.9668C16.1291 17.5414 17.0278 16.5453 17.1504 15.4082L17.1641 15.1787C17.1662 15.0046 17.0949 14.8413 17.0205 14.7148C16.9435 14.5839 16.8464 14.4632 16.7617 14.3682H16.7607C15.9018 13.407 15.0265 12.4577 14.1592 11.5078Z" stroke="#1E4EA4" stroke-width="0.5"/>
</svg>
