<svg width="29" height="31" viewBox="0 0 29 31" fill="none" xmlns="http://www.w3.org/2000/svg">
<path d="M20.376 0.253906C20.4475 0.253928 20.5262 0.267146 20.6221 0.290039C20.7012 0.308953 20.8162 0.339958 20.917 0.361328C21.1153 0.418201 21.2572 0.504239 21.3545 0.612305C21.4495 0.717986 21.5156 0.860931 21.54 1.05859C21.549 4.64346 21.5564 8.22656 21.5527 11.8096C21.551 11.8112 21.5498 11.8137 21.5479 11.8154C21.5374 11.8248 21.5263 11.8331 21.5146 11.8428C21.0186 11.6334 20.5182 11.5521 20.0166 11.5781L20.0137 11.3838C20.0111 11.3838 20.0085 11.3838 20.0059 11.3838C19.9775 11.3847 19.9232 11.3858 19.8789 11.3887L19.8906 11.5869C19.5628 11.6156 19.2346 11.6886 18.9072 11.8018L18.917 11.8311L18.8916 11.7988C18.8457 11.8214 18.8 11.8439 18.7549 11.8662C18.7096 11.8886 18.6643 11.9104 18.6191 11.9326L18.6504 12.0273L18.5947 11.957C18.5501 11.9925 18.5058 12.0284 18.4619 12.0635C18.4218 12.0956 18.3818 12.1274 18.3418 12.1592C16.0839 13.5997 13.842 15.0514 11.5732 16.4668V16.4678C10.7058 17.0095 9.74405 17.6031 9.64746 18.918V18.9189C9.59658 19.6165 9.71431 20.2312 10.0195 20.75C10.3174 21.2563 10.7819 21.6496 11.3945 21.9404C11.4013 21.9476 11.4082 21.9547 11.415 21.9619C11.4142 22.0183 11.4139 22.0748 11.4131 22.1309V22.1348C11.4169 23.5469 11.4172 24.9627 11.4287 26.3779V26.3789C11.4293 26.4474 11.4274 26.5009 11.4219 26.5439C11.4163 26.5871 11.4087 26.6062 11.4053 26.6123C11.4054 26.6122 11.4047 26.6117 11.4033 26.6123C11.3954 26.6158 11.3672 26.6261 11.3018 26.624L11.2217 26.6211L11.1543 26.666C10.9628 26.7943 10.7712 26.9226 10.5791 27.0508C10.4033 27.1681 10.2265 27.2846 10.0508 27.4023C9.78305 27.4321 9.51431 27.4615 9.24609 27.4922V27.374C6.86669 27.374 4.48488 27.3719 2.10449 27.3809V27.4863C1.84115 27.486 1.5778 27.4857 1.31445 27.4854C1.03044 27.438 0.810702 27.3595 0.657227 27.2363C0.509949 27.1181 0.401811 26.9418 0.374023 26.6484L0.373047 26.6387L0.37207 26.6299L0.294922 26.2568C0.270927 26.1402 0.254888 26.0379 0.254883 25.9414C0.248468 17.9406 0.248468 9.93829 0.254883 1.9375C0.254883 1.84067 0.27015 1.7377 0.293945 1.62109C0.312291 1.53122 0.338294 1.41568 0.359375 1.30664C0.458684 1.16402 0.557837 1.0214 0.657227 0.878906C0.750245 0.745546 0.843432 0.61218 0.936523 0.478516C1.08659 0.434377 1.24536 0.382712 1.36914 0.344727C1.49312 0.306689 1.60449 0.278128 1.70898 0.266602L1.81152 0.260742C8.00012 0.245396 14.1881 0.250069 20.376 0.253906ZM4.6582 13.9668H4.65723C4.64094 13.9681 4.62463 13.9712 4.6084 13.9727C4.46814 13.9851 4.32967 14.0025 4.19629 14.0215C4.04729 14.0427 3.90632 14.0631 3.76465 14.0791H3.70312L3.69043 14.0869L3.53613 14.1055V14.1924C3.5086 14.2108 3.48047 14.2305 3.4502 14.251L3.49707 14.3232L3.44336 14.2568C3.35468 14.3286 3.26456 14.4018 3.1748 14.4746L3.11719 14.5225L3.09473 14.5938C3.01913 14.8348 2.9666 15.098 3.00684 15.3574C3.04887 15.6284 3.18829 15.8722 3.45117 16.0723L3.49414 16.1055L3.54688 16.1172C3.62476 16.1348 3.6823 16.1546 3.7832 16.1816C3.87098 16.2051 3.9778 16.2284 4.09277 16.2285V16.2295C5.89984 16.2372 7.70594 16.2372 9.51172 16.2295H9.5127C9.62716 16.2285 9.7337 16.2043 9.82129 16.1807C9.91381 16.1557 9.97082 16.1367 10.04 16.1201C10.092 16.1174 10.1444 16.1151 10.1963 16.1123C10.2564 16.1091 10.3168 16.1057 10.377 16.1025L10.4473 16.0986L10.5059 16.0586C10.5557 16.0242 10.6054 15.9895 10.6553 15.9551L11.3164 15.5H11.041C11.0697 15.4214 11.0874 15.3398 11.0928 15.2568C11.1089 15.0072 11.0261 14.7652 10.9521 14.5889H10.9512C10.9068 14.4828 10.8277 14.4081 10.7559 14.3574C10.6818 14.3052 10.5967 14.2651 10.5156 14.2334C10.3538 14.1702 10.1723 14.1286 10.0332 14.1025C9.84607 14.067 9.65878 14.0586 9.4834 14.0576C9.29698 14.0566 9.14753 14.063 8.97852 14.0586H8.9707C7.53634 14.065 6.10076 14.0699 4.66602 14.0752L4.6582 13.9668ZM14.75 9.58984C11.2914 9.5924 7.83377 9.5918 4.375 9.5918C4.19649 9.5918 3.94496 9.57816 3.72266 9.63184C3.47387 9.69195 3.24702 9.83631 3.09473 10.1357C2.93448 10.4504 2.9535 10.7295 3.06543 10.9736C3.16528 11.1912 3.3442 11.3849 3.46484 11.5303L3.52539 11.6025L3.61816 11.6172C3.76151 11.6397 3.8897 11.6694 4.0498 11.6992C4.2004 11.7273 4.36399 11.7509 4.5332 11.751V11.752C7.88599 11.7609 11.239 11.7609 14.5918 11.752L14.5908 11.751C14.759 11.751 14.9224 11.729 15.0732 11.7021C15.2336 11.6736 15.3617 11.6451 15.5059 11.623L15.7188 11.5898V11.4688C15.8425 11.3344 15.9865 11.1742 16.0771 10.9912C16.1951 10.7529 16.2288 10.4754 16.0879 10.1631C15.9421 9.84008 15.7021 9.68797 15.4404 9.62695C15.2072 9.57267 14.9377 9.58984 14.75 9.58984ZM4.41406 5.10449C4.39214 5.13875 4.36987 5.17261 4.34766 5.20703C4.12347 5.204 3.8891 5.22124 3.66992 5.29688C3.39152 5.39303 3.15015 5.57825 2.97852 5.89551L2.94434 5.95801L2.94824 6.0293C2.95213 6.09329 2.95677 6.15815 2.96094 6.22168C2.96511 6.28528 2.96886 6.34864 2.97266 6.41113L3.16699 6.39844L2.99609 6.50586C3.04741 6.59411 3.09907 6.68226 3.15039 6.77051L3.20215 6.86035L3.23926 6.86914L3.52832 7.30176L3.50586 6.9502C3.58741 6.97689 3.67259 7.00372 3.77148 7.03418C3.93771 7.08537 4.12643 7.1329 4.32422 7.13379C8.74462 7.15681 13.1645 7.15932 17.584 7.16699H17.6182L17.6514 7.1582C17.6637 7.15474 17.6793 7.15266 17.7012 7.15332L17.959 7.16113V7.0127C18.0955 6.89083 18.2104 6.7725 18.2949 6.65234C18.3987 6.50475 18.4679 6.34209 18.4668 6.16309C18.4656 5.98327 18.3935 5.8224 18.2861 5.67871C18.1806 5.53756 18.0314 5.40067 17.8525 5.26172L17.8125 5.23047L17.7637 5.21777L17.3633 5.08887C17.2195 5.04349 17.0524 5.00002 16.876 5H16.877C14.8347 4.99296 12.7922 4.99006 10.75 4.98926H4.48828L4.41406 5.10449Z" stroke="white" stroke-width="0.5"/>
<path d="M19.963 13.5715C20.1443 13.5754 20.3322 13.6206 20.5255 13.7092L20.7208 13.8127C23.0629 15.2161 25.4055 16.6136 27.7443 18.0178C28.1714 18.2746 28.3816 18.6406 28.3429 19.1145C28.3092 19.522 28.0653 19.7826 27.6476 19.9407C22.7392 19.9419 17.832 19.9425 12.9249 19.9426L12.9152 19.8469C12.804 19.8589 12.6944 19.8773 12.5929 19.8958C12.5595 19.9018 12.527 19.9066 12.4952 19.9124C12.4524 19.9201 12.4106 19.9271 12.3693 19.9338C11.9354 19.7308 11.723 19.4365 11.6827 19.1682C11.6472 18.9303 11.7376 18.6528 12.0343 18.4075L12.1749 18.304C14.5051 16.7733 16.8673 15.2886 19.2277 13.7942L19.2491 13.7795C19.4922 13.6301 19.7299 13.5666 19.963 13.5715Z" stroke="white" stroke-width="0.5"/>
<path d="M27.747 28.6422C28.0549 28.6604 28.2969 28.7654 28.4628 28.9185C28.6272 29.0703 28.7305 29.2816 28.7451 29.5425L28.748 29.608C28.7483 29.865 28.6649 30.0928 28.5234 30.2554C28.373 30.4282 28.1477 30.5406 27.8505 30.5308C27.397 30.516 26.9489 30.5908 26.5429 30.6382C26.1261 30.6869 25.7329 30.7102 25.33 30.6216L25.0087 30.566C24.6856 30.5235 24.3589 30.5183 24.039 30.5259C23.8258 30.5311 23.6113 30.5421 23.4023 30.5523C23.192 30.5626 22.9862 30.5729 22.7831 30.5757C20.8787 30.6014 18.9899 30.6614 17.0937 30.6627C15.5282 30.6639 13.9609 30.6127 12.3896 30.564H12.3886C11.8342 30.5469 11.3883 30.1217 11.3251 29.6617L11.3173 29.5699C11.3059 29.0783 11.701 28.6515 12.3935 28.647C14.9532 28.6304 17.5137 28.6402 20.0771 28.6402H20.3271V28.6363H27.1855C27.3869 28.6363 27.5658 28.6312 27.747 28.6422Z" stroke="white" stroke-width="0.5"/>
<path d="M21.1346 21.6071C21.3269 21.6091 21.4195 21.6636 21.4686 21.7203C21.5229 21.7832 21.5664 21.8972 21.5652 22.0953V26.6237C21.5663 26.8372 21.5147 26.9487 21.4559 27.0084C21.3975 27.0676 21.288 27.1193 21.075 27.1188C20.3884 27.1162 19.7139 27.1197 19.0301 27.1158H19.0311C18.8511 27.1143 18.7553 27.0663 18.7039 27.0143C18.6524 26.9619 18.6068 26.8665 18.6063 26.6901C18.6011 25.1393 18.5995 23.5883 18.6033 22.0377C18.6038 21.8639 18.6503 21.766 18.7039 21.7115C18.7573 21.6574 18.8539 21.6091 19.0301 21.6071L19.0291 21.6061C19.7322 21.5997 20.4337 21.5994 21.1346 21.6071Z" stroke="white" stroke-width="0.5"/>
<path d="M13.3409 22.0286C13.3414 21.8521 13.3904 21.7612 13.4435 21.7112C13.4996 21.6583 13.6008 21.6123 13.7794 21.6096C14.3732 21.6007 14.9671 21.6057 15.5675 21.6057C15.7809 21.6052 15.8865 21.6608 15.9425 21.7209C16.0017 21.7845 16.0504 21.9012 16.0499 22.1135V24.6624H16.0509C16.0489 25.1189 16.0431 25.5817 16.047 26.0442L16.0577 26.5911C16.0645 26.8307 16.0141 26.9493 15.9572 27.01C15.9026 27.0681 15.7941 27.1241 15.5587 27.1213H15.5577C15.2579 27.1181 14.9576 27.1182 14.6593 27.1184C14.3606 27.1186 14.0635 27.1183 13.7667 27.1145H13.7657C13.5878 27.1124 13.4919 27.0654 13.4396 27.0129C13.3875 26.9605 13.3409 26.8645 13.3409 26.6868C13.3371 25.1347 13.3371 23.5807 13.3409 22.0286Z" stroke="white" stroke-width="0.5"/>
<path d="M24.58 21.6173C25.1365 21.6058 25.69 21.6007 26.2421 21.6134L26.4247 21.6193C26.6088 21.6252 26.6945 21.6827 26.7421 21.7452C26.7841 21.8004 26.816 21.8856 26.829 22.0079L26.8359 22.1427C26.832 22.8891 26.8359 23.6372 26.8359 24.381C26.8359 24.9179 26.8264 25.466 26.831 26.0138L26.8408 26.5616C26.8489 26.8161 26.7977 26.9442 26.7363 27.0099C26.6778 27.0723 26.5607 27.1307 26.3076 27.1251C25.7486 27.1122 25.1876 27.1171 24.6328 27.1222C24.455 27.1238 24.3639 27.0859 24.3183 27.046C24.279 27.0116 24.2333 26.9401 24.2333 26.7697V21.9757C24.2339 21.8236 24.2745 21.745 24.3154 21.7032C24.3561 21.6616 24.4324 21.6203 24.58 21.6173Z" stroke="white" stroke-width="0.5"/>
<mask id="path-7-inside-1_159_72" fill="white">
<path d="M4.64121 5.4515C4.63479 5.38116 4.62966 5.31082 4.62324 5.24048C4.57577 5.31466 4.5283 5.38756 4.48083 5.46173C4.53344 5.4579 4.58732 5.45534 4.63992 5.4515H4.64121Z"/>
</mask>
<path d="M4.64121 5.4515V5.9515H5.18888L5.13914 5.40609L4.64121 5.4515ZM4.62324 5.24048L5.12118 5.19507L4.98865 3.74188L4.2021 4.97097L4.62324 5.24048ZM4.48083 5.46173L4.05969 5.19222L3.52162 6.03303L4.51721 5.96041L4.48083 5.46173ZM4.63992 5.4515V4.9515H4.62171L4.60355 4.95283L4.63992 5.4515ZM4.64121 5.4515L5.13914 5.40609C5.13617 5.37355 5.13347 5.34063 5.13055 5.30509C5.12769 5.27029 5.12463 5.23287 5.12118 5.19507L4.62324 5.24048L4.12531 5.28589C4.12828 5.31843 4.13098 5.35135 4.1339 5.38689C4.13676 5.42169 4.13983 5.45911 4.14327 5.49691L4.64121 5.4515ZM4.62324 5.24048L4.2021 4.97097C4.17898 5.00709 4.15578 5.04303 4.13196 5.07994C4.10831 5.11657 4.08404 5.15417 4.05969 5.19222L4.48083 5.46173L4.90198 5.73124C4.9251 5.69512 4.9483 5.65918 4.97212 5.62227C4.99577 5.58564 5.02004 5.54804 5.04439 5.50999L4.62324 5.24048ZM4.48083 5.46173L4.51721 5.96041C4.53977 5.95876 4.56317 5.95735 4.59035 5.95572C4.61641 5.95415 4.64625 5.95237 4.6763 5.95018L4.63992 5.4515L4.60355 4.95283C4.58099 4.95447 4.55759 4.95588 4.53041 4.95752C4.50435 4.95908 4.4745 4.96087 4.44446 4.96306L4.48083 5.46173ZM4.63992 5.4515V5.9515H4.64121V5.4515V4.9515H4.63992V5.4515Z" fill="white" mask="url(#path-7-inside-1_159_72)"/>
</svg>
