<svg width="32" height="32" viewBox="0 0 32 32" fill="none" xmlns="http://www.w3.org/2000/svg">
<mask id="path-1-inside-1_157_55" fill="white">
<path d="M14.747 16.0584L14.7627 16.0507L14.7457 16.0597L14.747 16.0584Z"/>
</mask>
<path d="M14.747 16.0584L14.5248 15.6105L14.4523 15.6465L14.3949 15.7035L14.747 16.0584ZM14.7627 16.0507L14.9983 16.4917L14.5405 15.6028L14.7627 16.0507ZM14.7457 16.0597L14.3935 15.7048L14.9814 16.5007L14.7457 16.0597ZM14.747 16.0584L14.9693 16.5063L14.9849 16.4986L14.7627 16.0507L14.5405 15.6028L14.5248 15.6105L14.747 16.0584ZM14.7627 16.0507L14.5271 15.6097L14.5101 15.6187L14.7457 16.0597L14.9814 16.5007L14.9983 16.4917L14.7627 16.0507ZM14.7457 16.0597L15.0979 16.4146L15.0992 16.4134L14.747 16.0584L14.3949 15.7035L14.3935 15.7048L14.7457 16.0597Z" fill="#1648A0" mask="url(#path-1-inside-1_157_55)"/>
<path d="M26.0702 2.7262C27.6483 2.72489 29.2204 2.71056 30.7938 2.7301V2.73108C31.1375 2.73571 31.356 2.8298 31.494 2.97522C31.6349 3.12377 31.73 3.36596 31.7421 3.74377C31.7642 4.41723 31.7495 5.08507 31.746 5.76819C31.6324 5.76971 31.5187 5.77155 31.4052 5.77307C31.2105 5.77567 31.0158 5.77828 30.8212 5.78088H29.6112L29.5848 5.78674C29.5165 5.80174 29.4481 5.81765 29.3798 5.83264C29.3115 5.84763 29.243 5.86257 29.1747 5.87756L29.1171 5.89026L29.0712 5.92639C28.8887 6.07339 28.7198 6.26903 28.7069 6.51526C28.6932 6.77818 28.8604 6.98497 29.0819 7.14124L29.1044 7.10901L29.0897 7.15784C29.9846 7.6127 30.9069 7.47312 31.7411 7.34045C31.7419 7.99143 31.7411 8.64244 31.7411 9.29358C31.6892 9.29484 31.6369 9.29602 31.5858 9.29749C31.1553 9.29878 30.7248 9.30042 30.2948 9.30042H30.245L30.1991 9.31995C30.0615 9.37716 29.9203 9.43782 29.787 9.49377L29.7528 9.50745L29.7245 9.53088C29.5629 9.66381 29.4005 9.84532 29.3846 10.0768C29.3674 10.3311 29.5298 10.5271 29.7401 10.6705L29.7909 10.7057L29.8524 10.7125C30.4818 10.7837 31.1115 10.855 31.7411 10.9274C31.7405 11.2265 31.7399 11.5256 31.7391 11.8248C31.7384 12.1155 31.7378 12.4062 31.7372 12.6969C31.5599 12.6986 31.3825 12.7012 31.205 12.7028C30.9449 12.705 30.6837 12.707 30.4237 12.7096C30.3543 12.7096 30.2846 12.7099 30.2167 12.7106C30.1477 12.7112 30.08 12.7125 30.0126 12.7125H29.9784L29.9452 12.7213L29.1581 12.942L28.9755 12.9928V13.983H29.1786L29.1122 14.2115C29.2104 14.2507 29.2786 14.2922 29.4081 14.3522C29.4905 14.3903 29.5909 14.4315 29.702 14.4518L29.8163 14.4635C30.4543 14.4844 31.098 14.4684 31.7274 14.4606C31.7282 15.0614 31.7274 15.6622 31.7274 16.2623C31.5422 16.2913 31.3684 16.32 31.1864 16.3385C30.7447 16.3839 30.3043 16.4145 29.8534 16.4528L29.7772 16.4596L29.7177 16.5074C29.5321 16.6571 29.3672 16.8545 29.3641 17.1022C29.361 17.3592 29.5312 17.5576 29.743 17.7057L29.7948 17.7418L29.8583 17.7496C30.4759 17.819 31.0978 17.8889 31.7177 17.9586L31.6161 19.8434C30.9688 19.8011 30.2958 19.7426 29.6317 19.7555C29.4511 19.7589 29.2618 19.8576 29.1298 19.9547C29.0586 20.007 28.99 20.0694 28.9344 20.1373C28.8952 20.1853 28.8531 20.2472 28.827 20.3199L28.8065 20.3961C28.7748 20.5816 28.8465 20.7743 28.9227 20.9147C29.0034 21.0632 29.12 21.2083 29.2469 21.3063V21.3073C29.3847 21.4127 29.5531 21.4622 29.701 21.4889C29.8508 21.5158 30.0059 21.5224 30.1337 21.527V21.528C30.628 21.5473 31.1289 21.5371 31.6151 21.5328L31.6161 21.5348V21.5485C31.6162 21.55 31.617 21.5518 31.6171 21.5533V21.5621C31.6172 21.5637 31.618 21.5655 31.618 21.567V21.5807C31.6181 21.5822 31.6189 21.584 31.619 21.5856V21.5992C31.6191 21.6008 31.6199 21.6026 31.62 21.6041V21.6129C31.6201 21.6144 31.6209 21.6163 31.621 21.6178V21.6315C31.6211 21.633 31.6219 21.6348 31.6219 21.6364V21.6451C31.622 21.6467 31.6228 21.6485 31.6229 21.65V21.6637C31.623 21.6652 31.6238 21.667 31.6239 21.6686V21.6823C31.624 21.6838 31.6248 21.6856 31.6249 21.6871V21.6959C31.625 21.6975 31.6258 21.6993 31.6259 21.7008V21.7145C31.6259 21.716 31.6267 21.7178 31.6268 21.7194V21.7281C31.6269 21.7297 31.6277 21.7315 31.6278 21.733V21.7467C31.6279 21.7482 31.6287 21.7501 31.6288 21.7516V21.7653C31.6289 21.7667 31.6297 21.7687 31.6298 21.7701V21.7789C31.6299 21.7805 31.6306 21.7823 31.6307 21.7838V21.7975C31.6308 21.799 31.6316 21.8009 31.6317 21.8024V21.816C31.6318 21.8174 31.6326 21.8186 31.6327 21.8199V21.8297C31.6328 21.8312 31.6336 21.8331 31.6337 21.8346V21.8483C31.6337 21.8496 31.6346 21.8509 31.6346 21.8522V21.8619C31.6347 21.8634 31.6355 21.8653 31.6356 21.8668V21.8805C31.6357 21.8818 31.6365 21.8831 31.6366 21.8844V21.899C31.6367 21.9004 31.6375 21.9016 31.6376 21.903V21.9127C31.6377 21.914 31.6385 21.9153 31.6385 21.9166V21.9313C31.6386 21.9326 31.6394 21.9339 31.6395 21.9352V21.9489C31.6396 21.9504 31.6404 21.9522 31.6405 21.9537V21.9635C31.6406 21.9648 31.6414 21.9661 31.6415 21.9674V21.9811C31.6416 21.9826 31.6424 21.9845 31.6425 21.986V21.9957C31.6425 21.997 31.6434 21.9983 31.6434 21.9996V22.0133C31.6435 22.0148 31.6443 22.0167 31.6444 22.0182V22.0319C31.6445 22.0334 31.6453 22.0352 31.6454 22.0367V22.0455C31.6455 22.047 31.6463 22.0489 31.6464 22.0504V22.0641C31.6465 22.0656 31.6472 22.0674 31.6473 22.069V22.0778C31.6474 22.0793 31.6482 22.0811 31.6483 22.0826V22.0963C31.6484 22.0978 31.6492 22.0997 31.6493 22.1012V22.1149C31.6494 22.1164 31.6502 22.1182 31.6503 22.1198V22.1285C31.6504 22.1301 31.6512 22.1319 31.6512 22.1334V22.1471C31.6513 22.1486 31.6521 22.1504 31.6522 22.152V22.1656C31.6523 22.1672 31.6531 22.169 31.6532 22.1705V22.1793C31.6533 22.1809 31.6541 22.1827 31.6542 22.1842V22.1979C31.6543 22.1994 31.6551 22.2012 31.6552 22.2028V22.2115C31.6552 22.2131 31.656 22.2149 31.6561 22.2164V22.2301C31.6562 22.2316 31.657 22.2335 31.6571 22.235V22.2487C31.6572 22.2502 31.658 22.252 31.6581 22.2535V22.2623C31.6582 22.2639 31.659 22.2657 31.6591 22.2672V22.2809C31.6591 22.2824 31.6599 22.2843 31.66 22.2858V22.2994C31.6601 22.3008 31.6609 22.302 31.661 22.3033V22.3131C31.6611 22.3146 31.6619 22.3165 31.662 22.318V22.3317C31.6621 22.333 31.6629 22.3343 31.663 22.3356V22.3453C31.6631 22.3468 31.6639 22.3487 31.6639 22.3502V22.3639C31.664 22.3652 31.6648 22.3665 31.6649 22.3678V22.3824C31.665 22.3838 31.6658 22.385 31.6659 22.3864V22.3961C31.666 22.3974 31.6668 22.3987 31.6669 22.4V22.4147C31.6669 22.416 31.6678 22.4173 31.6678 22.4186V22.4323C31.6679 22.4337 31.6687 22.4356 31.6688 22.4371V22.4469C31.6689 22.4482 31.6697 22.4495 31.6698 22.4508V22.4645C31.6699 22.466 31.6707 22.4679 31.6708 22.4694V22.4791C31.6709 22.4804 31.6717 22.4817 31.6718 22.483V22.4967C31.6718 22.4982 31.6726 22.5001 31.6727 22.5016V22.5153C31.6728 22.5168 31.6736 22.5186 31.6737 22.5201V22.5289C31.6738 22.5304 31.6746 22.5323 31.6747 22.5338V22.5475C31.6748 22.549 31.6756 22.5508 31.6757 22.5524V22.5612C31.6757 22.5627 31.6765 22.5645 31.6766 22.566V22.5797C31.6767 22.5812 31.6775 22.5831 31.6776 22.5846V22.5983C31.6777 22.5998 31.6785 22.6016 31.6786 22.6031V22.6119C31.6787 22.6135 31.6795 22.6153 31.6796 22.6168V22.6305C31.6797 22.632 31.6805 22.6338 31.6805 22.6354V22.649C31.6806 22.6506 31.6814 22.6524 31.6815 22.6539V22.6627C31.6816 22.6643 31.6824 22.6661 31.6825 22.6676V22.6813C31.6826 22.6828 31.6834 22.6846 31.6835 22.6862V22.6949C31.6836 22.6965 31.6844 22.6983 31.6844 22.6998V22.7135C31.6845 22.715 31.6853 22.7168 31.6854 22.7184V22.7321C31.6855 22.7336 31.6863 22.7354 31.6864 22.7369V22.7457C31.6865 22.7473 31.6873 22.7491 31.6874 22.7506V22.7643C31.6875 22.7658 31.6883 22.7677 31.6884 22.7692V22.7828C31.6884 22.7842 31.6893 22.7854 31.6893 22.7867V22.7965C31.6894 22.798 31.6902 22.7999 31.6903 22.8014V22.8151C31.6904 22.8164 31.6912 22.8177 31.6913 22.819V22.8287C31.6914 22.8302 31.6922 22.8321 31.6923 22.8336V22.8473C31.6923 22.8486 31.6932 22.8499 31.6932 22.8512V22.8658C31.6933 22.8672 31.6941 22.8684 31.6942 22.8698V22.8795C31.6943 22.8808 31.6951 22.8821 31.6952 22.8834V22.8981C31.6953 22.8994 31.6961 22.9007 31.6962 22.902V22.9156C31.6963 22.9171 31.6971 22.9191 31.6971 22.9205V22.9303C31.6972 22.9316 31.698 22.9329 31.6981 22.9342V22.9479C31.6982 22.9494 31.699 22.9513 31.6991 22.9528V22.9625C31.6992 22.9638 31.7 22.9651 31.7001 22.9664V22.9801C31.7002 22.9816 31.701 22.9835 31.701 22.985V22.9987C31.7011 23.0002 31.7019 23.002 31.702 23.0035V23.0123C31.7021 23.0138 31.7029 23.0157 31.703 23.0172V23.0309C31.7031 23.0324 31.7039 23.0342 31.704 23.0358V23.0446C31.7041 23.046 31.7049 23.048 31.705 23.0494V23.0631C31.705 23.0646 31.7058 23.0665 31.7059 23.068V23.0817C31.706 23.0832 31.7068 23.085 31.7069 23.0865V23.0953C31.707 23.0969 31.7078 23.0987 31.7079 23.1002V23.1139C31.708 23.1154 31.7088 23.1172 31.7089 23.1188V23.1324C31.709 23.134 31.7097 23.1358 31.7098 23.1373V23.1461C31.7099 23.1477 31.7107 23.1495 31.7108 23.151V23.1647C31.7109 23.1662 31.7117 23.168 31.7118 23.1696V23.1783C31.7119 23.1799 31.7127 23.1817 31.7128 23.1832V23.1969C31.7129 23.1984 31.7137 23.2002 31.7137 23.2018V23.2155C31.7138 23.217 31.7146 23.2188 31.7147 23.2203V23.2291C31.7148 23.2307 31.7156 23.2325 31.7157 23.234V23.2477C31.7158 23.2492 31.7166 23.251 31.7167 23.2526V23.2662C31.7168 23.2676 31.7176 23.2688 31.7177 23.2701V23.2799C31.7177 23.2814 31.7185 23.2833 31.7186 23.2848V23.2985C31.7187 23.2998 31.7195 23.3011 31.7196 23.3024V23.3121C31.7197 23.3137 31.7205 23.3155 31.7206 23.317V23.3307C31.7207 23.3322 31.7215 23.3341 31.7216 23.3356V23.3492C31.7216 23.3506 31.7225 23.3518 31.7225 23.3531V23.3629C31.7226 23.3644 31.7234 23.3663 31.7235 23.3678V23.3834C31.406 23.3765 31.0614 23.3654 30.7333 23.3981C30.553 23.4158 30.3797 23.4581 30.2186 23.5026C30.0475 23.5498 29.9107 23.5937 29.7548 23.6334L29.578 23.6783L29.5663 23.861C29.5433 24.2475 29.5755 24.6096 29.8524 24.8326C29.985 24.9394 30.1496 24.9935 30.328 25.0201C30.5063 25.0468 30.718 25.0491 30.9618 25.0377H31.3182C31.4072 25.0397 31.4969 25.0423 31.5868 25.0446C31.6378 25.0459 31.6889 25.0462 31.7401 25.0475C31.7391 25.6681 31.7384 26.289 31.7382 26.9098C31.0001 26.9075 30.2501 26.899 29.5048 26.9274H29.5038C29.3602 26.933 29.2058 26.9955 29.0917 27.0651C29.0316 27.1017 28.9715 27.1474 28.9208 27.1998C28.8741 27.2481 28.8142 27.3243 28.7938 27.4244C28.7593 27.5938 28.8124 27.7555 28.8553 27.8658C28.878 27.924 28.9054 27.9838 28.9266 28.0328C28.9492 28.085 28.9671 28.1293 28.9803 28.1696L29.1796 28.1373L29.0897 28.2897C29.2227 28.3689 29.3575 28.4462 29.4901 28.5231L29.5468 28.5563L29.6122 28.5573L30.2596 28.5631L30.2645 28.5651H30.2948L31.744 28.5758C31.7487 29.2968 31.7575 30.0118 31.7469 30.7272C31.7424 31.0527 31.6444 31.2952 31.4901 31.4557C31.337 31.6147 31.1036 31.7196 30.7772 31.7252C29.2276 31.7513 27.6834 31.7703 26.1464 31.7028C26.0685 31.6993 25.9627 31.6462 25.8036 31.5182C25.7278 31.4572 25.6543 31.3922 25.5702 31.3199C25.5213 31.2779 25.4685 31.2349 25.4149 31.193C25.413 26.8883 25.4123 22.5836 25.41 18.2789C25.4077 13.9324 25.4052 9.58543 25.4032 5.23889L25.4139 3.18811C25.4575 3.00717 25.5343 2.90175 25.6249 2.83752C25.6985 2.78535 25.7976 2.7492 25.9286 2.73401L26.0702 2.7262Z" stroke="#1648A0" stroke-width="0.5"/>
<mask id="path-4-inside-2_157_55" fill="white">
<path d="M16.073 0.387329C16.073 0.387329 16.0756 0.389877 16.0769 0.391152C16.0794 0.392426 16.082 0.3937 16.0846 0.394974L16.073 0.387329Z"/>
</mask>
<path d="M16.073 0.387329L16.3489 -0.0296883L15.7209 0.742305L16.073 0.387329ZM16.0769 0.391152L15.7247 0.74607L15.7821 0.803081L15.8546 0.839054L16.0769 0.391152ZM16.0846 0.394974L15.8623 0.842876L16.3604 -0.0220431L16.0846 0.394974ZM16.073 0.387329C15.7209 0.742305 15.7209 0.742305 15.7209 0.742305C15.7209 0.742305 15.7209 0.742305 15.7209 0.742305C15.7209 0.742305 15.7209 0.742305 15.7209 0.742305C15.7209 0.742305 15.7209 0.742306 15.7209 0.742306C15.7209 0.742307 15.7209 0.742309 15.7209 0.742311C15.7209 0.742316 15.7209 0.742323 15.7209 0.742333C15.7209 0.742351 15.7209 0.742379 15.721 0.742415C15.7211 0.742486 15.7212 0.74259 15.7213 0.742718C15.7215 0.742975 15.7219 0.743331 15.7223 0.743727C15.7231 0.744524 15.7241 0.745459 15.7247 0.74607L16.0769 0.391152L16.429 0.0362329C16.4284 0.0355705 16.4274 0.0345942 16.4266 0.0337984C16.4262 0.0333973 16.4258 0.0330366 16.4255 0.0327761C16.4254 0.0326458 16.4253 0.0325404 16.4252 0.0324676C16.4252 0.0324311 16.4252 0.0324028 16.4252 0.0323835C16.4251 0.0323738 16.4251 0.0323665 16.4251 0.0323614C16.4251 0.0323589 16.4251 0.032357 16.4251 0.0323557C16.4251 0.032355 16.4251 0.0323546 16.4251 0.0323542C16.4251 0.032354 16.4251 0.0323539 16.4251 0.0323538C16.4251 0.0323538 16.4251 0.0323537 16.4251 0.0323537C16.4251 0.0323536 16.4251 0.0323536 16.073 0.387329ZM16.0769 0.391152L15.8546 0.839054C15.8559 0.839688 15.8572 0.840322 15.8585 0.84096C15.8598 0.841596 15.861 0.842236 15.8623 0.842876L16.0846 0.394974L16.3068 -0.0529278C16.3055 -0.0535618 16.3042 -0.0541963 16.3029 -0.0548338C16.3017 -0.0554705 16.3004 -0.0561102 16.2991 -0.0567504L16.0769 0.391152ZM16.0846 0.394974L16.3604 -0.0220431L16.3489 -0.0296883L16.073 0.387329L15.7971 0.804347L15.8087 0.811992L16.0846 0.394974Z" fill="#1648A0" mask="url(#path-4-inside-2_157_55)"/>
<path d="M13.7457 0.25293L14.7574 0.267578C14.9018 0.270815 15.0531 0.304059 15.2223 0.351562C15.3696 0.392944 15.5577 0.452628 15.7281 0.496094C15.7959 0.529777 15.8629 0.563707 15.9303 0.597656C15.9624 0.629216 15.9934 0.661067 16.0309 0.698242L16.0885 0.754883L16.1686 0.767578C16.1878 0.770555 16.207 0.773341 16.2262 0.776367C17.0433 1.41217 17.419 2.61157 17.1051 3.6748C16.8524 4.53074 15.9304 5.24557 14.859 5.35449C14.3162 5.37977 13.7737 5.4057 13.2311 5.43066C12.6849 5.45579 12.1381 5.4804 11.5914 5.50586L11.3531 5.51758V5.75781C11.3538 6.37482 11.2746 6.7362 11.1149 6.96875C10.965 7.18684 10.7128 7.33467 10.2448 7.44043H6.06018C6.09853 6.99938 6.13544 6.57252 6.17249 6.14648C6.21726 5.65338 6.44566 5.30065 6.83655 5.12207L7.01428 5.05566C7.35574 4.95485 7.59269 4.78219 7.73499 4.53418C7.87092 4.29716 7.90244 4.02197 7.90588 3.75781C7.90853 3.53865 7.89556 3.29768 7.89221 3.0957C7.88869 2.88281 7.89456 2.68607 7.92932 2.50098C8.10243 1.58632 8.58904 0.904433 9.45471 0.521484C9.48235 0.515485 9.51008 0.509906 9.53772 0.503906L9.53967 0.508789C9.63954 0.486623 9.73908 0.464524 9.8385 0.442383C9.93816 0.42019 10.0384 0.398144 10.1383 0.375977L10.1373 0.375C10.2425 0.353347 10.3644 0.319927 10.4489 0.299805C10.4977 0.288176 10.5426 0.27803 10.5846 0.271484L10.7037 0.261719C11.7197 0.253881 12.7333 0.244629 13.7457 0.25293ZM15.7281 0.405273L15.6959 0.479492C15.6848 0.473637 15.6625 0.461514 15.6403 0.439453L15.7448 0.332031L15.7281 0.405273Z" stroke="#1648A0" stroke-width="0.5"/>
<path d="M5.11914 9.81909C6.39512 9.80086 7.67273 9.80118 8.94922 9.81812C8.9548 9.8197 8.97728 9.82827 9.0293 9.86108C9.06059 9.88084 9.08879 9.90063 9.12891 9.92749C9.13906 9.93429 9.15088 9.93974 9.16211 9.94702C9.2327 10.1795 9.30304 10.4132 9.37402 10.6453L9.37598 10.6511C9.39854 10.719 9.42167 10.7871 9.44434 10.8542C9.46302 10.9096 9.48168 10.9645 9.5 11.0193C9.50235 11.0915 9.5043 11.1642 9.50684 11.2361C9.50979 11.3199 9.51301 11.4032 9.51562 11.4861L9.5166 11.5027L9.51855 11.5183C9.69167 12.5857 9.87848 13.6388 10.0293 14.7019C10.2079 15.9631 10.3521 17.2251 10.5342 18.6599L10.585 19.0564L10.9189 18.8376C12.1731 18.0166 13.3783 17.2261 14.583 16.4373C14.5845 16.4371 14.5864 16.4374 14.5879 16.4373C14.6092 16.435 14.6287 16.4331 14.6475 16.4314L14.7373 16.4226L14.8008 16.3601C14.8216 16.3394 14.8433 16.3187 14.8662 16.2966C14.8797 16.2837 14.893 16.2695 14.9072 16.2556C14.9387 16.2399 14.9709 16.2253 15.002 16.2097C15.045 16.1882 15.0879 16.1666 15.1309 16.1453L15.167 16.1277L15.1953 16.0984C15.237 16.057 15.2804 16.0156 15.3252 15.9724L15.417 15.8835L15.5742 16.2605L15.7549 16.0398C15.7656 16.04 15.7763 16.0396 15.7871 16.0398C15.8219 16.112 15.8546 16.1827 15.877 16.2312C15.9009 16.2833 15.9188 16.3281 15.9307 16.3669L15.9492 16.4695C15.9793 17.4186 15.9655 18.3653 15.9668 19.325V19.7507L16.3389 19.5427C16.6274 19.3812 17.0027 19.2099 17.3105 18.988H17.3115C18.3112 18.267 19.2868 17.5352 20.2764 16.8191L21.2715 16.1091C21.3674 16.042 21.4958 15.9983 21.6631 15.9587C21.7671 15.9342 21.906 15.9048 22.04 15.8738C22.0481 15.8833 22.0564 15.8926 22.0645 15.9021L21.9805 15.9861L22.2129 16.1013C22.2484 16.1841 22.2864 16.2689 22.3096 16.323C22.3507 16.419 22.3681 16.4827 22.3682 16.532V16.533C22.3734 18.8921 22.3765 21.2516 22.376 23.6111L22.3643 30.6882C22.3638 30.7779 22.3399 30.8777 22.2979 31.0017C22.269 31.0868 22.2254 31.204 22.1885 31.3162L22.0889 31.4158C22.0478 31.4577 22.0045 31.4995 21.9609 31.5427C21.899 31.5693 21.837 31.5962 21.7754 31.6228C21.7004 31.6551 21.6254 31.6865 21.5508 31.7185C17.239 31.7276 12.9282 31.7416 8.61719 31.7429C6.11695 31.7442 3.61895 31.7267 1.11816 31.7175C1.02252 31.6833 0.927236 31.649 0.832031 31.615C0.740522 31.5823 0.649112 31.5491 0.557617 31.5164C0.548948 31.5075 0.540277 31.4982 0.53125 31.489L0.452148 31.4099C0.414309 31.3755 0.376705 31.3408 0.338867 31.3064C0.30964 31.2552 0.280618 31.2047 0.251953 31.1541C0.250961 31.0115 0.250225 30.8701 0.25 30.7283C0.280161 30.6772 0.310117 30.6262 0.338867 30.5769C0.375593 30.5429 0.413402 30.5086 0.452148 30.4734L0.458008 30.4685L0.462891 30.4636C0.485122 30.4409 0.507135 30.4177 0.529297 30.3953C0.739194 30.3783 0.949839 30.3623 1.16016 30.3455C1.40101 30.3262 1.64204 30.3064 1.88281 30.2869L2.07715 30.2712L2.10938 30.0789C2.24065 29.2908 2.39827 28.4836 2.50293 27.6765C2.59314 26.988 2.62196 26.2814 2.67578 25.6091C2.6876 25.4984 2.69911 25.3876 2.71094 25.2771C2.72214 25.1724 2.73293 25.0677 2.74414 24.9626C2.75868 24.8814 2.77266 24.7987 2.78711 24.7166L2.78906 24.7097L2.79004 24.7029L3.05176 22.4939V22.4929C3.16431 21.5047 3.27399 20.5171 3.38574 19.53L3.73047 16.5701C3.84743 15.6031 3.96886 14.6363 4.09375 13.6697L4.47461 10.7693C4.50416 10.5401 4.5658 10.3298 4.62793 10.0779C4.63461 10.0738 4.64182 10.0702 4.64844 10.0662C4.68393 10.0443 4.71839 10.0227 4.75293 10.0017L4.80469 9.96948C4.87501 9.93112 4.94911 9.89063 4.9873 9.86987C5.06334 9.82857 5.10045 9.81952 5.11914 9.81909ZM16.6875 22.7917C16.6212 22.8582 16.5549 22.9252 16.4883 22.9919C16.4215 23.0588 16.3545 23.1265 16.2881 23.1931L16.2021 23.2791L16.2168 23.4001C16.2188 23.4157 16.2176 23.426 16.2158 23.4333L16.208 23.4636V26.4246L16.2285 26.4724C16.2817 26.5972 16.3341 26.7233 16.3867 26.8513L16.418 26.9285L16.4893 26.9714C16.572 27.021 16.6555 27.0703 16.7383 27.1199L16.7969 27.155H17.5303L17.4961 27.3806C17.5358 27.3868 17.576 27.3907 17.6162 27.3953C17.6958 27.4044 17.7781 27.412 17.8613 27.4158L17.8721 27.1667L17.873 27.155H18.7305L18.7725 27.3484C18.8276 27.3365 18.8826 27.3229 18.9365 27.3074C19.0703 27.269 19.196 27.2152 19.3057 27.1492C19.317 27.1483 19.3291 27.1481 19.3408 27.1472C19.3718 27.145 19.4046 27.1431 19.4375 27.1404L19.6064 27.1257L19.6562 26.9636C19.6644 26.9366 19.6739 26.9109 19.6826 26.8855L20.0059 26.655H19.7637C19.7677 26.6436 19.7722 26.632 19.7764 26.6199C19.7945 26.5671 19.8117 26.5102 19.8271 26.4509H20.0801C20.0794 25.9214 20.0654 25.3914 20.0469 24.863L19.9863 23.283L19.9824 23.1726L19.8975 23.1013L19.5234 22.7859L19.4541 22.7283L19.3633 22.7273C18.9473 22.726 18.5313 22.725 18.1152 22.7234C17.6989 22.7218 17.2817 22.7198 16.8652 22.7185H16.7617L16.6875 22.7917ZM7.48438 22.7029C7.2011 22.7549 6.91632 22.8063 6.63086 22.8572L6.53027 22.8748L6.4707 22.9578C6.43691 23.0051 6.40359 23.0531 6.37012 23.1003C6.33655 23.1477 6.30278 23.1944 6.26953 23.241L6.21289 23.3201L6.22363 23.4119L6.20508 23.4539L6.20605 23.5085C6.21658 24.5227 6.22712 25.5383 6.23633 26.5535L6.23828 26.7312L6.40527 26.7878C6.56996 26.844 6.70908 26.9068 6.89551 26.9773C7.0676 27.0424 7.25881 27.1044 7.46191 27.1248V27.1257C8.0566 27.1859 8.67512 27.1556 9.23926 27.1619H9.28125L9.32031 27.1492C9.32938 27.1462 9.33824 27.1448 9.34668 27.1453L9.46191 27.1531L9.54199 27.071C9.6714 26.9387 9.79926 26.8063 9.92676 26.6746L10.0986 26.4968L9.99414 26.3933C9.99922 25.3858 10.0057 24.3784 10.0107 23.3708V23.3035L9.97754 23.2458C9.95452 23.2054 9.93122 23.1642 9.9082 23.1238C9.88528 23.0835 9.86276 23.043 9.83984 23.0027L9.77441 22.8884L9.64355 22.8777L8.59668 22.7888C8.24802 22.7591 7.89925 22.7293 7.55078 22.7L7.51758 22.697L7.48438 22.7029ZM12.6279 22.7273L12.1338 22.74C11.851 22.7482 11.6143 22.8484 11.4512 23.0398C11.293 23.2254 11.2293 23.4668 11.2246 23.7126V23.7136C11.2101 24.5177 11.2088 25.3235 11.2246 26.1296C11.2301 26.4192 11.3152 26.6789 11.5078 26.866C11.6997 27.0523 11.9631 27.1324 12.2559 27.1355C12.8077 27.1419 13.4052 27.1768 13.9863 27.1189L13.9854 27.1179C14.1683 27.0997 14.3257 27.0094 14.4443 26.9314C14.5048 26.8916 14.5668 26.8469 14.6191 26.8103C14.6744 26.7716 14.7239 26.7394 14.7705 26.7126L14.8955 26.6404V26.4968C14.9008 25.4576 14.9052 24.4167 14.9092 23.3777L14.8906 23.3767L14.9336 23.3494L14.8809 23.2615L14.8545 23.2087L14.8037 23.1726L14.6875 23.0789C14.6463 23.0428 14.5948 22.9956 14.5449 22.9548C14.4518 22.8786 14.3057 22.7711 14.125 22.7576V22.7566C13.6252 22.7196 13.1239 22.7179 12.6279 22.7273Z" stroke="#1648A0" stroke-width="0.5"/>
<mask id="path-8-inside-3_157_55" fill="white">
<path d="M9.37488 0.282904C9.41697 0.273767 9.45906 0.26463 9.50116 0.255493C9.45643 0.254188 9.41434 0.263325 9.37488 0.282904Z"/>
</mask>
<path d="M9.37488 0.282904L9.15265 -0.164998L9.48094 0.771526L9.37488 0.282904ZM9.50116 0.255493L9.60722 0.744115L9.51574 -0.244294L9.50116 0.255493ZM9.37488 0.282904L9.48094 0.771526C9.50199 0.766957 9.52303 0.762389 9.54408 0.75782C9.56513 0.753252 9.58617 0.748683 9.60722 0.744115L9.50116 0.255493L9.3951 -0.233128C9.37405 -0.228559 9.353 -0.223991 9.33196 -0.219423C9.31091 -0.214854 9.28986 -0.210286 9.26882 -0.205717L9.37488 0.282904ZM9.50116 0.255493L9.51574 -0.244294C9.39036 -0.247953 9.26679 -0.221628 9.15265 -0.164998L9.37488 0.282904L9.5971 0.730806C9.56189 0.748278 9.52251 0.756329 9.48657 0.755281L9.50116 0.255493Z" fill="#1648A0" mask="url(#path-8-inside-3_157_55)"/>
</svg>
