<svg width="32" height="32" viewBox="0 0 32 32" fill="none" xmlns="http://www.w3.org/2000/svg">
<path d="M18.3091 0.25C22.7047 0.221677 26.2678 3.78461 26.3716 7.99219L26.3706 8.40039V8.41309C26.4701 13.0426 22.5422 16.4151 18.2837 16.501H18.2437C13.8631 16.5669 10.0982 12.9533 10.1177 8.35059C10.1385 3.57452 13.9861 0.278467 18.3091 0.25ZM18.0132 2.46289C17.9775 2.47745 17.9411 2.49199 17.9038 2.50684C17.8669 2.52152 17.8286 2.53623 17.7905 2.55176L17.6519 2.6084L17.6362 2.75684C17.6206 2.90532 17.605 3.05464 17.5894 3.20312C17.5789 3.30212 17.5676 3.40101 17.5571 3.5C17.385 3.57074 17.1953 3.64785 17.021 3.73438C16.5028 3.99154 16.059 4.31835 15.7476 4.75098C15.4335 5.18727 15.2653 5.71558 15.2749 6.35254C15.2839 6.9671 15.4471 7.48939 15.7563 7.91797C16.0643 8.34467 16.505 8.66281 17.0425 8.89258C17.2579 8.98505 17.4787 9.05892 17.6919 9.12793C17.9081 9.19792 18.1144 9.26145 18.3159 9.33691V9.33789C18.6513 9.46387 18.939 9.54966 19.1743 9.71191C19.651 10.0419 19.6751 10.6869 19.2437 11.0703L19.1519 11.1426C18.8791 11.3342 18.4693 11.4187 18.0718 11.3691C17.6721 11.3193 17.3446 11.143 17.1899 10.8857C16.9902 10.5536 16.746 10.3792 16.4663 10.3018C16.2985 10.2553 16.122 10.2483 15.9556 10.249V10.2432L15.6997 10.249C15.4796 10.2544 15.2585 10.3209 15.1392 10.5186C15.0261 10.7059 15.0595 10.9253 15.1216 11.1016C15.4496 12.0289 16.0608 12.7721 17.0815 13.0293C17.3175 13.0884 17.4247 13.1495 17.4751 13.21C17.5047 13.2456 17.5332 13.3047 17.5317 13.4248L17.519 13.5674C17.4959 13.719 17.4997 13.8617 17.5444 13.9893C17.5911 14.1226 17.6764 14.2215 17.7827 14.2891C17.9736 14.4104 18.2273 14.4243 18.4194 14.4297C18.6707 14.4367 18.9133 14.3819 19.0649 14.1904C19.2122 14.0043 19.2135 13.7628 19.1733 13.5479V13.5469C19.1363 13.3503 19.1738 13.2728 19.2114 13.2285C19.2656 13.1649 19.374 13.1042 19.5894 13.0312C20.5171 12.7158 21.1132 12.1197 21.3813 11.3936C21.6141 10.7632 21.5923 10.0564 21.3569 9.38281L21.2437 9.09668L21.1743 8.95605C20.8119 8.27367 20.1652 7.89751 19.4858 7.66895C18.9094 7.47562 18.3852 7.35075 17.8589 7.13672H17.8579C17.3816 6.94329 17.1805 6.54083 17.2524 6.125C17.3137 5.77291 17.6699 5.4315 18.1421 5.40039C18.2914 5.39078 18.4479 5.40394 18.6177 5.4248C18.7543 5.4416 18.9164 5.46397 19.0708 5.48145C19.1064 5.51013 19.1422 5.53864 19.1772 5.56738C19.2119 5.60031 19.2468 5.63324 19.2808 5.66504C19.3079 5.69042 19.3345 5.71537 19.3608 5.74023C19.4211 5.83895 19.4807 5.93785 19.5405 6.03711C19.55 6.09011 19.5726 6.14161 19.6108 6.1875L19.6851 6.27734H19.8022C20.0184 6.2779 20.235 6.27944 20.4517 6.28027C20.6683 6.28111 20.8855 6.28167 21.1021 6.28223L21.3354 6.2832L21.3521 6.0498C21.3548 6.01201 21.3578 5.97433 21.3608 5.93555C21.3639 5.89691 21.3668 5.8566 21.3696 5.81641L21.3726 5.77246L21.3608 5.73047C21.3296 5.62012 21.2984 5.50976 21.2671 5.39941L21.2642 5.39062L21.2612 5.38281C21.2483 5.34672 21.2353 5.31024 21.2222 5.27246C21.2091 5.23496 21.196 5.19586 21.1821 5.15723L21.1724 5.13086L21.1577 5.1084L21.0864 4.99414C21.0624 4.95599 21.0385 4.91725 21.0142 4.87891H21.0132L20.9116 4.68066L20.9009 4.65918L20.8862 4.64062L20.8442 4.58691C20.8301 4.56864 20.8147 4.54879 20.7993 4.5293H20.8003L20.7915 4.52051L20.6538 4.36328L20.6411 4.34961L20.6274 4.33789L20.2778 4.0498L20.2554 4.03125L20.228 4.01758C20.1856 3.99693 20.1434 3.97558 20.1001 3.9541C20.0569 3.93268 20.0119 3.91135 19.9673 3.88965L19.9614 3.88672L19.479 3.66895C19.3466 3.60933 19.2147 3.54895 19.0825 3.48926C19.0723 3.45821 19.0621 3.41899 19.0542 3.36816C19.0438 3.30105 19.0295 3.15714 19.0093 3.05859C18.9857 2.9438 18.9426 2.80643 18.8403 2.6875C18.7339 2.56394 18.5855 2.48458 18.3979 2.44824L18.3745 2.44434H18.0591L18.0132 2.46289Z" stroke="white" stroke-width="0.5"/>
<mask id="path-2-inside-1_157_24" fill="white">
<path d="M31.9934 27.2417C31.9934 27.2417 31.9934 27.246 31.9934 27.2482L31.9945 27.2385C31.9945 27.2396 31.9945 27.2407 31.9934 27.2417Z"/>
</mask>
<path d="M31.9934 27.2417L31.6402 26.8878L31.4934 27.0343V27.2417H31.9934ZM31.9934 27.2482H31.4934L32.4904 27.3034L31.9934 27.2482ZM31.9945 27.2385H32.4945L31.4975 27.1833L31.9945 27.2385ZM31.9934 27.2417C31.4934 27.2417 31.4934 27.2417 31.4934 27.2417C31.4934 27.2417 31.4934 27.2417 31.4934 27.2417C31.4934 27.2417 31.4934 27.2417 31.4934 27.2417C31.4934 27.2417 31.4934 27.2417 31.4934 27.2417C31.4934 27.2417 31.4934 27.2417 31.4934 27.2417C31.4934 27.2417 31.4934 27.2417 31.4934 27.2417C31.4934 27.2417 31.4934 27.2417 31.4934 27.2417C31.4934 27.2417 31.4934 27.2417 31.4934 27.2417C31.4934 27.2417 31.4934 27.2418 31.4934 27.2418C31.4934 27.2418 31.4934 27.2418 31.4934 27.2418C31.4934 27.2418 31.4934 27.2418 31.4934 27.2418C31.4934 27.2418 31.4934 27.2418 31.4934 27.2418C31.4934 27.2418 31.4934 27.2418 31.4934 27.2418C31.4934 27.2418 31.4934 27.2418 31.4934 27.2418C31.4934 27.2418 31.4934 27.2418 31.4934 27.2418C31.4934 27.2418 31.4934 27.2418 31.4934 27.2418C31.4934 27.2418 31.4934 27.2418 31.4934 27.2418C31.4934 27.2418 31.4934 27.2418 31.4934 27.2418C31.4934 27.2418 31.4934 27.2418 31.4934 27.2418C31.4934 27.2418 31.4934 27.2418 31.4934 27.2418C31.4934 27.2418 31.4934 27.2418 31.4934 27.2418C31.4934 27.2418 31.4934 27.2418 31.4934 27.2418C31.4934 27.2418 31.4934 27.2418 31.4934 27.2418C31.4934 27.2418 31.4934 27.2418 31.4934 27.2418C31.4934 27.2418 31.4934 27.2418 31.4934 27.2418C31.4934 27.2418 31.4934 27.2418 31.4934 27.2418C31.4934 27.2418 31.4934 27.2418 31.4934 27.2418C31.4934 27.2418 31.4934 27.2418 31.4934 27.2418C31.4934 27.2418 31.4934 27.2418 31.4934 27.2418C31.4934 27.2418 31.4934 27.2418 31.4934 27.2418C31.4934 27.2418 31.4934 27.2418 31.4934 27.2418C31.4934 27.2418 31.4934 27.2418 31.4934 27.2418C31.4934 27.2418 31.4934 27.2418 31.4934 27.2418C31.4934 27.2418 31.4934 27.2418 31.4934 27.2418C31.4934 27.2418 31.4934 27.2418 31.4934 27.2418C31.4934 27.2418 31.4934 27.2418 31.4934 27.2418C31.4934 27.2418 31.4934 27.2418 31.4934 27.2418C31.4934 27.2418 31.4934 27.2418 31.4934 27.2418C31.4934 27.2418 31.4934 27.2418 31.4934 27.2418C31.4934 27.2418 31.4934 27.2418 31.4934 27.2418C31.4934 27.2418 31.4934 27.2418 31.4934 27.2418C31.4934 27.2418 31.4934 27.2418 31.4934 27.2418C31.4934 27.2418 31.4934 27.2418 31.4934 27.2418C31.4934 27.2418 31.4934 27.2418 31.4934 27.2418C31.4934 27.2418 31.4934 27.2418 31.4934 27.2418C31.4934 27.2418 31.4934 27.2418 31.4934 27.2418C31.4934 27.2418 31.4934 27.2418 31.4934 27.2418C31.4934 27.2419 31.4934 27.2419 31.4934 27.2419C31.4934 27.2419 31.4934 27.2419 31.4934 27.2419C31.4934 27.2419 31.4934 27.2419 31.4934 27.2419C31.4934 27.2419 31.4934 27.2419 31.4934 27.2419C31.4934 27.2419 31.4934 27.2419 31.4934 27.2419C31.4934 27.2419 31.4934 27.2419 31.4934 27.2419C31.4934 27.2419 31.4934 27.2419 31.4934 27.2419C31.4934 27.2419 31.4934 27.2419 31.4934 27.2419C31.4934 27.2419 31.4934 27.2419 31.4934 27.2419C31.4934 27.2419 31.4934 27.2419 31.4934 27.2419C31.4934 27.2419 31.4934 27.2419 31.4934 27.2419C31.4934 27.2419 31.4934 27.2419 31.4934 27.2419C31.4934 27.2419 31.4934 27.2419 31.4934 27.2419C31.4934 27.2419 31.4934 27.2419 31.4934 27.2419C31.4934 27.2419 31.4934 27.2419 31.4934 27.2419C31.4934 27.2419 31.4934 27.2419 31.4934 27.2419C31.4934 27.2419 31.4934 27.2419 31.4934 27.2419C31.4934 27.2419 31.4934 27.2419 31.4934 27.2419C31.4934 27.2419 31.4934 27.2419 31.4934 27.2419C31.4934 27.2419 31.4934 27.242 31.4934 27.242C31.4934 27.242 31.4934 27.242 31.4934 27.242C31.4934 27.242 31.4934 27.242 31.4934 27.242C31.4934 27.242 31.4934 27.242 31.4934 27.242C31.4934 27.242 31.4934 27.242 31.4934 27.242C31.4934 27.242 31.4934 27.242 31.4934 27.242C31.4934 27.242 31.4934 27.242 31.4934 27.242C31.4934 27.242 31.4934 27.242 31.4934 27.242C31.4934 27.242 31.4934 27.242 31.4934 27.242C31.4934 27.242 31.4934 27.242 31.4934 27.242C31.4934 27.242 31.4934 27.242 31.4934 27.242C31.4934 27.242 31.4934 27.242 31.4934 27.242C31.4934 27.242 31.4934 27.242 31.4934 27.242C31.4934 27.242 31.4934 27.242 31.4934 27.242C31.4934 27.242 31.4934 27.242 31.4934 27.242C31.4934 27.242 31.4934 27.242 31.4934 27.2421C31.4934 27.2421 31.4934 27.2421 31.4934 27.2421C31.4934 27.2421 31.4934 27.2421 31.4934 27.2421C31.4934 27.2421 31.4934 27.2421 31.4934 27.2421C31.4934 27.2421 31.4934 27.2421 31.4934 27.2421C31.4934 27.2421 31.4934 27.2421 31.4934 27.2421C31.4934 27.2421 31.4934 27.2421 31.4934 27.2421C31.4934 27.2421 31.4934 27.2421 31.4934 27.2421C31.4934 27.2421 31.4934 27.2421 31.4934 27.2421C31.4934 27.2421 31.4934 27.2421 31.4934 27.2421C31.4934 27.2421 31.4934 27.2421 31.4934 27.2421C31.4934 27.2421 31.4934 27.2421 31.4934 27.2421C31.4934 27.2421 31.4934 27.2421 31.4934 27.2421C31.4934 27.2421 31.4934 27.2421 31.4934 27.2421C31.4934 27.2422 31.4934 27.2422 31.4934 27.2422C31.4934 27.2422 31.4934 27.2422 31.4934 27.2422C31.4934 27.2422 31.4934 27.2422 31.4934 27.2422C31.4934 27.2422 31.4934 27.2422 31.4934 27.2422C31.4934 27.2422 31.4934 27.2422 31.4934 27.2422C31.4934 27.2422 31.4934 27.2422 31.4934 27.2422C31.4934 27.2422 31.4934 27.2422 31.4934 27.2422C31.4934 27.2422 31.4934 27.2422 31.4934 27.2422C31.4934 27.2422 31.4934 27.2422 31.4934 27.2422C31.4934 27.2422 31.4934 27.2422 31.4934 27.2422C31.4934 27.2422 31.4934 27.2422 31.4934 27.2422C31.4934 27.2422 31.4934 27.2422 31.4934 27.2423C31.4934 27.2423 31.4934 27.2423 31.4934 27.2423C31.4934 27.2423 31.4934 27.2423 31.4934 27.2423C31.4934 27.2423 31.4934 27.2423 31.4934 27.2423C31.4934 27.2423 31.4934 27.2423 31.4934 27.2423C31.4934 27.2423 31.4934 27.2423 31.4934 27.2423C31.4934 27.2423 31.4934 27.2423 31.4934 27.2423C31.4934 27.2423 31.4934 27.2423 31.4934 27.2423C31.4934 27.2423 31.4934 27.2423 31.4934 27.2423C31.4934 27.2423 31.4934 27.2423 31.4934 27.2423C31.4934 27.2423 31.4934 27.2423 31.4934 27.2423C31.4934 27.2423 31.4934 27.2423 31.4934 27.2424C31.4934 27.2424 31.4934 27.2424 31.4934 27.2424C31.4934 27.2424 31.4934 27.2424 31.4934 27.2424C31.4934 27.2424 31.4934 27.2424 31.4934 27.2424C31.4934 27.2424 31.4934 27.2424 31.4934 27.2424C31.4934 27.2424 31.4934 27.2424 31.4934 27.2424C31.4934 27.2424 31.4934 27.2424 31.4934 27.2424C31.4934 27.2424 31.4934 27.2424 31.4934 27.2424C31.4934 27.2424 31.4934 27.2424 31.4934 27.2424C31.4934 27.2424 31.4934 27.2424 31.4934 27.2424C31.4934 27.2424 31.4934 27.2424 31.4934 27.2425C31.4934 27.2425 31.4934 27.2425 31.4934 27.2425C31.4934 27.2425 31.4934 27.2425 31.4934 27.2425C31.4934 27.2425 31.4934 27.2425 31.4934 27.2425C31.4934 27.2425 31.4934 27.2425 31.4934 27.2425C31.4934 27.2425 31.4934 27.2425 31.4934 27.2425C31.4934 27.2425 31.4934 27.2425 31.4934 27.2425C31.4934 27.2425 31.4934 27.2425 31.4934 27.2425C31.4934 27.2425 31.4934 27.2425 31.4934 27.2425C31.4934 27.2425 31.4934 27.2425 31.4934 27.2425C31.4934 27.2425 31.4934 27.2426 31.4934 27.2426C31.4934 27.2426 31.4934 27.2426 31.4934 27.2426C31.4934 27.2426 31.4934 27.2426 31.4934 27.2426C31.4934 27.2426 31.4934 27.2426 31.4934 27.2426C31.4934 27.2426 31.4934 27.2426 31.4934 27.2426C31.4934 27.2426 31.4934 27.2426 31.4934 27.2426C31.4934 27.2426 31.4934 27.2426 31.4934 27.2426C31.4934 27.2426 31.4934 27.2426 31.4934 27.2426C31.4934 27.2426 31.4934 27.2426 31.4934 27.2426C31.4934 27.2426 31.4934 27.2427 31.4934 27.2427C31.4934 27.2427 31.4934 27.2427 31.4934 27.2427C31.4934 27.2427 31.4934 27.2427 31.4934 27.2427C31.4934 27.2427 31.4934 27.2427 31.4934 27.2427C31.4934 27.2427 31.4934 27.2427 31.4934 27.2427C31.4934 27.2427 31.4934 27.2427 31.4934 27.2427C31.4934 27.2427 31.4934 27.2427 31.4934 27.2427C31.4934 27.2427 31.4934 27.2427 31.4934 27.2427C31.4934 27.2427 31.4934 27.2427 31.4934 27.2427C31.4934 27.2428 31.4934 27.2428 31.4934 27.2428C31.4934 27.2428 31.4934 27.2428 31.4934 27.2428C31.4934 27.2428 31.4934 27.2428 31.4934 27.2428C31.4934 27.2428 31.4934 27.2428 31.4934 27.2428C31.4934 27.2428 31.4934 27.2428 31.4934 27.2428C31.4934 27.2428 31.4934 27.2428 31.4934 27.2428C31.4934 27.2428 31.4934 27.2428 31.4934 27.2428C31.4934 27.2428 31.4934 27.2428 31.4934 27.2428C31.4934 27.2428 31.4934 27.2429 31.4934 27.2429C31.4934 27.2429 31.4934 27.2429 31.4934 27.2429C31.4934 27.2429 31.4934 27.2429 31.4934 27.2429C31.4934 27.2429 31.4934 27.2429 31.4934 27.2429C31.4934 27.2429 31.4934 27.2429 31.4934 27.2429C31.4934 27.2429 31.4934 27.2429 31.4934 27.2429C31.4934 27.2429 31.4934 27.2429 31.4934 27.2429C31.4934 27.2429 31.4934 27.2429 31.4934 27.2429C31.4934 27.2429 31.4934 27.243 31.4934 27.243C31.4934 27.243 31.4934 27.243 31.4934 27.243C31.4934 27.243 31.4934 27.243 31.4934 27.243C31.4934 27.243 31.4934 27.243 31.4934 27.243C31.4934 27.243 31.4934 27.243 31.4934 27.243C31.4934 27.243 31.4934 27.243 31.4934 27.243C31.4934 27.243 31.4934 27.243 31.4934 27.243C31.4934 27.243 31.4934 27.243 31.4934 27.243C31.4934 27.2431 31.4934 27.2431 31.4934 27.2431C31.4934 27.2431 31.4934 27.2431 31.4934 27.2431C31.4934 27.2431 31.4934 27.2431 31.4934 27.2431C31.4934 27.2431 31.4934 27.2431 31.4934 27.2431C31.4934 27.2431 31.4934 27.2431 31.4934 27.2431C31.4934 27.2431 31.4934 27.2431 31.4934 27.2431C31.4934 27.2431 31.4934 27.2431 31.4934 27.2431C31.4934 27.2431 31.4934 27.2431 31.4934 27.2432C31.4934 27.2432 31.4934 27.2432 31.4934 27.2432C31.4934 27.2432 31.4934 27.2432 31.4934 27.2432C31.4934 27.2432 31.4934 27.2432 31.4934 27.2432C31.4934 27.2432 31.4934 27.2432 31.4934 27.2432C31.4934 27.2432 31.4934 27.2432 31.4934 27.2432C31.4934 27.2432 31.4934 27.2432 31.4934 27.2432C31.4934 27.2432 31.4934 27.2432 31.4934 27.2432C31.4934 27.2433 31.4934 27.2433 31.4934 27.2433C31.4934 27.2433 31.4934 27.2433 31.4934 27.2433C31.4934 27.2433 31.4934 27.2433 31.4934 27.2433C31.4934 27.2433 31.4934 27.2433 31.4934 27.2433C31.4934 27.2433 31.4934 27.2433 31.4934 27.2433C31.4934 27.2433 31.4934 27.2433 31.4934 27.2433C31.4934 27.2433 31.4934 27.2433 31.4934 27.2433C31.4934 27.2433 31.4934 27.2434 31.4934 27.2434C31.4934 27.2434 31.4934 27.2434 31.4934 27.2434C31.4934 27.2434 31.4934 27.2434 31.4934 27.2434C31.4934 27.2434 31.4934 27.2434 31.4934 27.2434C31.4934 27.2434 31.4934 27.2434 31.4934 27.2434C31.4934 27.2434 31.4934 27.2434 31.4934 27.2434C31.4934 27.2434 31.4934 27.2434 31.4934 27.2434C31.4934 27.2434 31.4934 27.2435 31.4934 27.2435C31.4934 27.2435 31.4934 27.2435 31.4934 27.2435C31.4934 27.2435 31.4934 27.2435 31.4934 27.2435C31.4934 27.2435 31.4934 27.2435 31.4934 27.2435C31.4934 27.2435 31.4934 27.2435 31.4934 27.2435C31.4934 27.2435 31.4934 27.2435 31.4934 27.2435C31.4934 27.2435 31.4934 27.2435 31.4934 27.2435C31.4934 27.2435 31.4934 27.2436 31.4934 27.2436C31.4934 27.2436 31.4934 27.2436 31.4934 27.2436C31.4934 27.2436 31.4934 27.2436 31.4934 27.2436C31.4934 27.2436 31.4934 27.2436 31.4934 27.2436C31.4934 27.2436 31.4934 27.2436 31.4934 27.2436C31.4934 27.2436 31.4934 27.2436 31.4934 27.2436C31.4934 27.2436 31.4934 27.2436 31.4934 27.2436C31.4934 27.2436 31.4934 27.2437 31.4934 27.2437C31.4934 27.2437 31.4934 27.2437 31.4934 27.2437C31.4934 27.2437 31.4934 27.2437 31.4934 27.2437C31.4934 27.2437 31.4934 27.2437 31.4934 27.2437C31.4934 27.2437 31.4934 27.2437 31.4934 27.2437C31.4934 27.2437 31.4934 27.2437 31.4934 27.2437C31.4934 27.2437 31.4934 27.2437 31.4934 27.2437C31.4934 27.2438 31.4934 27.2438 31.4934 27.2438C31.4934 27.2438 31.4934 27.2438 31.4934 27.2438C31.4934 27.2438 31.4934 27.2438 31.4934 27.2438C31.4934 27.2438 31.4934 27.2438 31.4934 27.2438C31.4934 27.2438 31.4934 27.2438 31.4934 27.2438C31.4934 27.2438 31.4934 27.2438 31.4934 27.2438C31.4934 27.2438 31.4934 27.2438 31.4934 27.2439C31.4934 27.2439 31.4934 27.2439 31.4934 27.2439C31.4934 27.2439 31.4934 27.2439 31.4934 27.2439C31.4934 27.2439 31.4934 27.2439 31.4934 27.2439C31.4934 27.2439 31.4934 27.2439 31.4934 27.2439C31.4934 27.2439 31.4934 27.2439 31.4934 27.2439C31.4934 27.2439 31.4934 27.2439 31.4934 27.2439C31.4934 27.244 31.4934 27.244 31.4934 27.244C31.4934 27.244 31.4934 27.244 31.4934 27.244C31.4934 27.244 31.4934 27.244 31.4934 27.244C31.4934 27.244 31.4934 27.244 31.4934 27.244C31.4934 27.244 31.4934 27.244 31.4934 27.244C31.4934 27.244 31.4934 27.244 31.4934 27.244C31.4934 27.244 31.4934 27.244 31.4934 27.2441C31.4934 27.2441 31.4934 27.2441 31.4934 27.2441C31.4934 27.2441 31.4934 27.2441 31.4934 27.2441C31.4934 27.2441 31.4934 27.2441 31.4934 27.2441C31.4934 27.2441 31.4934 27.2441 31.4934 27.2441C31.4934 27.2441 31.4934 27.2441 31.4934 27.2441C31.4934 27.2441 31.4934 27.2441 31.4934 27.2441C31.4934 27.2442 31.4934 27.2442 31.4934 27.2442C31.4934 27.2442 31.4934 27.2442 31.4934 27.2442C31.4934 27.2442 31.4934 27.2442 31.4934 27.2442C31.4934 27.2442 31.4934 27.2442 31.4934 27.2442C31.4934 27.2442 31.4934 27.2442 31.4934 27.2442C31.4934 27.2442 31.4934 27.2442 31.4934 27.2442C31.4934 27.2442 31.4934 27.2443 31.4934 27.2443C31.4934 27.2443 31.4934 27.2443 31.4934 27.2443C31.4934 27.2443 31.4934 27.2443 31.4934 27.2443C31.4934 27.2443 31.4934 27.2443 31.4934 27.2443C31.4934 27.2443 31.4934 27.2443 31.4934 27.2443C31.4934 27.2443 31.4934 27.2443 31.4934 27.2443C31.4934 27.2443 31.4934 27.2443 31.4934 27.2444C31.4934 27.2444 31.4934 27.2444 31.4934 27.2444C31.4934 27.2444 31.4934 27.2444 31.4934 27.2444C31.4934 27.2444 31.4934 27.2444 31.4934 27.2444C31.4934 27.2444 31.4934 27.2444 31.4934 27.2444C31.4934 27.2444 31.4934 27.2444 31.4934 27.2444C31.4934 27.2444 31.4934 27.2444 31.4934 27.2444C31.4934 27.2445 31.4934 27.2445 31.4934 27.2445C31.4934 27.2445 31.4934 27.2445 31.4934 27.2445C31.4934 27.2445 31.4934 27.2445 31.4934 27.2445C31.4934 27.2445 31.4934 27.2445 31.4934 27.2445C31.4934 27.2445 31.4934 27.2445 31.4934 27.2445C31.4934 27.2445 31.4934 27.2445 31.4934 27.2445C31.4934 27.2446 31.4934 27.2446 31.4934 27.2446C31.4934 27.2446 31.4934 27.2446 31.4934 27.2446C31.4934 27.2446 31.4934 27.2446 31.4934 27.2446C31.4934 27.2446 31.4934 27.2446 31.4934 27.2446C31.4934 27.2446 31.4934 27.2446 31.4934 27.2446C31.4934 27.2446 31.4934 27.2446 31.4934 27.2446C31.4934 27.2447 31.4934 27.2447 31.4934 27.2447C31.4934 27.2447 31.4934 27.2447 31.4934 27.2447C31.4934 27.2447 31.4934 27.2447 31.4934 27.2447C31.4934 27.2447 31.4934 27.2447 31.4934 27.2447C31.4934 27.2447 31.4934 27.2447 31.4934 27.2447C31.4934 27.2447 31.4934 27.2447 31.4934 27.2447C31.4934 27.2447 31.4934 27.2448 31.4934 27.2448C31.4934 27.2448 31.4934 27.2448 31.4934 27.2448C31.4934 27.2448 31.4934 27.2448 31.4934 27.2448C31.4934 27.2448 31.4934 27.2448 31.4934 27.2448C31.4934 27.2448 31.4934 27.2448 31.4934 27.2448C31.4934 27.2448 31.4934 27.2448 31.4934 27.2448C31.4934 27.2448 31.4934 27.2449 31.4934 27.2449C31.4934 27.2449 31.4934 27.2449 31.4934 27.2449C31.4934 27.2449 31.4934 27.2449 31.4934 27.2449C31.4934 27.2449 31.4934 27.2449 31.4934 27.2449C31.4934 27.2449 31.4934 27.2449 31.4934 27.2449C31.4934 27.2449 31.4934 27.2449 31.4934 27.2449C31.4934 27.2449 31.4934 27.245 31.4934 27.245C31.4934 27.245 31.4934 27.245 31.4934 27.245C31.4934 27.245 31.4934 27.245 31.4934 27.245C31.4934 27.245 31.4934 27.245 31.4934 27.245C31.4934 27.245 31.4934 27.245 31.4934 27.245C31.4934 27.245 31.4934 27.245 31.4934 27.245C31.4934 27.245 31.4934 27.2451 31.4934 27.2451C31.4934 27.2451 31.4934 27.2451 31.4934 27.2451C31.4934 27.2451 31.4934 27.2451 31.4934 27.2451C31.4934 27.2451 31.4934 27.2451 31.4934 27.2451C31.4934 27.2451 31.4934 27.2451 31.4934 27.2451C31.4934 27.2451 31.4934 27.2451 31.4934 27.2451C31.4934 27.2451 31.4934 27.2452 31.4934 27.2452C31.4934 27.2452 31.4934 27.2452 31.4934 27.2452C31.4934 27.2452 31.4934 27.2452 31.4934 27.2452C31.4934 27.2452 31.4934 27.2452 31.4934 27.2452C31.4934 27.2452 31.4934 27.2452 31.4934 27.2452C31.4934 27.2452 31.4934 27.2452 31.4934 27.2452C31.4934 27.2452 31.4934 27.2453 31.4934 27.2453C31.4934 27.2453 31.4934 27.2453 31.4934 27.2453C31.4934 27.2453 31.4934 27.2453 31.4934 27.2453C31.4934 27.2453 31.4934 27.2453 31.4934 27.2453C31.4934 27.2453 31.4934 27.2453 31.4934 27.2453C31.4934 27.2453 31.4934 27.2453 31.4934 27.2453C31.4934 27.2453 31.4934 27.2454 31.4934 27.2454C31.4934 27.2454 31.4934 27.2454 31.4934 27.2454C31.4934 27.2454 31.4934 27.2454 31.4934 27.2454C31.4934 27.2454 31.4934 27.2454 31.4934 27.2454C31.4934 27.2454 31.4934 27.2454 31.4934 27.2454C31.4934 27.2454 31.4934 27.2454 31.4934 27.2454C31.4934 27.2454 31.4934 27.2455 31.4934 27.2455C31.4934 27.2455 31.4934 27.2455 31.4934 27.2455C31.4934 27.2455 31.4934 27.2455 31.4934 27.2455C31.4934 27.2455 31.4934 27.2455 31.4934 27.2455C31.4934 27.2455 31.4934 27.2455 31.4934 27.2455C31.4934 27.2455 31.4934 27.2455 31.4934 27.2455C31.4934 27.2455 31.4934 27.2456 31.4934 27.2456C31.4934 27.2456 31.4934 27.2456 31.4934 27.2456C31.4934 27.2456 31.4934 27.2456 31.4934 27.2456C31.4934 27.2456 31.4934 27.2456 31.4934 27.2456C31.4934 27.2456 31.4934 27.2456 31.4934 27.2456C31.4934 27.2456 31.4934 27.2456 31.4934 27.2456C31.4934 27.2456 31.4934 27.2457 31.4934 27.2457C31.4934 27.2457 31.4934 27.2457 31.4934 27.2457C31.4934 27.2457 31.4934 27.2457 31.4934 27.2457C31.4934 27.2457 31.4934 27.2457 31.4934 27.2457C31.4934 27.2457 31.4934 27.2457 31.4934 27.2457C31.4934 27.2457 31.4934 27.2457 31.4934 27.2457C31.4934 27.2457 31.4934 27.2458 31.4934 27.2458C31.4934 27.2458 31.4934 27.2458 31.4934 27.2458C31.4934 27.2458 31.4934 27.2458 31.4934 27.2458C31.4934 27.2458 31.4934 27.2458 31.4934 27.2458C31.4934 27.2458 31.4934 27.2458 31.4934 27.2458C31.4934 27.2458 31.4934 27.2458 31.4934 27.2458C31.4934 27.2459 31.4934 27.2459 31.4934 27.2459C31.4934 27.2459 31.4934 27.2459 31.4934 27.2459C31.4934 27.2459 31.4934 27.2459 31.4934 27.2459C31.4934 27.2459 31.4934 27.2459 31.4934 27.2459C31.4934 27.2459 31.4934 27.2459 31.4934 27.2459C31.4934 27.2459 31.4934 27.2459 31.4934 27.2459C31.4934 27.246 31.4934 27.246 31.4934 27.246C31.4934 27.246 31.4934 27.246 31.4934 27.246C31.4934 27.246 31.4934 27.246 31.4934 27.246C31.4934 27.246 31.4934 27.246 31.4934 27.246C31.4934 27.246 31.4934 27.246 31.4934 27.246C31.4934 27.246 31.4934 27.246 31.4934 27.246C31.4934 27.2461 31.4934 27.2461 31.4934 27.2461C31.4934 27.2461 31.4934 27.2461 31.4934 27.2461C31.4934 27.2461 31.4934 27.2461 31.4934 27.2461C31.4934 27.2461 31.4934 27.2461 31.4934 27.2461C31.4934 27.2461 31.4934 27.2461 31.4934 27.2461C31.4934 27.2461 31.4934 27.2461 31.4934 27.2461C31.4934 27.2462 31.4934 27.2462 31.4934 27.2462C31.4934 27.2462 31.4934 27.2462 31.4934 27.2462C31.4934 27.2462 31.4934 27.2462 31.4934 27.2462C31.4934 27.2462 31.4934 27.2462 31.4934 27.2462C31.4934 27.2462 31.4934 27.2462 31.4934 27.2462C31.4934 27.2462 31.4934 27.2462 31.4934 27.2462C31.4934 27.2462 31.4934 27.2463 31.4934 27.2463C31.4934 27.2463 31.4934 27.2463 31.4934 27.2463C31.4934 27.2463 31.4934 27.2463 31.4934 27.2463C31.4934 27.2463 31.4934 27.2463 31.4934 27.2463C31.4934 27.2463 31.4934 27.2463 31.4934 27.2463C31.4934 27.2463 31.4934 27.2463 31.4934 27.2463C31.4934 27.2463 31.4934 27.2464 31.4934 27.2464C31.4934 27.2464 31.4934 27.2464 31.4934 27.2464C31.4934 27.2464 31.4934 27.2464 31.4934 27.2464C31.4934 27.2464 31.4934 27.2464 31.4934 27.2464C31.4934 27.2464 31.4934 27.2464 31.4934 27.2464C31.4934 27.2464 31.4934 27.2464 31.4934 27.2464C31.4934 27.2464 31.4934 27.2465 31.4934 27.2465C31.4934 27.2465 31.4934 27.2465 31.4934 27.2465C31.4934 27.2465 31.4934 27.2465 31.4934 27.2465C31.4934 27.2465 31.4934 27.2465 31.4934 27.2465C31.4934 27.2465 31.4934 27.2465 31.4934 27.2465C31.4934 27.2465 31.4934 27.2465 31.4934 27.2465C31.4934 27.2465 31.4934 27.2466 31.4934 27.2466C31.4934 27.2466 31.4934 27.2466 31.4934 27.2466C31.4934 27.2466 31.4934 27.2466 31.4934 27.2466C31.4934 27.2466 31.4934 27.2466 31.4934 27.2466C31.4934 27.2466 31.4934 27.2466 31.4934 27.2466C31.4934 27.2466 31.4934 27.2466 31.4934 27.2466C31.4934 27.2466 31.4934 27.2466 31.4934 27.2467C31.4934 27.2467 31.4934 27.2467 31.4934 27.2467C31.4934 27.2467 31.4934 27.2467 31.4934 27.2467C31.4934 27.2467 31.4934 27.2467 31.4934 27.2467C31.4934 27.2467 31.4934 27.2467 31.4934 27.2467C31.4934 27.2467 31.4934 27.2467 31.4934 27.2467C31.4934 27.2467 31.4934 27.2467 31.4934 27.2467C31.4934 27.2468 31.4934 27.2468 31.4934 27.2468C31.4934 27.2468 31.4934 27.2468 31.4934 27.2468C31.4934 27.2468 31.4934 27.2468 31.4934 27.2468C31.4934 27.2468 31.4934 27.2468 31.4934 27.2468C31.4934 27.2468 31.4934 27.2468 31.4934 27.2468C31.4934 27.2468 31.4934 27.2468 31.4934 27.2468C31.4934 27.2469 31.4934 27.2469 31.4934 27.2469C31.4934 27.2469 31.4934 27.2469 31.4934 27.2469C31.4934 27.2469 31.4934 27.2469 31.4934 27.2469C31.4934 27.2469 31.4934 27.2469 31.4934 27.2469C31.4934 27.2469 31.4934 27.2469 31.4934 27.2469C31.4934 27.2469 31.4934 27.2469 31.4934 27.2469C31.4934 27.2469 31.4934 27.247 31.4934 27.247C31.4934 27.247 31.4934 27.247 31.4934 27.247C31.4934 27.247 31.4934 27.247 31.4934 27.247C31.4934 27.247 31.4934 27.247 31.4934 27.247C31.4934 27.247 31.4934 27.247 31.4934 27.247C31.4934 27.247 31.4934 27.247 31.4934 27.247C31.4934 27.247 31.4934 27.247 31.4934 27.2471C31.4934 27.2471 31.4934 27.2471 31.4934 27.2471C31.4934 27.2471 31.4934 27.2471 31.4934 27.2471C31.4934 27.2471 31.4934 27.2471 31.4934 27.2471C31.4934 27.2471 31.4934 27.2471 31.4934 27.2471C31.4934 27.2471 31.4934 27.2471 31.4934 27.2471C31.4934 27.2471 31.4934 27.2471 31.4934 27.2471C31.4934 27.2471 31.4934 27.2472 31.4934 27.2472C31.4934 27.2472 31.4934 27.2472 31.4934 27.2472C31.4934 27.2472 31.4934 27.2472 31.4934 27.2472C31.4934 27.2472 31.4934 27.2472 31.4934 27.2472C31.4934 27.2472 31.4934 27.2472 31.4934 27.2472C31.4934 27.2472 31.4934 27.2472 31.4934 27.2472C31.4934 27.2472 31.4934 27.2472 31.4934 27.2473C31.4934 27.2473 31.4934 27.2473 31.4934 27.2473C31.4934 27.2473 31.4934 27.2473 31.4934 27.2473C31.4934 27.2473 31.4934 27.2473 31.4934 27.2473C31.4934 27.2473 31.4934 27.2473 31.4934 27.2473C31.4934 27.2473 31.4934 27.2473 31.4934 27.2473C31.4934 27.2473 31.4934 27.2473 31.4934 27.2473C31.4934 27.2473 31.4934 27.2474 31.4934 27.2474C31.4934 27.2474 31.4934 27.2474 31.4934 27.2474C31.4934 27.2474 31.4934 27.2474 31.4934 27.2474C31.4934 27.2474 31.4934 27.2474 31.4934 27.2474C31.4934 27.2474 31.4934 27.2474 31.4934 27.2474C31.4934 27.2474 31.4934 27.2474 31.4934 27.2474C31.4934 27.2474 31.4934 27.2474 31.4934 27.2474C31.4934 27.2475 31.4934 27.2475 31.4934 27.2475C31.4934 27.2475 31.4934 27.2475 31.4934 27.2475C31.4934 27.2475 31.4934 27.2475 31.4934 27.2475C31.4934 27.2475 31.4934 27.2475 31.4934 27.2475C31.4934 27.2475 31.4934 27.2475 31.4934 27.2475C31.4934 27.2475 31.4934 27.2475 31.4934 27.2475C31.4934 27.2475 31.4934 27.2475 31.4934 27.2475C31.4934 27.2476 31.4934 27.2476 31.4934 27.2476C31.4934 27.2476 31.4934 27.2476 31.4934 27.2476C31.4934 27.2476 31.4934 27.2476 31.4934 27.2476C31.4934 27.2476 31.4934 27.2476 31.4934 27.2476C31.4934 27.2476 31.4934 27.2476 31.4934 27.2476C31.4934 27.2476 31.4934 27.2476 31.4934 27.2476C31.4934 27.2476 31.4934 27.2476 31.4934 27.2477C31.4934 27.2477 31.4934 27.2477 31.4934 27.2477C31.4934 27.2477 31.4934 27.2477 31.4934 27.2477C31.4934 27.2477 31.4934 27.2477 31.4934 27.2477C31.4934 27.2477 31.4934 27.2477 31.4934 27.2477C31.4934 27.2477 31.4934 27.2477 31.4934 27.2477C31.4934 27.2477 31.4934 27.2477 31.4934 27.2477C31.4934 27.2477 31.4934 27.2477 31.4934 27.2477C31.4934 27.2478 31.4934 27.2478 31.4934 27.2478C31.4934 27.2478 31.4934 27.2478 31.4934 27.2478C31.4934 27.2478 31.4934 27.2478 31.4934 27.2478C31.4934 27.2478 31.4934 27.2478 31.4934 27.2478C31.4934 27.2478 31.4934 27.2478 31.4934 27.2478C31.4934 27.2478 31.4934 27.2478 31.4934 27.2478C31.4934 27.2478 31.4934 27.2478 31.4934 27.2478C31.4934 27.2479 31.4934 27.2479 31.4934 27.2479C31.4934 27.2479 31.4934 27.2479 31.4934 27.2479C31.4934 27.2479 31.4934 27.2479 31.4934 27.2479C31.4934 27.2479 31.4934 27.2479 31.4934 27.2479C31.4934 27.2479 31.4934 27.2479 31.4934 27.2479C31.4934 27.2479 31.4934 27.2479 31.4934 27.2479C31.4934 27.2479 31.4934 27.2479 31.4934 27.2479C31.4934 27.2479 31.4934 27.248 31.4934 27.248C31.4934 27.248 31.4934 27.248 31.4934 27.248C31.4934 27.248 31.4934 27.248 31.4934 27.248C31.4934 27.248 31.4934 27.248 31.4934 27.248C31.4934 27.248 31.4934 27.248 31.4934 27.248C31.4934 27.248 31.4934 27.248 31.4934 27.248C31.4934 27.248 31.4934 27.248 31.4934 27.248C31.4934 27.248 31.4934 27.248 31.4934 27.248C31.4934 27.2481 31.4934 27.2481 31.4934 27.2481C31.4934 27.2481 31.4934 27.2481 31.4934 27.2481C31.4934 27.2481 31.4934 27.2481 31.4934 27.2481C31.4934 27.2481 31.4934 27.2481 31.4934 27.2481C31.4934 27.2481 31.4934 27.2481 31.4934 27.2481C31.4934 27.2481 31.4934 27.2481 31.4934 27.2481C31.4934 27.2481 31.4934 27.2481 31.4934 27.2481C31.4934 27.2481 31.4934 27.2481 31.4934 27.2482C31.4934 27.2482 31.4934 27.2482 31.4934 27.2482C31.4934 27.2482 31.4934 27.2482 31.4934 27.2482C31.4934 27.2482 31.4934 27.2482 31.4934 27.2482H31.9934H32.4934C32.4934 27.2482 32.4934 27.2482 32.4934 27.2482C32.4934 27.2482 32.4934 27.2482 32.4934 27.2482C32.4934 27.2482 32.4934 27.2482 32.4934 27.2482C32.4934 27.2481 32.4934 27.2481 32.4934 27.2481C32.4934 27.2481 32.4934 27.2481 32.4934 27.2481C32.4934 27.2481 32.4934 27.2481 32.4934 27.2481C32.4934 27.2481 32.4934 27.2481 32.4934 27.2481C32.4934 27.2481 32.4934 27.2481 32.4934 27.2481C32.4934 27.2481 32.4934 27.2481 32.4934 27.2481C32.4934 27.2481 32.4934 27.2481 32.4934 27.2481C32.4934 27.2481 32.4934 27.2481 32.4934 27.248C32.4934 27.248 32.4934 27.248 32.4934 27.248C32.4934 27.248 32.4934 27.248 32.4934 27.248C32.4934 27.248 32.4934 27.248 32.4934 27.248C32.4934 27.248 32.4934 27.248 32.4934 27.248C32.4934 27.248 32.4934 27.248 32.4934 27.248C32.4934 27.248 32.4934 27.248 32.4934 27.248C32.4934 27.248 32.4934 27.248 32.4934 27.248C32.4934 27.248 32.4934 27.2479 32.4934 27.2479C32.4934 27.2479 32.4934 27.2479 32.4934 27.2479C32.4934 27.2479 32.4934 27.2479 32.4934 27.2479C32.4934 27.2479 32.4934 27.2479 32.4934 27.2479C32.4934 27.2479 32.4934 27.2479 32.4934 27.2479C32.4934 27.2479 32.4934 27.2479 32.4934 27.2479C32.4934 27.2479 32.4934 27.2479 32.4934 27.2479C32.4934 27.2479 32.4934 27.2479 32.4934 27.2478C32.4934 27.2478 32.4934 27.2478 32.4934 27.2478C32.4934 27.2478 32.4934 27.2478 32.4934 27.2478C32.4934 27.2478 32.4934 27.2478 32.4934 27.2478C32.4934 27.2478 32.4934 27.2478 32.4934 27.2478C32.4934 27.2478 32.4934 27.2478 32.4934 27.2478C32.4934 27.2478 32.4934 27.2478 32.4934 27.2478C32.4934 27.2478 32.4934 27.2478 32.4934 27.2477C32.4934 27.2477 32.4934 27.2477 32.4934 27.2477C32.4934 27.2477 32.4934 27.2477 32.4934 27.2477C32.4934 27.2477 32.4934 27.2477 32.4934 27.2477C32.4934 27.2477 32.4934 27.2477 32.4934 27.2477C32.4934 27.2477 32.4934 27.2477 32.4934 27.2477C32.4934 27.2477 32.4934 27.2477 32.4934 27.2477C32.4934 27.2477 32.4934 27.2477 32.4934 27.2477C32.4934 27.2476 32.4934 27.2476 32.4934 27.2476C32.4934 27.2476 32.4934 27.2476 32.4934 27.2476C32.4934 27.2476 32.4934 27.2476 32.4934 27.2476C32.4934 27.2476 32.4934 27.2476 32.4934 27.2476C32.4934 27.2476 32.4934 27.2476 32.4934 27.2476C32.4934 27.2476 32.4934 27.2476 32.4934 27.2476C32.4934 27.2476 32.4934 27.2476 32.4934 27.2475C32.4934 27.2475 32.4934 27.2475 32.4934 27.2475C32.4934 27.2475 32.4934 27.2475 32.4934 27.2475C32.4934 27.2475 32.4934 27.2475 32.4934 27.2475C32.4934 27.2475 32.4934 27.2475 32.4934 27.2475C32.4934 27.2475 32.4934 27.2475 32.4934 27.2475C32.4934 27.2475 32.4934 27.2475 32.4934 27.2475C32.4934 27.2475 32.4934 27.2475 32.4934 27.2474C32.4934 27.2474 32.4934 27.2474 32.4934 27.2474C32.4934 27.2474 32.4934 27.2474 32.4934 27.2474C32.4934 27.2474 32.4934 27.2474 32.4934 27.2474C32.4934 27.2474 32.4934 27.2474 32.4934 27.2474C32.4934 27.2474 32.4934 27.2474 32.4934 27.2474C32.4934 27.2474 32.4934 27.2474 32.4934 27.2474C32.4934 27.2474 32.4934 27.2473 32.4934 27.2473C32.4934 27.2473 32.4934 27.2473 32.4934 27.2473C32.4934 27.2473 32.4934 27.2473 32.4934 27.2473C32.4934 27.2473 32.4934 27.2473 32.4934 27.2473C32.4934 27.2473 32.4934 27.2473 32.4934 27.2473C32.4934 27.2473 32.4934 27.2473 32.4934 27.2473C32.4934 27.2473 32.4934 27.2473 32.4934 27.2473C32.4934 27.2472 32.4934 27.2472 32.4934 27.2472C32.4934 27.2472 32.4934 27.2472 32.4934 27.2472C32.4934 27.2472 32.4934 27.2472 32.4934 27.2472C32.4934 27.2472 32.4934 27.2472 32.4934 27.2472C32.4934 27.2472 32.4934 27.2472 32.4934 27.2472C32.4934 27.2472 32.4934 27.2472 32.4934 27.2472C32.4934 27.2472 32.4934 27.2471 32.4934 27.2471C32.4934 27.2471 32.4934 27.2471 32.4934 27.2471C32.4934 27.2471 32.4934 27.2471 32.4934 27.2471C32.4934 27.2471 32.4934 27.2471 32.4934 27.2471C32.4934 27.2471 32.4934 27.2471 32.4934 27.2471C32.4934 27.2471 32.4934 27.2471 32.4934 27.2471C32.4934 27.2471 32.4934 27.2471 32.4934 27.2471C32.4934 27.247 32.4934 27.247 32.4934 27.247C32.4934 27.247 32.4934 27.247 32.4934 27.247C32.4934 27.247 32.4934 27.247 32.4934 27.247C32.4934 27.247 32.4934 27.247 32.4934 27.247C32.4934 27.247 32.4934 27.247 32.4934 27.247C32.4934 27.247 32.4934 27.247 32.4934 27.247C32.4934 27.247 32.4934 27.2469 32.4934 27.2469C32.4934 27.2469 32.4934 27.2469 32.4934 27.2469C32.4934 27.2469 32.4934 27.2469 32.4934 27.2469C32.4934 27.2469 32.4934 27.2469 32.4934 27.2469C32.4934 27.2469 32.4934 27.2469 32.4934 27.2469C32.4934 27.2469 32.4934 27.2469 32.4934 27.2469C32.4934 27.2469 32.4934 27.2469 32.4934 27.2468C32.4934 27.2468 32.4934 27.2468 32.4934 27.2468C32.4934 27.2468 32.4934 27.2468 32.4934 27.2468C32.4934 27.2468 32.4934 27.2468 32.4934 27.2468C32.4934 27.2468 32.4934 27.2468 32.4934 27.2468C32.4934 27.2468 32.4934 27.2468 32.4934 27.2468C32.4934 27.2468 32.4934 27.2468 32.4934 27.2467C32.4934 27.2467 32.4934 27.2467 32.4934 27.2467C32.4934 27.2467 32.4934 27.2467 32.4934 27.2467C32.4934 27.2467 32.4934 27.2467 32.4934 27.2467C32.4934 27.2467 32.4934 27.2467 32.4934 27.2467C32.4934 27.2467 32.4934 27.2467 32.4934 27.2467C32.4934 27.2467 32.4934 27.2467 32.4934 27.2467C32.4934 27.2466 32.4934 27.2466 32.4934 27.2466C32.4934 27.2466 32.4934 27.2466 32.4934 27.2466C32.4934 27.2466 32.4934 27.2466 32.4934 27.2466C32.4934 27.2466 32.4934 27.2466 32.4934 27.2466C32.4934 27.2466 32.4934 27.2466 32.4934 27.2466C32.4934 27.2466 32.4934 27.2466 32.4934 27.2466C32.4934 27.2466 32.4934 27.2465 32.4934 27.2465C32.4934 27.2465 32.4934 27.2465 32.4934 27.2465C32.4934 27.2465 32.4934 27.2465 32.4934 27.2465C32.4934 27.2465 32.4934 27.2465 32.4934 27.2465C32.4934 27.2465 32.4934 27.2465 32.4934 27.2465C32.4934 27.2465 32.4934 27.2465 32.4934 27.2465C32.4934 27.2465 32.4934 27.2464 32.4934 27.2464C32.4934 27.2464 32.4934 27.2464 32.4934 27.2464C32.4934 27.2464 32.4934 27.2464 32.4934 27.2464C32.4934 27.2464 32.4934 27.2464 32.4934 27.2464C32.4934 27.2464 32.4934 27.2464 32.4934 27.2464C32.4934 27.2464 32.4934 27.2464 32.4934 27.2464C32.4934 27.2464 32.4934 27.2463 32.4934 27.2463C32.4934 27.2463 32.4934 27.2463 32.4934 27.2463C32.4934 27.2463 32.4934 27.2463 32.4934 27.2463C32.4934 27.2463 32.4934 27.2463 32.4934 27.2463C32.4934 27.2463 32.4934 27.2463 32.4934 27.2463C32.4934 27.2463 32.4934 27.2463 32.4934 27.2463C32.4934 27.2463 32.4934 27.2462 32.4934 27.2462C32.4934 27.2462 32.4934 27.2462 32.4934 27.2462C32.4934 27.2462 32.4934 27.2462 32.4934 27.2462C32.4934 27.2462 32.4934 27.2462 32.4934 27.2462C32.4934 27.2462 32.4934 27.2462 32.4934 27.2462C32.4934 27.2462 32.4934 27.2462 32.4934 27.2462C32.4934 27.2462 32.4934 27.2462 32.4934 27.2461C32.4934 27.2461 32.4934 27.2461 32.4934 27.2461C32.4934 27.2461 32.4934 27.2461 32.4934 27.2461C32.4934 27.2461 32.4934 27.2461 32.4934 27.2461C32.4934 27.2461 32.4934 27.2461 32.4934 27.2461C32.4934 27.2461 32.4934 27.2461 32.4934 27.2461C32.4934 27.2461 32.4934 27.2461 32.4934 27.246C32.4934 27.246 32.4934 27.246 32.4934 27.246C32.4934 27.246 32.4934 27.246 32.4934 27.246C32.4934 27.246 32.4934 27.246 32.4934 27.246C32.4934 27.246 32.4934 27.246 32.4934 27.246C32.4934 27.246 32.4934 27.246 32.4934 27.246C32.4934 27.246 32.4934 27.246 32.4934 27.2459C32.4934 27.2459 32.4934 27.2459 32.4934 27.2459C32.4934 27.2459 32.4934 27.2459 32.4934 27.2459C32.4934 27.2459 32.4934 27.2459 32.4934 27.2459C32.4934 27.2459 32.4934 27.2459 32.4934 27.2459C32.4934 27.2459 32.4934 27.2459 32.4934 27.2459C32.4934 27.2459 32.4934 27.2459 32.4934 27.2458C32.4934 27.2458 32.4934 27.2458 32.4934 27.2458C32.4934 27.2458 32.4934 27.2458 32.4934 27.2458C32.4934 27.2458 32.4934 27.2458 32.4934 27.2458C32.4934 27.2458 32.4934 27.2458 32.4934 27.2458C32.4934 27.2458 32.4934 27.2458 32.4934 27.2458C32.4934 27.2458 32.4934 27.2457 32.4934 27.2457C32.4934 27.2457 32.4934 27.2457 32.4934 27.2457C32.4934 27.2457 32.4934 27.2457 32.4934 27.2457C32.4934 27.2457 32.4934 27.2457 32.4934 27.2457C32.4934 27.2457 32.4934 27.2457 32.4934 27.2457C32.4934 27.2457 32.4934 27.2457 32.4934 27.2457C32.4934 27.2457 32.4934 27.2456 32.4934 27.2456C32.4934 27.2456 32.4934 27.2456 32.4934 27.2456C32.4934 27.2456 32.4934 27.2456 32.4934 27.2456C32.4934 27.2456 32.4934 27.2456 32.4934 27.2456C32.4934 27.2456 32.4934 27.2456 32.4934 27.2456C32.4934 27.2456 32.4934 27.2456 32.4934 27.2456C32.4934 27.2456 32.4934 27.2455 32.4934 27.2455C32.4934 27.2455 32.4934 27.2455 32.4934 27.2455C32.4934 27.2455 32.4934 27.2455 32.4934 27.2455C32.4934 27.2455 32.4934 27.2455 32.4934 27.2455C32.4934 27.2455 32.4934 27.2455 32.4934 27.2455C32.4934 27.2455 32.4934 27.2455 32.4934 27.2455C32.4934 27.2455 32.4934 27.2454 32.4934 27.2454C32.4934 27.2454 32.4934 27.2454 32.4934 27.2454C32.4934 27.2454 32.4934 27.2454 32.4934 27.2454C32.4934 27.2454 32.4934 27.2454 32.4934 27.2454C32.4934 27.2454 32.4934 27.2454 32.4934 27.2454C32.4934 27.2454 32.4934 27.2454 32.4934 27.2454C32.4934 27.2454 32.4934 27.2453 32.4934 27.2453C32.4934 27.2453 32.4934 27.2453 32.4934 27.2453C32.4934 27.2453 32.4934 27.2453 32.4934 27.2453C32.4934 27.2453 32.4934 27.2453 32.4934 27.2453C32.4934 27.2453 32.4934 27.2453 32.4934 27.2453C32.4934 27.2453 32.4934 27.2453 32.4934 27.2453C32.4934 27.2453 32.4934 27.2452 32.4934 27.2452C32.4934 27.2452 32.4934 27.2452 32.4934 27.2452C32.4934 27.2452 32.4934 27.2452 32.4934 27.2452C32.4934 27.2452 32.4934 27.2452 32.4934 27.2452C32.4934 27.2452 32.4934 27.2452 32.4934 27.2452C32.4934 27.2452 32.4934 27.2452 32.4934 27.2452C32.4934 27.2452 32.4934 27.2451 32.4934 27.2451C32.4934 27.2451 32.4934 27.2451 32.4934 27.2451C32.4934 27.2451 32.4934 27.2451 32.4934 27.2451C32.4934 27.2451 32.4934 27.2451 32.4934 27.2451C32.4934 27.2451 32.4934 27.2451 32.4934 27.2451C32.4934 27.2451 32.4934 27.2451 32.4934 27.2451C32.4934 27.2451 32.4934 27.245 32.4934 27.245C32.4934 27.245 32.4934 27.245 32.4934 27.245C32.4934 27.245 32.4934 27.245 32.4934 27.245C32.4934 27.245 32.4934 27.245 32.4934 27.245C32.4934 27.245 32.4934 27.245 32.4934 27.245C32.4934 27.245 32.4934 27.245 32.4934 27.245C32.4934 27.245 32.4934 27.2449 32.4934 27.2449C32.4934 27.2449 32.4934 27.2449 32.4934 27.2449C32.4934 27.2449 32.4934 27.2449 32.4934 27.2449C32.4934 27.2449 32.4934 27.2449 32.4934 27.2449C32.4934 27.2449 32.4934 27.2449 32.4934 27.2449C32.4934 27.2449 32.4934 27.2449 32.4934 27.2449C32.4934 27.2449 32.4934 27.2448 32.4934 27.2448C32.4934 27.2448 32.4934 27.2448 32.4934 27.2448C32.4934 27.2448 32.4934 27.2448 32.4934 27.2448C32.4934 27.2448 32.4934 27.2448 32.4934 27.2448C32.4934 27.2448 32.4934 27.2448 32.4934 27.2448C32.4934 27.2448 32.4934 27.2448 32.4934 27.2448C32.4934 27.2448 32.4934 27.2447 32.4934 27.2447C32.4934 27.2447 32.4934 27.2447 32.4934 27.2447C32.4934 27.2447 32.4934 27.2447 32.4934 27.2447C32.4934 27.2447 32.4934 27.2447 32.4934 27.2447C32.4934 27.2447 32.4934 27.2447 32.4934 27.2447C32.4934 27.2447 32.4934 27.2447 32.4934 27.2447C32.4934 27.2447 32.4934 27.2447 32.4934 27.2446C32.4934 27.2446 32.4934 27.2446 32.4934 27.2446C32.4934 27.2446 32.4934 27.2446 32.4934 27.2446C32.4934 27.2446 32.4934 27.2446 32.4934 27.2446C32.4934 27.2446 32.4934 27.2446 32.4934 27.2446C32.4934 27.2446 32.4934 27.2446 32.4934 27.2446C32.4934 27.2446 32.4934 27.2446 32.4934 27.2445C32.4934 27.2445 32.4934 27.2445 32.4934 27.2445C32.4934 27.2445 32.4934 27.2445 32.4934 27.2445C32.4934 27.2445 32.4934 27.2445 32.4934 27.2445C32.4934 27.2445 32.4934 27.2445 32.4934 27.2445C32.4934 27.2445 32.4934 27.2445 32.4934 27.2445C32.4934 27.2445 32.4934 27.2445 32.4934 27.2444C32.4934 27.2444 32.4934 27.2444 32.4934 27.2444C32.4934 27.2444 32.4934 27.2444 32.4934 27.2444C32.4934 27.2444 32.4934 27.2444 32.4934 27.2444C32.4934 27.2444 32.4934 27.2444 32.4934 27.2444C32.4934 27.2444 32.4934 27.2444 32.4934 27.2444C32.4934 27.2444 32.4934 27.2444 32.4934 27.2444C32.4934 27.2443 32.4934 27.2443 32.4934 27.2443C32.4934 27.2443 32.4934 27.2443 32.4934 27.2443C32.4934 27.2443 32.4934 27.2443 32.4934 27.2443C32.4934 27.2443 32.4934 27.2443 32.4934 27.2443C32.4934 27.2443 32.4934 27.2443 32.4934 27.2443C32.4934 27.2443 32.4934 27.2443 32.4934 27.2443C32.4934 27.2443 32.4934 27.2442 32.4934 27.2442C32.4934 27.2442 32.4934 27.2442 32.4934 27.2442C32.4934 27.2442 32.4934 27.2442 32.4934 27.2442C32.4934 27.2442 32.4934 27.2442 32.4934 27.2442C32.4934 27.2442 32.4934 27.2442 32.4934 27.2442C32.4934 27.2442 32.4934 27.2442 32.4934 27.2442C32.4934 27.2442 32.4934 27.2442 32.4934 27.2441C32.4934 27.2441 32.4934 27.2441 32.4934 27.2441C32.4934 27.2441 32.4934 27.2441 32.4934 27.2441C32.4934 27.2441 32.4934 27.2441 32.4934 27.2441C32.4934 27.2441 32.4934 27.2441 32.4934 27.2441C32.4934 27.2441 32.4934 27.2441 32.4934 27.2441C32.4934 27.2441 32.4934 27.2441 32.4934 27.2441C32.4934 27.244 32.4934 27.244 32.4934 27.244C32.4934 27.244 32.4934 27.244 32.4934 27.244C32.4934 27.244 32.4934 27.244 32.4934 27.244C32.4934 27.244 32.4934 27.244 32.4934 27.244C32.4934 27.244 32.4934 27.244 32.4934 27.244C32.4934 27.244 32.4934 27.244 32.4934 27.244C32.4934 27.244 32.4934 27.244 32.4934 27.2439C32.4934 27.2439 32.4934 27.2439 32.4934 27.2439C32.4934 27.2439 32.4934 27.2439 32.4934 27.2439C32.4934 27.2439 32.4934 27.2439 32.4934 27.2439C32.4934 27.2439 32.4934 27.2439 32.4934 27.2439C32.4934 27.2439 32.4934 27.2439 32.4934 27.2439C32.4934 27.2439 32.4934 27.2439 32.4934 27.2439C32.4934 27.2438 32.4934 27.2438 32.4934 27.2438C32.4934 27.2438 32.4934 27.2438 32.4934 27.2438C32.4934 27.2438 32.4934 27.2438 32.4934 27.2438C32.4934 27.2438 32.4934 27.2438 32.4934 27.2438C32.4934 27.2438 32.4934 27.2438 32.4934 27.2438C32.4934 27.2438 32.4934 27.2438 32.4934 27.2438C32.4934 27.2438 32.4934 27.2438 32.4934 27.2437C32.4934 27.2437 32.4934 27.2437 32.4934 27.2437C32.4934 27.2437 32.4934 27.2437 32.4934 27.2437C32.4934 27.2437 32.4934 27.2437 32.4934 27.2437C32.4934 27.2437 32.4934 27.2437 32.4934 27.2437C32.4934 27.2437 32.4934 27.2437 32.4934 27.2437C32.4934 27.2437 32.4934 27.2437 32.4934 27.2437C32.4934 27.2437 32.4934 27.2436 32.4934 27.2436C32.4934 27.2436 32.4934 27.2436 32.4934 27.2436C32.4934 27.2436 32.4934 27.2436 32.4934 27.2436C32.4934 27.2436 32.4934 27.2436 32.4934 27.2436C32.4934 27.2436 32.4934 27.2436 32.4934 27.2436C32.4934 27.2436 32.4934 27.2436 32.4934 27.2436C32.4934 27.2436 32.4934 27.2436 32.4934 27.2436C32.4934 27.2436 32.4934 27.2435 32.4934 27.2435C32.4934 27.2435 32.4934 27.2435 32.4934 27.2435C32.4934 27.2435 32.4934 27.2435 32.4934 27.2435C32.4934 27.2435 32.4934 27.2435 32.4934 27.2435C32.4934 27.2435 32.4934 27.2435 32.4934 27.2435C32.4934 27.2435 32.4934 27.2435 32.4934 27.2435C32.4934 27.2435 32.4934 27.2435 32.4934 27.2435C32.4934 27.2435 32.4934 27.2434 32.4934 27.2434C32.4934 27.2434 32.4934 27.2434 32.4934 27.2434C32.4934 27.2434 32.4934 27.2434 32.4934 27.2434C32.4934 27.2434 32.4934 27.2434 32.4934 27.2434C32.4934 27.2434 32.4934 27.2434 32.4934 27.2434C32.4934 27.2434 32.4934 27.2434 32.4934 27.2434C32.4934 27.2434 32.4934 27.2434 32.4934 27.2434C32.4934 27.2434 32.4934 27.2433 32.4934 27.2433C32.4934 27.2433 32.4934 27.2433 32.4934 27.2433C32.4934 27.2433 32.4934 27.2433 32.4934 27.2433C32.4934 27.2433 32.4934 27.2433 32.4934 27.2433C32.4934 27.2433 32.4934 27.2433 32.4934 27.2433C32.4934 27.2433 32.4934 27.2433 32.4934 27.2433C32.4934 27.2433 32.4934 27.2433 32.4934 27.2433C32.4934 27.2433 32.4934 27.2433 32.4934 27.2432C32.4934 27.2432 32.4934 27.2432 32.4934 27.2432C32.4934 27.2432 32.4934 27.2432 32.4934 27.2432C32.4934 27.2432 32.4934 27.2432 32.4934 27.2432C32.4934 27.2432 32.4934 27.2432 32.4934 27.2432C32.4934 27.2432 32.4934 27.2432 32.4934 27.2432C32.4934 27.2432 32.4934 27.2432 32.4934 27.2432C32.4934 27.2432 32.4934 27.2432 32.4934 27.2432C32.4934 27.2431 32.4934 27.2431 32.4934 27.2431C32.4934 27.2431 32.4934 27.2431 32.4934 27.2431C32.4934 27.2431 32.4934 27.2431 32.4934 27.2431C32.4934 27.2431 32.4934 27.2431 32.4934 27.2431C32.4934 27.2431 32.4934 27.2431 32.4934 27.2431C32.4934 27.2431 32.4934 27.2431 32.4934 27.2431C32.4934 27.2431 32.4934 27.2431 32.4934 27.2431C32.4934 27.2431 32.4934 27.2431 32.4934 27.243C32.4934 27.243 32.4934 27.243 32.4934 27.243C32.4934 27.243 32.4934 27.243 32.4934 27.243C32.4934 27.243 32.4934 27.243 32.4934 27.243C32.4934 27.243 32.4934 27.243 32.4934 27.243C32.4934 27.243 32.4934 27.243 32.4934 27.243C32.4934 27.243 32.4934 27.243 32.4934 27.243C32.4934 27.243 32.4934 27.243 32.4934 27.243C32.4934 27.243 32.4934 27.2429 32.4934 27.2429C32.4934 27.2429 32.4934 27.2429 32.4934 27.2429C32.4934 27.2429 32.4934 27.2429 32.4934 27.2429C32.4934 27.2429 32.4934 27.2429 32.4934 27.2429C32.4934 27.2429 32.4934 27.2429 32.4934 27.2429C32.4934 27.2429 32.4934 27.2429 32.4934 27.2429C32.4934 27.2429 32.4934 27.2429 32.4934 27.2429C32.4934 27.2429 32.4934 27.2429 32.4934 27.2429C32.4934 27.2429 32.4934 27.2428 32.4934 27.2428C32.4934 27.2428 32.4934 27.2428 32.4934 27.2428C32.4934 27.2428 32.4934 27.2428 32.4934 27.2428C32.4934 27.2428 32.4934 27.2428 32.4934 27.2428C32.4934 27.2428 32.4934 27.2428 32.4934 27.2428C32.4934 27.2428 32.4934 27.2428 32.4934 27.2428C32.4934 27.2428 32.4934 27.2428 32.4934 27.2428C32.4934 27.2428 32.4934 27.2428 32.4934 27.2428C32.4934 27.2428 32.4934 27.2428 32.4934 27.2427C32.4934 27.2427 32.4934 27.2427 32.4934 27.2427C32.4934 27.2427 32.4934 27.2427 32.4934 27.2427C32.4934 27.2427 32.4934 27.2427 32.4934 27.2427C32.4934 27.2427 32.4934 27.2427 32.4934 27.2427C32.4934 27.2427 32.4934 27.2427 32.4934 27.2427C32.4934 27.2427 32.4934 27.2427 32.4934 27.2427C32.4934 27.2427 32.4934 27.2427 32.4934 27.2427C32.4934 27.2427 32.4934 27.2427 32.4934 27.2427C32.4934 27.2427 32.4934 27.2426 32.4934 27.2426C32.4934 27.2426 32.4934 27.2426 32.4934 27.2426C32.4934 27.2426 32.4934 27.2426 32.4934 27.2426C32.4934 27.2426 32.4934 27.2426 32.4934 27.2426C32.4934 27.2426 32.4934 27.2426 32.4934 27.2426C32.4934 27.2426 32.4934 27.2426 32.4934 27.2426C32.4934 27.2426 32.4934 27.2426 32.4934 27.2426C32.4934 27.2426 32.4934 27.2426 32.4934 27.2426C32.4934 27.2426 32.4934 27.2426 32.4934 27.2426C32.4934 27.2426 32.4934 27.2425 32.4934 27.2425C32.4934 27.2425 32.4934 27.2425 32.4934 27.2425C32.4934 27.2425 32.4934 27.2425 32.4934 27.2425C32.4934 27.2425 32.4934 27.2425 32.4934 27.2425C32.4934 27.2425 32.4934 27.2425 32.4934 27.2425C32.4934 27.2425 32.4934 27.2425 32.4934 27.2425C32.4934 27.2425 32.4934 27.2425 32.4934 27.2425C32.4934 27.2425 32.4934 27.2425 32.4934 27.2425C32.4934 27.2425 32.4934 27.2425 32.4934 27.2425C32.4934 27.2425 32.4934 27.2425 32.4934 27.2425C32.4934 27.2424 32.4934 27.2424 32.4934 27.2424C32.4934 27.2424 32.4934 27.2424 32.4934 27.2424C32.4934 27.2424 32.4934 27.2424 32.4934 27.2424C32.4934 27.2424 32.4934 27.2424 32.4934 27.2424C32.4934 27.2424 32.4934 27.2424 32.4934 27.2424C32.4934 27.2424 32.4934 27.2424 32.4934 27.2424C32.4934 27.2424 32.4934 27.2424 32.4934 27.2424C32.4934 27.2424 32.4934 27.2424 32.4934 27.2424C32.4934 27.2424 32.4934 27.2424 32.4934 27.2424C32.4934 27.2424 32.4934 27.2424 32.4934 27.2424C32.4934 27.2423 32.4934 27.2423 32.4934 27.2423C32.4934 27.2423 32.4934 27.2423 32.4934 27.2423C32.4934 27.2423 32.4934 27.2423 32.4934 27.2423C32.4934 27.2423 32.4934 27.2423 32.4934 27.2423C32.4934 27.2423 32.4934 27.2423 32.4934 27.2423C32.4934 27.2423 32.4934 27.2423 32.4934 27.2423C32.4934 27.2423 32.4934 27.2423 32.4934 27.2423C32.4934 27.2423 32.4934 27.2423 32.4934 27.2423C32.4934 27.2423 32.4934 27.2423 32.4934 27.2423C32.4934 27.2423 32.4934 27.2423 32.4934 27.2423C32.4934 27.2423 32.4934 27.2423 32.4934 27.2423C32.4934 27.2422 32.4934 27.2422 32.4934 27.2422C32.4934 27.2422 32.4934 27.2422 32.4934 27.2422C32.4934 27.2422 32.4934 27.2422 32.4934 27.2422C32.4934 27.2422 32.4934 27.2422 32.4934 27.2422C32.4934 27.2422 32.4934 27.2422 32.4934 27.2422C32.4934 27.2422 32.4934 27.2422 32.4934 27.2422C32.4934 27.2422 32.4934 27.2422 32.4934 27.2422C32.4934 27.2422 32.4934 27.2422 32.4934 27.2422C32.4934 27.2422 32.4934 27.2422 32.4934 27.2422C32.4934 27.2422 32.4934 27.2422 32.4934 27.2422C32.4934 27.2422 32.4934 27.2422 32.4934 27.2422C32.4934 27.2422 32.4934 27.2422 32.4934 27.2421C32.4934 27.2421 32.4934 27.2421 32.4934 27.2421C32.4934 27.2421 32.4934 27.2421 32.4934 27.2421C32.4934 27.2421 32.4934 27.2421 32.4934 27.2421C32.4934 27.2421 32.4934 27.2421 32.4934 27.2421C32.4934 27.2421 32.4934 27.2421 32.4934 27.2421C32.4934 27.2421 32.4934 27.2421 32.4934 27.2421C32.4934 27.2421 32.4934 27.2421 32.4934 27.2421C32.4934 27.2421 32.4934 27.2421 32.4934 27.2421C32.4934 27.2421 32.4934 27.2421 32.4934 27.2421C32.4934 27.2421 32.4934 27.2421 32.4934 27.2421C32.4934 27.2421 32.4934 27.2421 32.4934 27.2421C32.4934 27.2421 32.4934 27.2421 32.4934 27.2421C32.4934 27.2421 32.4934 27.2421 32.4934 27.2421C32.4934 27.242 32.4934 27.242 32.4934 27.242C32.4934 27.242 32.4934 27.242 32.4934 27.242C32.4934 27.242 32.4934 27.242 32.4934 27.242C32.4934 27.242 32.4934 27.242 32.4934 27.242C32.4934 27.242 32.4934 27.242 32.4934 27.242C32.4934 27.242 32.4934 27.242 32.4934 27.242C32.4934 27.242 32.4934 27.242 32.4934 27.242C32.4934 27.242 32.4934 27.242 32.4934 27.242C32.4934 27.242 32.4934 27.242 32.4934 27.242C32.4934 27.242 32.4934 27.242 32.4934 27.242C32.4934 27.242 32.4934 27.242 32.4934 27.242C32.4934 27.242 32.4934 27.242 32.4934 27.242C32.4934 27.242 32.4934 27.242 32.4934 27.242C32.4934 27.242 32.4934 27.242 32.4934 27.242C32.4934 27.242 32.4934 27.242 32.4934 27.242C32.4934 27.242 32.4934 27.2419 32.4934 27.2419C32.4934 27.2419 32.4934 27.2419 32.4934 27.2419C32.4934 27.2419 32.4934 27.2419 32.4934 27.2419C32.4934 27.2419 32.4934 27.2419 32.4934 27.2419C32.4934 27.2419 32.4934 27.2419 32.4934 27.2419C32.4934 27.2419 32.4934 27.2419 32.4934 27.2419C32.4934 27.2419 32.4934 27.2419 32.4934 27.2419C32.4934 27.2419 32.4934 27.2419 32.4934 27.2419C32.4934 27.2419 32.4934 27.2419 32.4934 27.2419C32.4934 27.2419 32.4934 27.2419 32.4934 27.2419C32.4934 27.2419 32.4934 27.2419 32.4934 27.2419C32.4934 27.2419 32.4934 27.2419 32.4934 27.2419C32.4934 27.2419 32.4934 27.2419 32.4934 27.2419C32.4934 27.2419 32.4934 27.2419 32.4934 27.2419C32.4934 27.2419 32.4934 27.2419 32.4934 27.2419C32.4934 27.2419 32.4934 27.2419 32.4934 27.2419C32.4934 27.2419 32.4934 27.2419 32.4934 27.2419C32.4934 27.2419 32.4934 27.2419 32.4934 27.2419C32.4934 27.2419 32.4934 27.2419 32.4934 27.2419C32.4934 27.2419 32.4934 27.2419 32.4934 27.2418C32.4934 27.2418 32.4934 27.2418 32.4934 27.2418C32.4934 27.2418 32.4934 27.2418 32.4934 27.2418C32.4934 27.2418 32.4934 27.2418 32.4934 27.2418C32.4934 27.2418 32.4934 27.2418 32.4934 27.2418C32.4934 27.2418 32.4934 27.2418 32.4934 27.2418C32.4934 27.2418 32.4934 27.2418 32.4934 27.2418C32.4934 27.2418 32.4934 27.2418 32.4934 27.2418C32.4934 27.2418 32.4934 27.2418 32.4934 27.2418C32.4934 27.2418 32.4934 27.2418 32.4934 27.2418C32.4934 27.2418 32.4934 27.2418 32.4934 27.2418C32.4934 27.2418 32.4934 27.2418 32.4934 27.2418C32.4934 27.2418 32.4934 27.2418 32.4934 27.2418C32.4934 27.2418 32.4934 27.2418 32.4934 27.2418C32.4934 27.2418 32.4934 27.2418 32.4934 27.2418C32.4934 27.2418 32.4934 27.2418 32.4934 27.2418C32.4934 27.2418 32.4934 27.2418 32.4934 27.2418C32.4934 27.2418 32.4934 27.2418 32.4934 27.2418C32.4934 27.2418 32.4934 27.2418 32.4934 27.2418C32.4934 27.2418 32.4934 27.2418 32.4934 27.2418C32.4934 27.2418 32.4934 27.2418 32.4934 27.2418C32.4934 27.2418 32.4934 27.2418 32.4934 27.2418C32.4934 27.2418 32.4934 27.2418 32.4934 27.2418C32.4934 27.2418 32.4934 27.2418 32.4934 27.2418C32.4934 27.2418 32.4934 27.2418 32.4934 27.2418C32.4934 27.2418 32.4934 27.2418 32.4934 27.2418C32.4934 27.2418 32.4934 27.2418 32.4934 27.2418C32.4934 27.2418 32.4934 27.2418 32.4934 27.2418C32.4934 27.2418 32.4934 27.2418 32.4934 27.2418C32.4934 27.2418 32.4934 27.2418 32.4934 27.2418C32.4934 27.2418 32.4934 27.2418 32.4934 27.2418C32.4934 27.2418 32.4934 27.2418 32.4934 27.2418C32.4934 27.2418 32.4934 27.2418 32.4934 27.2418C32.4934 27.2418 32.4934 27.2418 32.4934 27.2418C32.4934 27.2418 32.4934 27.2418 32.4934 27.2418C32.4934 27.2418 32.4934 27.2418 32.4934 27.2418C32.4934 27.2418 32.4934 27.2418 32.4934 27.2418C32.4934 27.2418 32.4934 27.2418 32.4934 27.2418C32.4934 27.2418 32.4934 27.2418 32.4934 27.2418C32.4934 27.2418 32.4934 27.2417 32.4934 27.2417C32.4934 27.2417 32.4934 27.2417 32.4934 27.2417C32.4934 27.2417 32.4934 27.2417 32.4934 27.2417C32.4934 27.2417 32.4934 27.2417 32.4934 27.2417C32.4934 27.2417 32.4934 27.2417 32.4934 27.2417C32.4934 27.2417 32.4934 27.2417 32.4934 27.2417C32.4934 27.2417 32.4934 27.2417 32.4934 27.2417C32.4934 27.2417 32.4934 27.2417 32.4934 27.2417C32.4934 27.2417 32.4934 27.2417 31.9934 27.2417ZM31.9934 27.2482L32.4904 27.3034L32.4914 27.2937L31.9945 27.2385L31.4975 27.1833L31.4965 27.193L31.9934 27.2482ZM31.9945 27.2385H31.4945C31.4945 27.2489 31.4921 27.1878 31.5092 27.1191C31.5306 27.0333 31.5751 26.9528 31.6402 26.8878L31.9934 27.2417L32.3466 27.5957C32.5038 27.4388 32.4945 27.2462 32.4945 27.2385H31.9945Z" fill="white" mask="url(#path-2-inside-1_157_24)"/>
<path d="M14.4502 27.7748H14.2002C10.3553 27.7681 6.51018 27.766 2.66602 27.7504C2.10822 27.7483 1.56179 27.6908 0.982422 27.6547C0.904559 27.5985 0.826894 27.5418 0.749023 27.4857C0.672561 27.4306 0.595728 27.3757 0.519531 27.3207C0.426311 27.0495 0.335712 26.8055 0.268555 26.5521C0.283622 26.5375 0.300332 26.5222 0.321289 26.5023L0.322266 26.5004C0.360658 26.5008 0.399513 26.5023 0.438477 26.5023H0.439453C3.2327 26.4945 6.02552 26.4861 8.81836 26.4828C12.4493 26.4783 16.0806 26.4808 19.7119 26.4808C23.6407 26.4808 27.5683 26.4806 31.4971 26.4828V26.4838C31.5803 26.4838 31.6606 26.488 31.7451 26.4945C31.7446 26.5802 31.7446 26.6658 31.7441 26.7513C31.7434 26.8956 31.7421 27.0399 31.7412 27.184C31.7181 27.2338 31.6948 27.2839 31.6709 27.3344C31.6461 27.3584 31.6215 27.3836 31.5967 27.4076C31.5705 27.4329 31.5437 27.4575 31.5176 27.4828C31.4897 27.4963 31.4626 27.5106 31.4355 27.5238C31.3976 27.5423 31.3602 27.5598 31.3232 27.5775C31.1865 27.6107 31.0401 27.6534 30.9268 27.683C30.7834 27.7203 30.6576 27.7445 30.54 27.7445H30.5391C26.4524 27.7568 22.3671 27.7504 18.2793 27.7504C18.178 27.7504 18.0626 27.7614 17.9863 27.766L17.751 27.7806V28.016C17.7521 28.76 17.7549 29.5032 17.7549 30.2465V30.4935L18.002 30.4965C18.7075 30.5044 19.3949 30.4966 20.0859 30.5287C20.1708 30.5327 20.2634 30.5556 20.375 30.5922C20.4629 30.6209 20.5868 30.6654 20.6992 30.6996C20.7346 30.7167 20.7705 30.7345 20.8066 30.7523C20.8354 30.7665 20.8651 30.78 20.8945 30.7943C20.9798 30.8839 21.0106 30.9631 21.0166 31.0345C21.0232 31.1141 21.0008 31.2118 20.9375 31.3353C20.9277 31.345 20.9184 31.3556 20.9082 31.3656C20.8896 31.3839 20.8698 31.403 20.8506 31.4222L20.8486 31.4252C20.815 31.4597 20.7792 31.4937 20.7432 31.5297C20.6878 31.5697 20.6325 31.6098 20.5771 31.6498C20.5555 31.6568 20.5357 31.6641 20.5156 31.6703C20.322 31.692 20.1674 31.7206 20.0117 31.7338L19.8467 31.7416C17.2761 31.7505 14.7045 31.7564 12.1348 31.7474H12.1338C12.0477 31.7474 11.9532 31.7284 11.8389 31.6957C11.7591 31.6728 11.643 31.6358 11.5371 31.6058L11.4609 31.5306C11.4437 31.5134 11.4264 31.4961 11.4092 31.4789C11.396 31.4657 11.3823 31.453 11.3691 31.4398H11.3701C11.3472 31.4134 11.3237 31.3873 11.3018 31.3627L11.2998 31.3607C11.301 31.2692 11.3027 31.1777 11.3037 31.0863C11.3047 30.9953 11.3045 30.9045 11.3057 30.8138C11.3207 30.7982 11.3371 30.7832 11.3525 30.767C11.3783 30.7405 11.4046 30.7139 11.4316 30.6869C11.5389 30.6559 11.6502 30.6213 11.7363 30.5961C11.798 30.578 11.8557 30.5632 11.9102 30.5521L12.0654 30.5316C12.7734 30.5006 13.4785 30.511 14.2021 30.5043L14.4502 30.5013V27.7748Z" stroke="white" stroke-width="0.5"/>
<path d="M22.634 20.0339C22.9336 21.6462 23.2348 23.2587 23.5344 24.8718C23.5122 24.8837 23.4922 24.8934 23.4788 24.9001C23.411 24.9339 23.3802 24.9402 23.3665 24.9402H23.3655C21.2086 24.9513 19.0525 24.9513 16.8967 24.9402H16.8948C16.8808 24.9401 16.8503 24.9329 16.7825 24.8992C16.763 24.8895 16.7317 24.8738 16.6965 24.8552C16.6971 23.9947 16.6977 23.1338 16.6985 22.2732C16.6993 21.408 16.6999 20.5427 16.7004 19.6775C18.645 19.6733 20.589 19.6736 22.5647 19.6736C22.5892 19.8004 22.6118 19.917 22.634 20.0339Z" stroke="white" stroke-width="0.5"/>
<path d="M27.4281 13.0771C27.6622 13.0084 27.9262 13.0226 28.2377 13.1621L28.3744 13.2295C28.4604 13.2759 28.5563 13.3668 28.6429 13.4902C28.7282 13.6118 28.7932 13.7491 28.8275 13.8701C29.1221 14.9118 29.3462 15.9686 29.601 17.0371L29.6029 17.0439C29.6839 17.3439 29.7639 17.6439 29.8549 17.9834H23.9594C23.9553 17.9349 23.9509 17.8839 23.9467 17.833L23.9447 17.8125L23.9398 17.793C23.8993 17.6312 23.8601 17.475 23.8226 17.3164V17.3154L23.765 17.0566C23.7513 16.9867 23.7423 16.9311 23.7386 16.8848C23.7319 16.7993 23.7435 16.7684 23.7533 16.75C23.7685 16.7214 23.8017 16.6818 23.8949 16.6016C23.9704 16.5366 24.1255 16.413 24.2767 16.2803C25.1478 15.5159 25.8941 14.6033 26.6039 13.7119C26.8792 13.3662 27.1523 13.1583 27.4281 13.0771Z" stroke="white" stroke-width="0.5"/>
<path d="M14.9938 19.6837V24.9249C14.9569 24.9275 14.9216 24.9304 14.8873 24.9327L14.5983 24.9445C12.7422 24.9477 10.8864 24.9518 9.03186 24.9415L8.78284 24.9396C8.7543 24.9393 8.71125 24.9285 8.63538 24.8947C8.6159 24.886 8.58856 24.874 8.55823 24.8595C8.80584 23.1335 9.05348 21.4082 9.3053 19.6837H14.9938Z" stroke="white" stroke-width="0.5"/>
<path d="M2.13403 19.6578C3.04461 19.6679 3.95572 19.6721 4.86646 19.6744L7.59692 19.6803H7.60571C7.62296 19.6798 7.64016 19.6788 7.65747 19.6783C7.41115 21.1984 7.16544 22.7177 6.92017 24.2379L6.91821 24.2516L6.91724 24.2662C6.91332 24.3499 6.90943 24.4336 6.90552 24.5172C6.90161 24.6009 6.89673 24.6845 6.89282 24.7682C6.88978 24.7951 6.88689 24.8219 6.88403 24.8483C6.84125 24.8695 6.80201 24.8876 6.77759 24.899C6.74208 24.9157 6.715 24.926 6.69458 24.9323L6.64966 24.9401C4.69773 24.9535 2.74533 24.9532 0.793213 24.942H0.792236C0.77841 24.942 0.747203 24.9356 0.677979 24.901C0.665671 24.8948 0.648537 24.886 0.62915 24.8756C0.991475 23.3922 1.35137 21.9097 1.71899 20.4293C1.73202 20.377 1.75531 20.3214 1.78735 20.2535C1.81503 20.1949 1.86066 20.1049 1.8938 20.0289L1.92505 19.9567L1.90942 19.8795C1.89289 19.7988 1.89261 19.7475 1.89673 19.7184C1.89861 19.7052 1.90143 19.6985 1.90259 19.6959L1.90454 19.692C1.90567 19.6912 1.90809 19.6899 1.91138 19.6881C1.91809 19.6845 1.92981 19.6794 1.94849 19.6744C1.98773 19.664 2.04741 19.6569 2.13403 19.6578Z" stroke="white" stroke-width="0.5"/>
<path d="M22.2316 17.9631C21.7174 17.9622 21.2028 17.9573 20.6876 17.9524C21.1703 17.7948 21.66 17.6342 22.172 17.467C22.1911 17.6293 22.2117 17.7958 22.2316 17.9631Z" stroke="white" stroke-width="0.5"/>
<path d="M8.55017 13.0199C8.54462 13.0198 8.55949 13.0186 8.61755 13.0521C8.63135 13.0601 8.64441 13.0688 8.65857 13.0775C8.56704 13.6756 8.47666 14.2736 8.38513 14.8715C8.28503 15.5253 8.18446 16.1792 8.08435 16.8334V16.8353C8.03063 17.2012 7.97699 17.5671 7.92126 17.9457H2.30017C2.32811 17.8243 2.35407 17.7098 2.38123 17.5931C2.60922 16.6141 2.82752 15.6382 3.06287 14.6674L3.30505 13.6976C3.32373 13.6257 3.37368 13.5455 3.4613 13.4388C3.51969 13.3678 3.61253 13.2615 3.69275 13.1615C3.79536 13.133 3.90301 13.1011 3.98279 13.0785C4.04078 13.0621 4.09403 13.0488 4.14392 13.0394L4.28455 13.0238C4.99479 13.0149 5.70544 13.0114 6.41638 13.0111L8.55017 13.0199Z" stroke="white" stroke-width="0.5"/>
<path d="M10.1675 13.9796C10.7287 14.6277 11.2873 15.3384 11.9155 15.962L12.2153 16.2472C12.5119 16.5171 12.8569 16.723 13.1997 16.9054C13.5561 17.0951 13.8811 17.2449 14.2104 17.4318V17.4327C14.3755 17.5266 14.5522 17.6122 14.7104 17.6925C14.7703 17.7696 14.8304 17.8462 14.8901 17.923C14.8916 17.9249 14.8935 17.9269 14.895 17.9288H9.61475C9.66421 17.6171 9.71229 17.3156 9.76025 17.0148L9.76123 17.0089L10.1128 14.3761C10.1304 14.2449 10.1483 14.115 10.1675 13.9796Z" stroke="white" stroke-width="0.5"/>
<path d="M29.9113 19.6715C29.9619 19.6718 30.0223 19.6856 30.1066 19.7135C30.1433 19.7257 30.1947 19.7418 30.2482 19.7604C30.4531 20.5865 30.6587 21.4128 30.8634 22.2389C31.079 23.1089 31.294 23.9792 31.5099 24.8492L31.5157 24.8717L31.5255 24.8932C31.5346 24.9132 31.5424 24.9314 31.549 24.9479C31.5388 24.9483 31.5279 24.9508 31.5157 24.9508C29.4596 24.943 27.4146 24.9512 25.3615 24.9391C25.3534 24.9349 25.3406 24.9265 25.3214 24.9127C25.2977 24.8956 25.2768 24.8782 25.2443 24.8531C25.2409 24.8506 25.2371 24.8481 25.2335 24.8453C25.1061 24.1796 24.978 23.5147 24.8497 22.8492C24.7759 22.366 24.7026 21.8824 24.629 21.399C24.5564 20.9216 24.4832 20.444 24.4103 19.9664C24.4082 19.8789 24.4262 19.8458 24.4327 19.8365C24.4373 19.8301 24.45 19.814 24.5011 19.8014L24.4679 19.6666C26.2827 19.6633 28.0976 19.6615 29.9113 19.6715Z" stroke="white" stroke-width="0.5"/>
</svg>
