<svg width="42" height="32" viewBox="0 0 42 32" fill="none" xmlns="http://www.w3.org/2000/svg">
<path d="M14.6846 7.27441C18.2895 7.00386 21.3144 8.98256 22.6318 11.9141C22.7432 12.1626 22.7636 12.2921 22.7432 12.377C22.7259 12.4481 22.6625 12.5515 22.4092 12.6914C20.4861 13.7532 19.2837 15.428 18.374 17.3086C18.3285 17.402 18.2387 17.5196 18.1309 17.6152C18.0165 17.7167 17.9232 17.758 17.8779 17.7617L17.5059 17.791L17.5117 17.8027C15.0731 18.1021 13.2639 19.4009 11.8301 21.2871C11.6947 21.4648 11.6023 21.5825 11.5254 21.6611C11.4493 21.7389 11.4164 21.7474 11.4072 21.749C11.3975 21.7507 11.362 21.7535 11.2627 21.7061C11.2122 21.6819 11.1542 21.6495 11.085 21.6074L10.8389 21.4512C8.47114 19.9135 7.34491 17.7193 7.25 14.7832C7.42366 10.7132 10.6793 7.57433 14.6846 7.27441Z" stroke="white" stroke-width="0.5"/>
<path d="M15.0254 0.25H15.0264C15.2611 0.254217 15.4246 0.318184 15.5303 0.411133C15.6333 0.501866 15.709 0.644221 15.7246 0.863281C15.7623 1.40674 15.7324 1.94095 15.7324 2.5166V2.7666H15.7451C15.7475 3.08687 15.7523 3.39992 15.749 3.71289L15.7393 4.10742C15.7297 4.33633 15.6625 4.48356 15.5684 4.57617C15.4738 4.6692 15.3213 4.73755 15.082 4.74707L15.0498 4.74805C14.8109 4.75335 14.6248 4.70526 14.501 4.62012C14.3824 4.53857 14.2969 4.40881 14.2871 4.18945V4.18848C14.2363 3.061 14.2386 1.92887 14.2881 0.801758V0.800781C14.2965 0.598552 14.3755 0.471212 14.4873 0.388672C14.6071 0.300265 14.7896 0.245851 15.0254 0.25Z" stroke="white" stroke-width="0.5"/>
<path d="M6.99219 21.2627V21.2637C7.08803 21.2799 7.19659 21.3452 7.34766 21.4746C7.43607 21.5503 7.55462 21.6582 7.67676 21.7646C7.60316 21.8869 7.53852 21.9947 7.4873 22.0801C7.40602 22.2156 7.34381 22.3001 7.27246 22.3613C6.61638 22.9221 5.9561 23.4765 5.28125 24.0117L4.60156 24.54C4.27734 24.786 3.90636 24.8198 3.59473 24.6201L3.46582 24.5205L3.40234 24.458C3.27003 24.3127 3.23865 24.1753 3.25293 24.0547C3.27089 23.9038 3.36671 23.7314 3.54688 23.5654V23.5645C4.23714 22.9283 4.93875 22.3068 5.67773 21.7354L5.99707 21.4932C6.11105 21.4084 6.27973 21.3356 6.46875 21.292C6.65722 21.2486 6.84559 21.2382 6.99219 21.2627Z" stroke="white" stroke-width="0.5"/>
<path d="M6.15039 4.25977C6.19878 4.26808 6.22127 4.27788 6.22754 4.28125V4.28223C7.07422 5.0867 7.82787 5.9869 8.61816 6.88379C8.62466 6.89115 8.63981 6.91413 8.66504 7.00293C8.68017 7.05624 8.70259 7.13711 8.72949 7.22852C8.71143 7.25975 8.69271 7.28993 8.67676 7.31934C8.64027 7.38661 8.60875 7.44722 8.57422 7.50488C8.50026 7.62836 8.44771 7.67749 8.41309 7.69238L8.41211 7.69336C8.32537 7.7305 8.18032 7.75515 8.03418 7.74902C7.876 7.74235 7.79369 7.70317 7.77539 7.68555L7.6709 7.58398C6.87949 6.81258 6.12787 5.99387 5.41016 5.14844C5.29911 5.01762 5.24468 4.85735 5.25098 4.71777C5.257 4.58601 5.3158 4.4672 5.4502 4.38574C5.55027 4.32527 5.73277 4.27102 5.91895 4.25488C6.0095 4.24704 6.08946 4.24932 6.15039 4.25977Z" stroke="white" stroke-width="0.5"/>
<path d="M24.9199 4.25781C25.074 4.24018 25.2342 4.25252 25.3447 4.28418C25.3672 4.29059 25.4173 4.32469 25.5098 4.45605C25.5524 4.51662 25.5926 4.58118 25.6426 4.65723C25.6618 4.68654 25.6848 4.71523 25.7061 4.74609C25.6424 4.863 25.5828 4.97417 25.5332 5.06543C25.4593 5.20146 25.3937 5.30873 25.3154 5.39648C25.0097 5.73864 24.6973 6.07578 24.3809 6.41016L23.4229 7.4082C23.2492 7.58761 23.0852 7.70105 22.9375 7.7373C22.8112 7.76818 22.6665 7.75074 22.4873 7.58984C22.3183 7.43783 22.253 7.28029 22.25 7.13574C22.247 6.98754 22.3092 6.81725 22.46 6.64551C23.0684 5.95256 23.6795 5.26814 24.3311 4.63086L24.6133 4.36035C24.654 4.32215 24.7579 4.27639 24.9199 4.25781Z" stroke="white" stroke-width="0.5"/>
<path d="M1.0332 13.251C1.90615 13.2782 2.79189 13.3143 3.66992 13.3389C4.11583 13.3515 4.38245 13.4249 4.53516 13.5332C4.65125 13.6157 4.72593 13.7364 4.74512 13.9424L4.75 14.0352C4.75296 14.3089 4.67244 14.4597 4.53418 14.5576C4.37801 14.6681 4.10562 14.7409 3.65625 14.748L3.62891 14.749C3.53456 14.7503 3.44081 14.7484 3.3418 14.7471H3.34082C2.51141 14.7006 1.69182 14.6679 0.871094 14.6055C0.592618 14.5845 0.447347 14.5027 0.368164 14.4033C0.285651 14.2996 0.232923 14.1247 0.254883 13.8291C0.273633 13.5801 0.357154 13.4495 0.460938 13.374C0.574828 13.2913 0.758205 13.2422 1.0332 13.251Z" stroke="white" stroke-width="0.5"/>
<path d="M22.3779 14.6191C25.9571 12.1945 31.6812 12.8978 33.8779 17.4492C34.2537 18.229 34.5381 19.0341 34.8789 19.8594L34.9434 20.0166L35.1133 20.0137C36.2995 19.9943 37.4154 20.0718 38.4189 20.6465L38.417 20.6572C38.511 20.7011 38.6069 20.7458 38.7012 20.791L38.7002 20.7949C38.7509 20.8193 38.8019 20.8438 38.8525 20.8682C38.9031 20.8925 38.9534 20.9171 39.0039 20.9414L39.0049 20.9385C39.0667 20.9785 39.1286 21.0186 39.1904 21.0586L39.4131 21.2031C39.4341 21.2186 39.4547 21.2343 39.4756 21.25L39.4473 21.2559L39.7842 21.585C39.8326 21.6321 39.8813 21.6794 39.9297 21.7266V21.7275C39.9796 21.7762 40.0287 21.8229 40.0771 21.8701L40.3281 22.1162L40.3418 22.0869C40.4029 22.1481 40.4642 22.2091 40.5254 22.2705C40.5413 22.2897 40.557 22.309 40.5723 22.3271C40.5885 22.3464 40.6041 22.3647 40.6191 22.3828C40.6647 22.4507 40.7103 22.519 40.7559 22.5869C40.7962 22.6471 40.8366 22.7074 40.877 22.7676V22.7686C40.9024 22.819 40.9289 22.8691 40.9541 22.918C40.9794 22.967 41.004 23.0154 41.0283 23.0635L41.0303 23.0625C41.067 23.1358 41.1062 23.2108 41.1426 23.2822V23.2842L41.1445 23.2881C41.1539 23.3066 41.1638 23.3249 41.1729 23.3428L41.1777 23.3408L41.1816 23.3457C41.6927 24.1523 41.8171 25.0406 41.7197 25.9961L41.7188 26.0059C41.7108 26.1338 41.7008 26.2632 41.6914 26.3926C41.6018 26.7361 41.5141 27.0798 41.4248 27.4229C41.34 27.749 41.255 28.075 41.1699 28.4014C41.1448 28.4511 41.1197 28.5011 41.0947 28.5508C41.0732 28.5937 41.0516 28.6364 41.0303 28.6787H41.0283L40.876 28.9746C40.8356 29.033 40.7961 29.0921 40.7559 29.1504C40.7104 29.2162 40.6653 29.2824 40.6201 29.3477C40.5838 29.3919 40.5473 29.4364 40.5098 29.4814C40.4802 29.5168 40.4499 29.5525 40.4199 29.5889C40.3961 29.6051 40.3725 29.6214 40.3486 29.6377C40.3155 29.6603 40.2828 29.6839 40.249 29.707L40.2305 29.7188L40.2148 29.7334C40.1891 29.7585 40.1642 29.7843 40.1396 29.8086C40.115 29.833 40.0905 29.8563 40.0664 29.8799C40.0198 29.9242 39.9748 29.9687 39.9307 30.0117L39.9297 30.0107C39.9055 30.0344 39.8809 30.0586 39.8555 30.083C39.8303 30.1072 39.804 30.1322 39.7783 30.1572L39.4199 30.5068L39.4424 30.5098L39.4141 30.5332C39.3211 30.5766 39.2277 30.6197 39.1348 30.6631L39.0967 30.6816L39.0664 30.7109C39.0414 30.7353 39.0163 30.7603 38.9922 30.7842C38.9782 30.798 38.9638 30.8108 38.9502 30.8242C38.9148 30.8412 38.8796 30.8589 38.8438 30.876C38.7958 30.8989 38.7473 30.9222 38.6992 30.9453L38.7002 30.9492C38.6058 30.9939 38.512 31.0396 38.417 31.084V31.085C38.3203 31.1315 38.2266 31.1783 38.1309 31.2236L38.1162 31.2305C37.7641 31.3216 37.3966 31.4459 37.0693 31.54C36.7948 31.619 36.5315 31.6815 36.2744 31.709L36.0186 31.7236C32.7939 31.7438 29.5689 31.7502 26.3438 31.75L16.668 31.7393L16.4932 31.7266C16.433 31.7185 16.3701 31.7072 16.3037 31.6934C16.1814 31.6679 16.0233 31.6284 15.8818 31.6035H15.8799C12.3588 31.0174 10.2485 27.0429 11.7285 23.6982C12.584 21.7666 14.0656 20.5362 16.1855 20.0977C16.78 19.9751 17.4191 19.9971 18.0781 20.0098C18.3527 20.0151 18.6088 19.9747 18.8174 19.8301C19.031 19.6818 19.1542 19.4533 19.2227 19.1719C19.6848 17.2678 20.736 15.7321 22.3779 14.6191Z" stroke="white" stroke-width="0.5"/>
</svg>
