<svg width="50" height="55" viewBox="0 0 50 55" fill="none" xmlns="http://www.w3.org/2000/svg">
<g clip-path="url(#clip0_736_68)">
<path d="M38.2597 0H38.4722C38.4694 0.0359027 38.4651 0.0718053 38.4651 0.107708C38.4651 17.1643 38.4651 34.221 38.468 51.2762C38.468 51.4471 38.4836 51.618 38.4921 51.786H41.6612V12.283H46.7076V51.8205H50V54.9986H0V51.7975H6.51262V21.8705H19.8595V51.7702H22.9904V18.5947H11.5561V7.67024C11.7219 7.61711 11.8848 7.55966 12.052 7.51371C19.4925 5.39976 26.9331 3.28868 34.3723 1.16899C35.6728 0.798475 36.9648 0.392057 38.2611 0.00143611L38.2597 0ZM32.2373 21.5459V15.1107H29.1233V21.5459H32.2373ZM11.617 26.9629V33.3981H14.714V26.9629H11.617ZM32.2458 33.4081V26.983H29.1375V33.4081H32.2458ZM14.7267 45.246V38.8208H11.6284V45.246H14.7267ZM29.1361 38.8208V45.2359H32.2486V38.8208H29.1361Z" fill="#00399E"/>
</g>
<defs>
<clipPath id="clip0_736_68">
<rect width="50" height="55" fill="white"/>
</clipPath>
</defs>
</svg>
