<svg width="39" height="39" viewBox="0 0 39 39" fill="none" xmlns="http://www.w3.org/2000/svg">
<rect x="0.5" y="0.5" width="38" height="38" rx="19" stroke="white"/>
<path d="M25.4649 22.4208L25.5071 13.5791L16.7435 13.6217C16.6523 13.6099 16.5593 13.618 16.4709 13.6456C16.3825 13.6731 16.3007 13.7195 16.2311 13.7814C16.1615 13.8433 16.1057 13.9194 16.0674 14.0045C16.0291 14.0897 16.0093 14.1818 16.0093 14.2748C16.0092 14.3677 16.029 14.4593 16.0672 14.5433C16.1055 14.6273 16.1613 14.7018 16.2309 14.7617C16.3005 14.8215 16.3822 14.8655 16.4706 14.8904C16.559 14.9154 16.6519 14.9208 16.7431 14.9063L23.3101 14.8848L14.5455 23.7275C14.424 23.8501 14.355 24.0156 14.3537 24.1877C14.3525 24.3598 14.419 24.5244 14.5387 24.6451C14.6585 24.7659 14.8215 24.8331 14.9921 24.8318C15.1627 24.8305 15.3268 24.7609 15.4483 24.6383L24.213 15.7957L24.1916 22.4211C24.1909 22.5933 24.2581 22.7577 24.3783 22.8781C24.4985 22.9985 24.662 23.0651 24.8326 23.0633C25.0033 23.0614 25.1673 22.9912 25.2884 22.8681C25.4096 22.745 25.478 22.5791 25.4787 22.4069L25.4649 22.4208Z" fill="white"/>
</svg>
