<svg width="39" height="39" viewBox="0 0 39 39" fill="none" xmlns="http://www.w3.org/2000/svg">
<rect width="39" height="39" rx="19.5" fill="#00399E"/>
<path d="M24.4647 22.4208L24.5069 13.5791L15.7433 13.6217C15.652 13.6099 15.5591 13.618 15.4707 13.6456C15.3823 13.6731 15.3005 13.7195 15.2309 13.7814C15.1613 13.8433 15.1054 13.9194 15.0672 14.0046C15.0289 14.0897 15.0091 14.1818 15.009 14.2748C15.009 14.3677 15.0288 14.4593 15.067 14.5433C15.1053 14.6273 15.1611 14.7018 15.2306 14.7617C15.3002 14.8216 15.382 14.8655 15.4704 14.8904C15.5587 14.9154 15.6517 14.9208 15.7429 14.9064L22.3099 14.8848L13.5453 23.7275C13.4237 23.8501 13.3548 24.0156 13.3535 24.1877C13.3522 24.3598 13.4188 24.5244 13.5385 24.6452C13.6582 24.7659 13.8213 24.8331 13.9919 24.8318C14.1625 24.8305 14.3266 24.7609 14.4481 24.6384L23.2127 15.7957L23.1914 22.4211C23.1907 22.5933 23.2579 22.7577 23.3781 22.8781C23.4983 22.9986 23.6617 23.0651 23.8324 23.0633C24.0031 23.0614 24.167 22.9912 24.2882 22.8681C24.4094 22.745 24.4778 22.5791 24.4785 22.4069L24.4647 22.4208Z" fill="white"/>
</svg>
