<svg width="84" height="67" viewBox="0 0 84 67" fill="none" xmlns="http://www.w3.org/2000/svg">
<g clip-path="url(#clip0_129_17279)">
<path fill-rule="evenodd" clip-rule="evenodd" d="M0.339481 52.8469H83.6622C83.85 52.8469 84.0017 52.999 84.0017 53.1912C84.0017 53.4017 83.8517 53.5538 83.6622 53.5538H0.339481C0.151613 53.5538 0 53.4017 0 53.1912C0 53.0007 0.149965 52.8469 0.339481 52.8469Z" fill="#FDBE2C"/>
<path fill-rule="evenodd" clip-rule="evenodd" d="M82.9453 45.9334C82.2482 46.6202 81.3633 46.9645 80.3086 46.9645C79.2539 46.9645 78.4628 46.6202 77.7476 45.9334C77.0505 45.2265 76.7308 44.3475 76.7308 43.3164V3.64813C76.7308 2.61703 77.0884 1.75806 77.7855 1.0311C78.4826 0.344258 79.3857 0 80.4404 0C81.4951 0 82.2861 0.344258 82.9832 1.0311C83.6803 1.71795 84 2.61703 84 3.64813V43.318C84 44.3491 83.6424 45.2282 82.9453 45.9351V45.9334Z" fill="#227FC2"/>
<path fill-rule="evenodd" clip-rule="evenodd" d="M73.1333 40.8347C72.4363 40.1278 71.5513 39.7835 70.4966 39.7835H58.8949C58.6692 39.7451 58.4434 39.7451 58.1978 39.7451C55.7687 39.7451 53.3759 39.095 51.4742 37.6444C49.5526 36.1738 47.9327 33.9963 47.4251 31.3793H70.1011C71.1937 31.3793 72.1166 31.0734 72.9076 30.405C73.7167 29.7365 74.132 28.8959 74.188 27.8264C74.188 24.713 73.397 21.7718 71.8529 19.0979C70.3087 16.4241 68.2372 14.285 65.6186 12.6807C63 11.1148 60.2314 10.2926 57.2931 10.2926C54.3548 10.2926 51.5104 11.0379 48.8555 12.547C46.2188 14.0744 44.1094 16.272 42.5092 19.1364C40.9272 22.0007 40.0983 25.343 40.0983 29.1065C40.0983 32.5056 40.8514 35.5622 42.3576 38.2744C43.8836 40.9867 46.0309 43.1258 48.8176 44.6733C51.3407 46.0487 54.2411 46.8124 57.5189 46.9645C57.6886 47.0029 57.8386 47.0029 58.0083 47.0029H70.495C71.5496 47.0029 72.3967 46.6403 73.1317 45.9902C73.8288 45.3033 74.1864 44.4811 74.1864 43.4684C74.1864 42.3989 73.8288 41.5198 73.1317 40.833L73.1333 40.8347ZM57.2371 16.9605C63.1319 16.9605 66.3536 22.4419 66.5036 24.2952V24.7732H47.2356C48.1964 19.9602 51.6999 16.9622 57.2371 16.9622V16.9605Z" fill="#FDBE2C"/>
<path fill-rule="evenodd" clip-rule="evenodd" d="M37.9691 28.5717C37.9691 38.7708 29.5875 47.0597 19.2663 47.0597C8.94514 47.0597 0.565247 38.7708 0.565247 28.5717V3.68653C0.565247 1.69952 2.18519 0.0952148 4.18088 0.0952148C6.17656 0.0952148 7.81629 1.69952 7.81629 3.68653V13.9809C10.9804 11.556 14.9174 10.1422 19.2301 10.1422C29.5892 10.1038 37.9707 18.3743 37.9707 28.5734L37.9691 28.5717ZM31.9804 28.6486C31.9804 21.7735 26.3295 16.2336 19.4179 16.2336C12.5064 16.2336 6.85552 21.8102 6.85552 28.6486C6.85552 35.487 12.5064 41.0436 19.4179 41.0436C26.3295 41.0436 31.9804 35.5053 31.9804 28.6486Z" fill="#227FC2"/>
<path fill-rule="evenodd" clip-rule="evenodd" d="M20.5287 28.2091C20.5287 28.9344 19.9635 29.4893 19.2285 29.4893C18.4935 29.4893 17.9101 28.9361 17.9101 28.2091V20.7407C17.9101 20.0155 18.4935 19.4423 19.2285 19.4423C19.9635 19.4423 20.5287 20.0155 20.5287 20.7407V28.2091Z" fill="#FDBE2C"/>
<path fill-rule="evenodd" clip-rule="evenodd" d="M22.1487 21.715V23.854C23.9186 24.8668 25.0491 26.7184 25.0491 28.8391C25.0491 32.0093 22.4502 34.5695 19.2664 34.5695C16.0825 34.5695 13.4655 31.9725 13.4655 28.8391C13.4655 26.7184 14.6339 24.8668 16.3659 23.854V21.715C13.4837 22.8413 11.488 25.6104 11.488 28.8391C11.488 33.0788 14.9915 36.5164 19.2664 36.5164C23.5412 36.5164 27.0266 33.0404 27.0266 28.8391C27.0266 25.6121 24.993 22.8413 22.1487 21.715Z" fill="#227FC2"/>
<path d="M8.07998 64.7456C7.59053 64.7456 7.15712 64.6303 6.76161 64.4014C6.3661 64.1724 6.04639 63.8482 5.82062 63.4471C5.59485 63.0461 5.48114 62.5882 5.48114 62.0918V57.6415C5.48114 57.5078 5.51904 57.4126 5.59485 57.3173C5.68878 57.2405 5.78272 57.202 5.91455 57.202C6.04639 57.202 6.14033 57.2405 6.23426 57.3173C6.31007 57.4126 6.34797 57.5078 6.34797 57.6415V60.3338C6.57374 60.048 6.83741 59.8374 7.15712 59.6653C7.47682 59.4932 7.83443 59.4163 8.24972 59.4163C8.70126 59.4163 9.13468 59.5316 9.49228 59.7606C9.86967 59.9895 10.1696 60.3137 10.3772 60.7148C10.603 61.1159 10.7167 61.5738 10.7167 62.0701C10.7167 62.5664 10.603 63.0243 10.3591 63.4455C10.1333 63.8465 9.83176 64.1524 9.43625 64.3997C9.04074 64.6286 8.5892 64.744 8.07998 64.744V64.7456ZM8.07998 63.9619C8.41946 63.9619 8.72104 63.8666 8.98471 63.7129C9.26651 63.5407 9.47416 63.3302 9.62577 63.0444C9.77573 62.7586 9.87132 62.4327 9.87132 62.0701C9.87132 61.7075 9.77738 61.4016 9.62577 61.1159C9.4758 60.8301 9.26816 60.5995 8.98471 60.4474C8.72104 60.2753 8.41946 60.1984 8.07998 60.1984C7.76027 60.1984 7.4587 60.2753 7.17525 60.4474C6.91157 60.5995 6.70393 60.8301 6.55396 61.1159C6.404 61.4016 6.32819 61.7075 6.32819 62.0701C6.32819 62.4327 6.404 62.7569 6.55396 63.0444C6.70393 63.3302 6.91157 63.5407 7.17525 63.7129C7.45705 63.8649 7.75863 63.9619 8.07998 63.9619ZM14.5581 64.7456C14.0308 64.7456 13.5792 64.6303 13.1639 64.4014C12.7684 64.1724 12.4487 63.8666 12.223 63.4655C11.9972 63.0644 11.8835 62.6065 11.8835 62.0902C11.8835 61.5738 11.9972 61.0975 12.2032 60.6964C12.429 60.2953 12.7124 59.9895 13.1079 59.7606C13.4853 59.5316 13.9171 59.4163 14.4082 59.4163C14.8993 59.4163 15.331 59.5316 15.6705 59.7405C16.0281 59.9695 16.3116 60.2753 16.4994 60.658C16.6873 61.0407 16.7812 61.4986 16.7812 61.9949C16.7812 62.1102 16.7433 62.2055 16.6675 62.2623C16.5917 62.3392 16.4978 62.3776 16.3857 62.3776H12.4866V61.6707H16.3857L15.9902 61.9565C15.9902 61.6122 15.9342 61.3064 15.8023 61.039C15.6705 60.7716 15.5008 60.5611 15.2569 60.409C15.0311 60.2569 14.7476 60.18 14.4098 60.18C14.0522 60.18 13.7506 60.2569 13.4869 60.429C13.2233 60.5811 13.0156 60.8117 12.8838 61.0975C12.752 61.3833 12.6761 61.7275 12.6761 62.0902C12.6761 62.4528 12.752 62.777 12.9217 63.0644C13.0717 63.3502 13.2991 63.5608 13.5809 63.7329C13.8627 63.905 14.184 63.9819 14.5598 63.9819C14.7674 63.9819 14.9734 63.9435 15.1811 63.8666C15.4068 63.7897 15.5766 63.7145 15.7084 63.5992C15.8023 63.5223 15.8963 63.504 15.9902 63.4839C16.0841 63.4839 16.1781 63.5223 16.2539 63.5792C16.3478 63.6744 16.4038 63.7697 16.4038 63.8649C16.4038 63.9802 16.3659 64.0755 16.272 64.1507C16.0644 64.3228 15.7826 64.4565 15.481 64.5702C15.1613 64.6855 14.8399 64.7423 14.5581 64.7423V64.7456ZM20.0195 64.7456C19.5482 64.7456 19.1345 64.6303 18.7571 64.4014C18.3798 64.1724 18.0798 63.8482 17.8722 63.4471C17.6645 63.0461 17.5525 62.5882 17.5525 62.0918C17.5525 61.5955 17.6662 61.1175 17.892 60.7165C18.1375 60.3154 18.4374 59.9912 18.8329 59.7622C19.2285 59.5333 19.68 59.418 20.1694 59.418C20.6589 59.418 21.1104 59.5333 21.5059 59.7622C21.9014 59.9912 22.203 60.3154 22.4288 60.7165C22.6743 61.1175 22.7864 61.5754 22.7864 62.0918L22.4469 62.1687C22.4469 62.665 22.3332 63.1045 22.1272 63.4872C21.9196 63.8883 21.618 64.1941 21.2604 64.4047C20.9028 64.6337 20.4875 64.749 20.0178 64.749L20.0195 64.7456ZM20.1694 63.9619C20.5089 63.9619 20.8105 63.8666 21.0742 63.7129C21.3378 63.5407 21.5455 63.3302 21.7152 63.0444C21.8652 62.7586 21.941 62.4327 21.941 62.0902C21.941 61.7275 21.8652 61.4033 21.7152 61.1159C21.5455 60.8301 21.3378 60.5995 21.0742 60.4474C20.8105 60.2753 20.5089 60.1984 20.1694 60.1984C19.83 60.1984 19.5284 60.2753 19.2647 60.4474C19.001 60.5995 18.7753 60.8301 18.6236 61.1159C18.4737 61.4016 18.3979 61.7275 18.3979 62.0902C18.3979 62.4344 18.4737 62.7586 18.6236 63.0444C18.7736 63.3302 19.001 63.5407 19.2647 63.7129C19.5284 63.8649 19.83 63.9619 20.1694 63.9619ZM22.3349 64.7072C22.2212 64.7072 22.1091 64.6688 22.0333 64.5919C21.9575 64.515 21.9014 64.4014 21.9014 64.2677V62.7402L22.0893 61.8228L22.7864 62.0902V64.2677C22.7864 64.4014 22.7485 64.5167 22.6546 64.5919C22.5788 64.6688 22.4667 64.7072 22.3349 64.7072ZM26.5537 64.7456C26.0444 64.7456 25.6127 64.6303 25.2172 64.4014C24.8216 64.1524 24.5201 63.8482 24.2943 63.4471C24.0685 63.0461 23.9548 62.5882 23.9548 62.0918C23.9548 61.5955 24.0685 61.0992 24.2745 60.6981C24.5003 60.297 24.8019 59.9912 25.1792 59.7622C25.5566 59.5333 25.9884 59.418 26.4976 59.418C26.875 59.418 27.2128 59.4949 27.5342 59.6285C27.8358 59.7806 28.1176 60.0112 28.3631 60.297C28.457 60.3923 28.4768 60.4875 28.457 60.5828C28.4389 60.6981 28.3812 60.7733 28.2692 60.8502C28.1934 60.907 28.0994 60.927 28.0055 60.907C27.8918 60.8886 27.8176 60.8301 27.7418 60.7549C27.4024 60.3923 26.9887 60.2017 26.4993 60.2017C26.1598 60.2017 25.8582 60.2786 25.6143 60.4508C25.3506 60.6028 25.1628 60.8334 25.0112 61.1008C24.8793 61.3866 24.8035 61.7125 24.8035 62.0935C24.8035 62.4378 24.8793 62.762 25.0293 63.0477C25.1611 63.3335 25.3688 63.5441 25.6506 63.7162C25.9142 63.8683 26.2158 63.9652 26.5553 63.9652C26.7811 63.9652 26.9887 63.9268 27.1766 63.8699C27.3644 63.8131 27.5161 63.7179 27.666 63.6026C27.76 63.5257 27.8539 63.4689 27.9478 63.4689C28.0418 63.4689 28.1357 63.4872 28.2115 63.5641C28.3054 63.641 28.3615 63.7362 28.3615 63.8315C28.3796 63.9468 28.3433 64.022 28.2675 64.0989C27.816 64.5384 27.231 64.749 26.5537 64.749V64.7456ZM32.2408 64.7456C31.7316 64.7456 31.28 64.6303 30.8845 64.4014C30.5071 64.1724 30.1874 63.8666 29.9616 63.4655C29.7359 63.0644 29.6222 62.6065 29.6222 62.0902C29.6222 61.5738 29.7359 61.0975 29.9616 60.6964C30.1874 60.2953 30.5071 59.9895 30.8845 59.7606C31.28 59.5316 31.7316 59.4163 32.2408 59.4163C32.75 59.4163 33.2015 59.5316 33.597 59.7606C33.9926 59.9895 34.2941 60.2953 34.5199 60.6964C34.7457 61.0975 34.8594 61.5554 34.8594 62.0902C34.8594 62.6249 34.7457 63.0644 34.5199 63.4655C34.2941 63.8666 33.9926 64.1724 33.597 64.4014C33.2015 64.6303 32.75 64.7456 32.2408 64.7456ZM32.2408 63.9619C32.5984 63.9619 32.9 63.885 33.1636 63.7129C33.4273 63.5608 33.6349 63.3302 33.7849 63.0444C33.9349 62.777 34.0107 62.4528 34.0107 62.0902C34.0107 61.7275 33.9349 61.4033 33.7849 61.1159C33.6349 60.8301 33.4273 60.5995 33.1636 60.4474C32.9 60.2753 32.5984 60.1984 32.2408 60.1984C31.9013 60.1984 31.5997 60.2753 31.336 60.4474C31.0542 60.5995 30.8466 60.8301 30.695 61.1159C30.545 61.4016 30.4692 61.7275 30.4692 62.0902C30.4692 62.4528 30.545 62.777 30.695 63.0444C30.8449 63.3302 31.0526 63.5608 31.336 63.7129C31.5997 63.885 31.9013 63.9619 32.2408 63.9619ZM40.6981 64.7072C40.5844 64.7072 40.4724 64.6688 40.3784 64.5919C40.3026 64.4966 40.2647 64.4014 40.2647 64.2677V61.8612C40.2647 61.4785 40.1889 61.1744 40.0571 60.9254C39.9071 60.6764 39.7176 60.5059 39.4918 60.3906C39.266 60.2753 38.9826 60.2185 38.6827 60.2185C38.4009 60.2185 38.1553 60.2753 37.9098 60.3906C37.684 60.5059 37.5143 60.658 37.3824 60.8485C37.2325 61.039 37.1748 61.2496 37.1748 61.4986H36.6095C36.6095 61.0975 36.7035 60.7349 36.9111 60.429C37.099 60.1048 37.3626 59.8558 37.7021 59.6837C38.0416 59.4932 38.4173 59.3979 38.8326 59.3979C39.2479 59.3979 39.6616 59.4932 40.0192 59.6837C40.3586 59.8742 40.6404 60.1616 40.8283 60.5243C41.036 60.8869 41.1299 61.3264 41.1299 61.8612V64.2677C41.1299 64.4014 41.092 64.4966 41.0162 64.5919C40.9222 64.6688 40.8283 64.7072 40.6965 64.7072H40.6981ZM36.743 64.7072C36.6112 64.7072 36.4975 64.6688 36.4233 64.5919C36.3475 64.515 36.2915 64.4014 36.2915 64.2677V59.8943C36.2915 59.7606 36.3475 59.6453 36.4233 59.5701C36.4991 59.4949 36.6112 59.4547 36.743 59.4547C36.8748 59.4547 36.9688 59.4932 37.0446 59.5701C37.1385 59.6469 37.1764 59.7606 37.1764 59.8943V64.2677C37.1764 64.4014 37.1385 64.5167 37.0446 64.5919C36.9688 64.6688 36.8748 64.7072 36.743 64.7072ZM47.931 64.7456C47.4037 64.7456 46.9324 64.6303 46.5369 64.4014C46.1413 64.1724 45.8216 63.8666 45.5959 63.4655C45.3701 63.0644 45.2564 62.6065 45.2564 62.0902C45.2564 61.5738 45.3503 61.0975 45.5761 60.6964C45.7837 60.2953 46.0853 59.9895 46.461 59.7606C46.8384 59.5316 47.29 59.4163 47.7794 59.4163C48.2689 59.4163 48.6842 59.5316 49.0418 59.7405C49.3994 59.9695 49.663 60.2753 49.8509 60.658C50.0388 61.0407 50.1327 61.4986 50.1327 61.9949C50.1327 62.1102 50.0948 62.2055 50.0388 62.2623C49.963 62.3392 49.869 62.3776 49.7372 62.3776H45.8381V61.6707H49.7553L49.3598 61.9565C49.3598 61.6122 49.284 61.3064 49.1719 61.039C49.0401 60.7716 48.8522 60.5611 48.6265 60.409C48.3809 60.2569 48.1172 60.18 47.7794 60.18C47.4218 60.18 47.1021 60.2569 46.8566 60.429C46.5929 60.5811 46.3852 60.8117 46.2534 61.0975C46.1034 61.3833 46.0458 61.7275 46.0458 62.0902C46.0458 62.4528 46.1216 62.777 46.2715 63.0644C46.4413 63.3502 46.667 63.5608 46.9488 63.7329C47.2125 63.905 47.552 63.9819 47.9277 63.9819C48.1156 63.9819 48.3414 63.9435 48.549 63.8666C48.7748 63.7897 48.9445 63.7145 49.0582 63.5992C49.1522 63.5223 49.2461 63.504 49.3598 63.4839C49.4537 63.4839 49.5477 63.5223 49.6235 63.5792C49.7174 63.6744 49.7553 63.7697 49.7735 63.8649C49.7735 63.9802 49.7356 64.0755 49.6416 64.1507C49.4158 64.3228 49.1522 64.4565 48.8325 64.5702C48.5128 64.6855 48.2112 64.7423 47.9277 64.7423L47.931 64.7456ZM55.7852 64.7072C55.6534 64.7072 55.5397 64.6688 55.4655 64.5919C55.3716 64.4966 55.3337 64.4014 55.3337 64.2677V61.8612C55.3337 61.4785 55.2579 61.1744 55.126 60.9254C54.9942 60.6764 54.8063 60.5059 54.5608 60.3906C54.335 60.2753 54.0713 60.2185 53.7516 60.2185C53.4698 60.2185 53.2243 60.2753 52.9985 60.3906C52.7727 60.5059 52.5849 60.658 52.453 60.8485C52.3212 61.039 52.2454 61.2496 52.2454 61.4986H51.6801C51.6801 61.0975 51.7939 60.7349 51.9817 60.429C52.1696 60.1048 52.4333 59.8558 52.7728 59.6837C53.1122 59.4932 53.488 59.3979 53.9033 59.3979C54.3548 59.3979 54.7322 59.4932 55.0898 59.6837C55.4293 59.8742 55.7111 60.1616 55.9187 60.5243C56.1066 60.8869 56.2203 61.3264 56.2203 61.8612V64.2677C56.2203 64.4014 56.1824 64.4966 56.0885 64.5919C55.9945 64.6688 55.9006 64.7072 55.7869 64.7072H55.7852ZM51.812 64.7072C51.6801 64.7072 51.5862 64.6688 51.4923 64.5919C51.4165 64.515 51.3786 64.4014 51.3786 64.2677V59.8943C51.3786 59.7606 51.4165 59.6453 51.4923 59.5701C51.5862 59.4932 51.6801 59.4547 51.812 59.4547C51.9438 59.4547 52.0575 59.4932 52.1317 59.5701C52.2058 59.6469 52.2454 59.7606 52.2454 59.8943V64.2677C52.2454 64.4014 52.2075 64.5167 52.1317 64.5919C52.0559 64.6688 51.9438 64.7072 51.812 64.7072ZM60.2314 64.7456C59.7041 64.7456 59.2328 64.6303 58.8373 64.4014C58.4417 64.1724 58.122 63.8666 57.8963 63.4655C57.6705 63.0644 57.5568 62.6065 57.5568 62.0902C57.5568 61.5738 57.6507 61.0975 57.8765 60.6964C58.0841 60.2953 58.3857 59.9895 58.7614 59.7606C59.1388 59.5316 59.5904 59.4163 60.0798 59.4163C60.5693 59.4163 60.9846 59.5316 61.3422 59.7405C61.6998 59.9695 61.9634 60.2753 62.1513 60.658C62.3392 61.0407 62.4331 61.4986 62.4331 61.9949C62.4331 62.1102 62.3952 62.2055 62.3194 62.2623C62.2634 62.3392 62.1497 62.3776 62.0376 62.3776H58.1385V61.6707H62.0557L61.6602 61.9565C61.6602 61.6122 61.5844 61.3064 61.4526 61.039C61.3389 60.7716 61.151 60.5611 60.9252 60.409C60.6797 60.2569 60.3979 60.18 60.0782 60.18C59.7206 60.18 59.4009 60.2569 59.1372 60.429C58.8916 60.5811 58.6856 60.8117 58.5538 61.0975C58.4038 61.3833 58.328 61.7275 58.328 62.0902C58.328 62.4528 58.422 62.777 58.5736 63.0644C58.7433 63.3502 58.9691 63.5608 59.2328 63.7329C59.5146 63.905 59.854 63.9819 60.2314 63.9819C60.4193 63.9819 60.6269 63.9435 60.8527 63.8666C61.0785 63.7897 61.2482 63.7145 61.3619 63.5992C61.4559 63.5223 61.5498 63.504 61.6635 63.4839C61.7574 63.4839 61.8514 63.5223 61.9272 63.5792C62.0211 63.6744 62.059 63.7697 62.0771 63.8649C62.0771 63.9802 62.0392 64.0755 61.9453 64.1507C61.7195 64.3228 61.4559 64.4565 61.1362 64.5702C60.8165 64.6855 60.5149 64.7423 60.2314 64.7423V64.7456ZM64.0728 61.4417C64.0728 61.0591 64.1865 60.6964 64.3744 60.3906C64.5623 60.0848 64.8078 59.8374 65.1094 59.6653C65.4291 59.4932 65.7686 59.3979 66.1262 59.3979C66.4838 59.3979 66.7475 59.4547 66.9172 59.55C67.087 59.6653 67.1628 59.799 67.1051 59.9695C67.087 60.0647 67.0491 60.1416 66.9914 60.18C66.9353 60.2185 66.8777 60.2368 66.8035 60.2368C66.7277 60.2552 66.6338 60.2368 66.558 60.2368C66.1625 60.16 65.823 60.18 65.5214 60.2552C65.2198 60.3321 64.9759 60.4842 64.8062 60.6947C64.6183 60.8853 64.5244 61.1526 64.5244 61.4401H64.0728V61.4417ZM64.091 64.7072C63.9591 64.7072 63.8652 64.6688 63.7894 64.5919C63.7136 64.515 63.6757 64.4198 63.6757 64.2677V59.8742C63.6757 59.7405 63.7136 59.6453 63.7894 59.5684C63.8652 59.4915 63.9591 59.4531 64.091 59.4531C64.2409 59.4531 64.3546 59.4915 64.4304 59.5684C64.4865 59.6252 64.5244 59.7405 64.5244 59.8742V64.2677C64.5244 64.4014 64.4865 64.5167 64.4304 64.5919C64.3546 64.6688 64.2426 64.7072 64.091 64.7072ZM70.0055 64.7456C69.5161 64.7456 69.0826 64.6303 68.7053 64.4014C68.3477 64.1724 68.0461 63.8666 67.8384 63.4655C67.6308 63.0644 67.5187 62.6065 67.5187 62.0902C67.5187 61.5738 67.6324 61.0975 67.8582 60.6964C68.084 60.2953 68.4037 59.9895 68.7992 59.7606C69.1766 59.5316 69.6281 59.4163 70.1357 59.4163C70.6433 59.4163 71.0965 59.5316 71.492 59.7606C71.8875 59.9895 72.1891 60.2953 72.4148 60.6964C72.6406 61.0975 72.7543 61.5554 72.7724 62.0902L72.2451 62.167C72.2451 62.6834 72.1511 63.1213 71.9633 63.504C71.7754 63.905 71.5117 64.1908 71.1723 64.4214C70.8147 64.632 70.4373 64.7456 70.0039 64.7456H70.0055ZM70.1373 66.8463C69.666 66.8463 69.2524 66.751 68.8569 66.5789C68.4614 66.3884 68.1417 66.1394 67.878 65.7951C67.8022 65.6999 67.784 65.6046 67.8022 65.4893C67.8203 65.374 67.8582 65.2988 67.9719 65.2403C68.0658 65.1634 68.1796 65.145 68.2916 65.1634C68.4037 65.1818 68.4993 65.2403 68.5553 65.3355C68.7432 65.5461 68.9508 65.7366 69.2326 65.8519C69.4963 65.9856 69.7979 66.0424 70.1555 66.0424C70.4752 66.0424 70.7767 65.9656 71.0404 65.8135C71.3041 65.6614 71.5117 65.4308 71.6815 65.1266C71.8314 64.8409 71.9072 64.4766 71.9072 64.0571V62.6634L72.2088 61.9381L72.7741 62.0902V64.1139C72.7741 64.6303 72.6604 65.0882 72.4346 65.4893C72.2088 65.9088 71.8891 66.2346 71.4936 66.482C71.0981 66.731 70.6466 66.8446 70.1373 66.8446V66.8463ZM70.1373 63.9619C70.4949 63.9619 70.7965 63.885 71.0602 63.7129C71.3239 63.5608 71.5315 63.3302 71.6815 63.0444C71.8314 62.777 71.9072 62.4528 71.9072 62.0902C71.9072 61.7275 71.8314 61.4033 71.6815 61.1159C71.5315 60.8301 71.3239 60.5995 71.0602 60.4474C70.7965 60.2753 70.4949 60.1984 70.1373 60.1984C69.7979 60.1984 69.4963 60.2753 69.2326 60.4474C68.9508 60.5995 68.7432 60.8301 68.5915 61.1159C68.4416 61.4016 68.3658 61.7275 68.3658 62.0902C68.3658 62.4528 68.4416 62.777 68.5915 63.0444C68.7415 63.3302 68.9492 63.5608 69.2326 63.7129C69.4963 63.885 69.7979 63.9619 70.1373 63.9619ZM75.1092 66.9983C75.0532 66.9983 74.9774 66.98 74.9016 66.9599C74.6561 66.8446 74.5819 66.6541 74.694 66.4068L77.6504 59.7037C77.7641 59.4547 77.952 59.3795 78.1959 59.4932C78.4596 59.6085 78.5156 59.7789 78.4035 60.0463L75.4471 66.731C75.3713 66.9215 75.2592 66.9983 75.1076 66.9983H75.1092ZM76.2018 64.515C76.0881 64.5718 75.9942 64.5718 75.9003 64.5334C75.7932 64.4899 75.7075 64.4081 75.6547 64.3044L73.5074 60.0263C73.4514 59.911 73.4514 59.8157 73.4893 59.7021C73.5272 59.6068 73.603 59.5299 73.7151 59.4915C73.8288 59.4347 73.9227 59.4347 74.0348 59.4731C74.1287 59.4915 74.2045 59.5684 74.2605 59.6837L76.332 63.9619C76.3881 64.0772 76.4078 64.1908 76.3881 64.2861C76.3699 64.3813 76.3123 64.4582 76.2002 64.515H76.2018Z" fill="#227FC2"/>
</g>
<defs>
<clipPath id="clip0_129_17279">
<rect width="84" height="67" fill="white"/>
</clipPath>
</defs>
</svg>
